{"accessors":[{"bufferView":0,"componentType":5126,"count":24,"max":[50.0,15.0,30.0],"min":[-50.0,-15.0,-30.0],"normalized":false,"type":"VEC3"},{"bufferView":1,"componentType":5126,"count":24,"max":[1.0,0.0,1.0,1.0],"min":[-1.0,-0.0000152592547237873,-1.0,1.0],"normalized":false,"type":"VEC4"},{"bufferView":2,"componentType":5126,"count":24,"max":[1.0,1.0,1.0],"min":[-1.0,-1.0,-1.0],"normalized":false,"type":"VEC3"},{"bufferView":3,"componentType":5126,"count":24,"max":[1.0,1.0],"min":[0.0,0.0],"normalized":false,"type":"VEC2"},{"bufferView":4,"componentType":5123,"count":36,"max":[23.0],"min":[0.0],"normalized":false,"type":"SCALAR"},{"bufferView":5,"componentType":5126,"count":24,"max":[50.0,15.0,30.0],"min":[-50.0,-15.0,-30.0],"normalized":false,"type":"VEC3"},{"bufferView":6,"componentType":5126,"count":24,"max":[1.0,0.0,1.0,1.0],"min":[-1.0,-0.0000152592547237873,-1.0,1.0],"normalized":false,"type":"VEC4"},{"bufferView":7,"componentType":5126,"count":24,"max":[1.0,1.0,1.0],"min":[-1.0,-1.0,-1.0],"normalized":false,"type":"VEC3"},{"bufferView":8,"componentType":5126,"count":24,"max":[1.0,1.0],"min":[0.0,0.0],"normalized":false,"type":"VEC2"},{"bufferView":9,"componentType":5123,"count":36,"max":[23.0],"min":[0.0],"normalized":false,"type":"SCALAR"},{"bufferView":10,"componentType":5126,"count":24,"max":[50.0,1.5,30.0],"min":[-50.0,-1.5,-30.0],"normalized":false,"type":"VEC3"},{"bufferView":11,"componentType":5126,"count":24,"max":[1.0,0.0,1.0,1.0],"min":[-1.0,-0.0000152592547237873,-1.0,1.0],"normalized":false,"type":"VEC4"},{"bufferView":12,"componentType":5126,"count":24,"max":[1.0,1.0,1.0],"min":[-1.0,-1.0,-1.0],"normalized":false,"type":"VEC3"},{"bufferView":13,"componentType":5126,"count":24,"max":[1.0,1.0],"min":[0.0,0.0],"normalized":false,"type":"VEC2"},{"bufferView":14,"componentType":5123,"count":36,"max":[23.0],"min":[0.0],"normalized":false,"type":"SCALAR"},{"bufferView":15,"componentType":5126,"count":24,"max":[50.0,5.0,30.0],"min":[-50.0,-5.0,-30.0],"normalized":false,"type":"VEC3"},{"bufferView":16,"componentType":5126,"count":24,"max":[1.0,0.0,1.0,1.0],"min":[-1.0,-0.0000152592547237873,-1.0,1.0],"normalized":false,"type":"VEC4"},{"bufferView":17,"componentType":5126,"count":24,"max":[1.0,1.0,1.0],"min":[-1.0,-1.0,-1.0],"normalized":false,"type":"VEC3"},{"bufferView":18,"componentType":5126,"count":24,"max":[1.0,1.0],"min":[0.0,0.0],"normalized":false,"type":"VEC2"},{"bufferView":19,"componentType":5123,"count":36,"max":[23.0],"min":[0.0],"normalized":false,"type":"SCALAR"},{"bufferView":20,"componentType":5126,"count":24,"max":[28.0,5.0,15.0],"min":[-28.0,-5.0,-15.0],"normalized":false,"type":"VEC3"},{"bufferView":21,"componentType":5126,"count":24,"max":[1.0,0.0,1.0,1.0],"min":[-1.0,-0.0000152592547237873,-1.0,1.0],"normalized":false,"type":"VEC4"},{"bufferView":22,"componentType":5126,"count":24,"max":[1.0,1.0,1.0],"min":[-1.0,-1.0,-1.0],"normalized":false,"type":"VEC3"},{"bufferView":23,"componentType":5126,"count":24,"max":[1.0,1.0],"min":[0.0,0.0],"normalized":false,"type":"VEC2"},{"bufferView":24,"componentType":5123,"count":36,"max":[23.0],"min":[0.0],"normalized":false,"type":"SCALAR"},{"bufferView":25,"componentType":5126,"count":24,"max":[28.0,5.0,15.0],"min":[-28.0,-5.0,-15.0],"normalized":false,"type":"VEC3"},{"bufferView":26,"componentType":5126,"count":24,"max":[1.0,0.0,1.0,1.0],"min":[-1.0,-0.0000152592547237873,-1.0,1.0],"normalized":false,"type":"VEC4"},{"bufferView":27,"componentType":5126,"count":24,"max":[1.0,1.0,1.0],"min":[-1.0,-1.0,-1.0],"normalized":false,"type":"VEC3"},{"bufferView":28,"componentType":5126,"count":24,"max":[1.0,1.0],"min":[0.0,0.0],"normalized":false,"type":"VEC2"},{"bufferView":29,"componentType":5123,"count":36,"max":[23.0],"min":[0.0],"normalized":false,"type":"SCALAR"}],"asset":{"generator":"Godot Engine v4.5.stable.official@876b290332ec6f2e6d173d08162a02aa7e6ca46d","version":"2.0"},"bufferViews":[{"buffer":0,"byteLength":288,"byteStride":12,"target":34962},{"buffer":0,"byteLength":384,"byteOffset":288,"byteStride":16,"target":34962},{"buffer":0,"byteLength":288,"byteOffset":672,"byteStride":12,"target":34962},{"buffer":0,"byteLength":192,"byteOffset":960,"byteStride":8,"target":34962},{"buffer":0,"byteLength":72,"byteOffset":1152,"target":34963},{"buffer":0,"byteLength":288,"byteOffset":1224,"byteStride":12,"target":34962},{"buffer":0,"byteLength":384,"byteOffset":1512,"byteStride":16,"target":34962},{"buffer":0,"byteLength":288,"byteOffset":1896,"byteStride":12,"target":34962},{"buffer":0,"byteLength":192,"byteOffset":2184,"byteStride":8,"target":34962},{"buffer":0,"byteLength":72,"byteOffset":2376,"target":34963},{"buffer":0,"byteLength":288,"byteOffset":2448,"byteStride":12,"target":34962},{"buffer":0,"byteLength":384,"byteOffset":2736,"byteStride":16,"target":34962},{"buffer":0,"byteLength":288,"byteOffset":3120,"byteStride":12,"target":34962},{"buffer":0,"byteLength":192,"byteOffset":3408,"byteStride":8,"target":34962},{"buffer":0,"byteLength":72,"byteOffset":3600,"target":34963},{"buffer":0,"byteLength":288,"byteOffset":3672,"byteStride":12,"target":34962},{"buffer":0,"byteLength":384,"byteOffset":3960,"byteStride":16,"target":34962},{"buffer":0,"byteLength":288,"byteOffset":4344,"byteStride":12,"target":34962},{"buffer":0,"byteLength":192,"byteOffset":4632,"byteStride":8,"target":34962},{"buffer":0,"byteLength":72,"byteOffset":4824,"target":34963},{"buffer":0,"byteLength":288,"byteOffset":4896,"byteStride":12,"target":34962},{"buffer":0,"byteLength":384,"byteOffset":5184,"byteStride":16,"target":34962},{"buffer":0,"byteLength":288,"byteOffset":5568,"byteStride":12,"target":34962},{"buffer":0,"byteLength":192,"byteOffset":5856,"byteStride":8,"target":34962},{"buffer":0,"byteLength":72,"byteOffset":6048,"target":34963},{"buffer":0,"byteLength":288,"byteOffset":6120,"byteStride":12,"target":34962},{"buffer":0,"byteLength":384,"byteOffset":6408,"byteStride":16,"target":34962},{"buffer":0,"byteLength":288,"byteOffset":6792,"byteStride":12,"target":34962},{"buffer":0,"byteLength":192,"byteOffset":7080,"byteStride":8,"target":34962},{"buffer":0,"byteLength":72,"byteOffset":7272,"target":34963}],"buffers":[{"byteLength":7344,"uri":"abism_model0.bin"}],"extensions":{"OMI_physics_shape":{"shapes":[{"trimesh":{"mesh":0},"type":"trimesh"},{"trimesh":{"mesh":2},"type":"trimesh"},{"trimesh":{"mesh":3},"type":"trimesh"}]}},"extensionsUsed":["GODOT_single_root","OMI_physics_body","OMI_physics_shape"],"materials":[{"extensions":{},"pbrMetallicRoughness":{"baseColorFactor":[0.358739286661148,0.304538756608963,0.424333423376083,1.0],"metallicFactor":0.0,"roughnessFactor":1.0}},{"extensions":{},"pbrMetallicRoughness":{"baseColorFactor":[0.447535693645477,0.246416941285133,0.241380840539932,1.0],"metallicFactor":0.0,"roughnessFactor":1.0}}],"meshes":[{"primitives":[{"attributes":{"NORMAL":2,"POSITION":0,"TANGENT":1,"TEXCOORD_0":3},"indices":4,"material":0,"mode":4}]},{"primitives":[{"attributes":{"NORMAL":7,"POSITION":5,"TANGENT":6,"TEXCOORD_0":8},"indices":9,"material":0,"mode":4}]},{"primitives":[{"attributes":{"NORMAL":12,"POSITION":10,"TANGENT":11,"TEXCOORD_0":13},"indices":14,"material":0,"mode":4}]},{"primitives":[{"attributes":{"NORMAL":17,"POSITION":15,"TANGENT":16,"TEXCOORD_0":18},"indices":19,"material":0,"mode":4}]},{"primitives":[{"attributes":{"NORMAL":22,"POSITION":20,"TANGENT":21,"TEXCOORD_0":23},"indices":24,"material":1,"mode":4}]},{"primitives":[{"attributes":{"NORMAL":27,"POSITION":25,"TANGENT":26,"TEXCOORD_0":28},"indices":29,"material":1,"mode":4}]}],"nodes":[{"children":[1,4,7,10,13,14],"name":"abism_model"},{"children":[2],"mesh":0,"name":"MeshInstance3D","translation":[0.0,-14.8445510864258,-2.22477006912231]},{"children":[3],"extensions":{"OMI_physics_body":{"motion":{"type":"static"}}},"name":"StaticBody3D"},{"extensions":{"OMI_physics_body":{"collider":{"shape":0}}},"name":"CollisionShape3D"},{"children":[5],"mesh":1,"name":"MeshInstance3D4","translation":[0.0,-14.8445510864258,-94.4290084838867]},{"children":[6],"extensions":{"OMI_physics_body":{"motion":{"type":"static"}}},"name":"StaticBody3D2"},{"extensions":{"OMI_physics_body":{"collider":{"shape":0}}},"name":"CollisionShape3D2"},{"children":[8],"mesh":2,"name":"MeshInstance3D6","translation":[0.0,-24.5953483581543,-46.194019317627]},{"children":[9],"extensions":{"OMI_physics_body":{"motion":{"type":"static"}}},"name":"StaticBody3D3"},{"extensions":{"OMI_physics_body":{"collider":{"shape":1}}},"name":"CollisionShape3D3"},{"children":[11],"mesh":3,"name":"MeshInstance3D5","translation":[0.0,3.23925995826721,-115.097999572754]},{"children":[12],"extensions":{"OMI_physics_body":{"motion":{"type":"static"}}},"name":"StaticBody3D4"},{"extensions":{"OMI_physics_body":{"collider":{"shape":2}}},"name":"CollisionShape3D4"},{"mesh":4,"name":"MeshInstance3D2","translation":[31.3918991088867,3.73413991928101,25.4039001464844]},{"mesh":5,"name":"MeshInstance3D3","translation":[-33.782398223877,3.73413991928101,25.4039001464844]}],"scene":0,"scenes":[{"nodes":[0]}]}