{"accessors":[{"bufferView":0,"byteOffset":0,"componentType":5126,"count":24,"max":[20.0,2.5,35.0],"min":[-20.0,-2.5,-35.0],"normalized":false,"type":"VEC3"},{"bufferView":1,"byteOffset":0,"componentType":5126,"count":24,"max":[1.0,0.0,1.0,1.0],"min":[-1.0,-0.0000152592547237873,-1.0,1.0],"normalized":false,"type":"VEC4"},{"bufferView":2,"byteOffset":0,"componentType":5126,"count":24,"max":[1.0,1.0,1.0],"min":[-1.0,-1.0,-1.0],"normalized":false,"type":"VEC3"},{"bufferView":3,"byteOffset":0,"componentType":5126,"count":24,"max":[1.0,1.0],"min":[0.0,0.0],"normalized":false,"type":"VEC2"},{"bufferView":4,"byteOffset":0,"componentType":5123,"count":36,"max":[23.0],"min":[0.0],"normalized":false,"type":"SCALAR"},{"bufferView":5,"byteOffset":0,"componentType":5126,"count":24,"max":[20.0,2.5,35.0],"min":[-20.0,-2.5,-35.0],"normalized":false,"type":"VEC3"},{"bufferView":6,"byteOffset":0,"componentType":5126,"count":24,"max":[1.0,0.0,1.0,1.0],"min":[-1.0,-0.0000152592547237873,-1.0,1.0],"normalized":false,"type":"VEC4"},{"bufferView":7,"byteOffset":0,"componentType":5126,"count":24,"max":[1.0,1.0,1.0],"min":[-1.0,-1.0,-1.0],"normalized":false,"type":"VEC3"},{"bufferView":8,"byteOffset":0,"componentType":5126,"count":24,"max":[1.0,1.0],"min":[0.0,0.0],"normalized":false,"type":"VEC2"},{"bufferView":9,"byteOffset":0,"componentType":5123,"count":36,"max":[23.0],"min":[0.0],"normalized":false,"type":"SCALAR"},{"bufferView":10,"byteOffset":0,"componentType":5126,"count":24,"max":[22.5,2.5,35.0],"min":[-22.5,-2.5,-35.0],"normalized":false,"type":"VEC3"},{"bufferView":11,"byteOffset":0,"componentType":5126,"count":24,"max":[1.0,0.0,1.0,1.0],"min":[-1.0,-0.0000152592547237873,-1.0,1.0],"normalized":false,"type":"VEC4"},{"bufferView":12,"byteOffset":0,"componentType":5126,"count":24,"max":[1.0,1.0,1.0],"min":[-1.0,-1.0,-1.0],"normalized":false,"type":"VEC3"},{"bufferView":13,"byteOffset":0,"componentType":5126,"count":24,"max":[1.0,1.0],"min":[0.0,0.0],"normalized":false,"type":"VEC2"},{"bufferView":14,"byteOffset":0,"componentType":5123,"count":36,"max":[23.0],"min":[0.0],"normalized":false,"type":"SCALAR"},{"bufferView":15,"byteOffset":0,"componentType":5126,"count":24,"max":[22.5,2.5,35.0],"min":[-22.5,-2.5,-35.0],"normalized":false,"type":"VEC3"},{"bufferView":16,"byteOffset":0,"componentType":5126,"count":24,"max":[1.0,0.0,1.0,1.0],"min":[-1.0,-0.0000152592547237873,-1.0,1.0],"normalized":false,"type":"VEC4"},{"bufferView":17,"byteOffset":0,"componentType":5126,"count":24,"max":[1.0,1.0,1.0],"min":[-1.0,-1.0,-1.0],"normalized":false,"type":"VEC3"},{"bufferView":18,"byteOffset":0,"componentType":5126,"count":24,"max":[1.0,1.0],"min":[0.0,0.0],"normalized":false,"type":"VEC2"},{"bufferView":19,"byteOffset":0,"componentType":5123,"count":36,"max":[23.0],"min":[0.0],"normalized":false,"type":"SCALAR"},{"bufferView":20,"byteOffset":0,"componentType":5126,"count":24,"max":[22.5,2.5,35.0],"min":[-22.5,-2.5,-35.0],"normalized":false,"type":"VEC3"},{"bufferView":21,"byteOffset":0,"componentType":5126,"count":24,"max":[1.0,0.0,1.0,1.0],"min":[-1.0,-0.0000152592547237873,-1.0,1.0],"normalized":false,"type":"VEC4"},{"bufferView":22,"byteOffset":0,"componentType":5126,"count":24,"max":[1.0,1.0,1.0],"min":[-1.0,-1.0,-1.0],"normalized":false,"type":"VEC3"},{"bufferView":23,"byteOffset":0,"componentType":5126,"count":24,"max":[1.0,1.0],"min":[0.0,0.0],"normalized":false,"type":"VEC2"},{"bufferView":24,"byteOffset":0,"componentType":5123,"count":36,"max":[23.0],"min":[0.0],"normalized":false,"type":"SCALAR"},{"bufferView":25,"byteOffset":0,"componentType":5126,"count":24,"max":[22.5,2.5,35.0],"min":[-22.5,-2.5,-35.0],"normalized":false,"type":"VEC3"},{"bufferView":26,"byteOffset":0,"componentType":5126,"count":24,"max":[1.0,0.0,1.0,1.0],"min":[-1.0,-0.0000152592547237873,-1.0,1.0],"normalized":false,"type":"VEC4"},{"bufferView":27,"byteOffset":0,"componentType":5126,"count":24,"max":[1.0,1.0,1.0],"min":[-1.0,-1.0,-1.0],"normalized":false,"type":"VEC3"},{"bufferView":28,"byteOffset":0,"componentType":5126,"count":24,"max":[1.0,1.0],"min":[0.0,0.0],"normalized":false,"type":"VEC2"},{"bufferView":29,"byteOffset":0,"componentType":5123,"count":36,"max":[23.0],"min":[0.0],"normalized":false,"type":"SCALAR"},{"bufferView":30,"byteOffset":0,"componentType":5126,"count":24,"max":[22.5,2.5,35.0],"min":[-22.5,-2.5,-35.0],"normalized":false,"type":"VEC3"},{"bufferView":31,"byteOffset":0,"componentType":5126,"count":24,"max":[1.0,0.0,1.0,1.0],"min":[-1.0,-0.0000152592547237873,-1.0,1.0],"normalized":false,"type":"VEC4"},{"bufferView":32,"byteOffset":0,"componentType":5126,"count":24,"max":[1.0,1.0,1.0],"min":[-1.0,-1.0,-1.0],"normalized":false,"type":"VEC3"},{"bufferView":33,"byteOffset":0,"componentType":5126,"count":24,"max":[1.0,1.0],"min":[0.0,0.0],"normalized":false,"type":"VEC2"},{"bufferView":34,"byteOffset":0,"componentType":5123,"count":36,"max":[23.0],"min":[0.0],"normalized":false,"type":"SCALAR"}],"asset":{"generator":"Godot Engine v4.4.1.stable.steam@49a5bc7b616bd04689a2c89e89bda41f50241464","version":"2.0"},"bufferViews":[{"buffer":0,"byteLength":288,"byteOffset":0,"byteStride":12,"target":34962},{"buffer":0,"byteLength":384,"byteOffset":288,"byteStride":16,"target":34962},{"buffer":0,"byteLength":288,"byteOffset":672,"byteStride":12,"target":34962},{"buffer":0,"byteLength":192,"byteOffset":960,"byteStride":8,"target":34962},{"buffer":0,"byteLength":72,"byteOffset":1152,"target":34963},{"buffer":0,"byteLength":288,"byteOffset":1224,"byteStride":12,"target":34962},{"buffer":0,"byteLength":384,"byteOffset":1512,"byteStride":16,"target":34962},{"buffer":0,"byteLength":288,"byteOffset":1896,"byteStride":12,"target":34962},{"buffer":0,"byteLength":192,"byteOffset":2184,"byteStride":8,"target":34962},{"buffer":0,"byteLength":72,"byteOffset":2376,"target":34963},{"buffer":0,"byteLength":288,"byteOffset":2448,"byteStride":12,"target":34962},{"buffer":0,"byteLength":384,"byteOffset":2736,"byteStride":16,"target":34962},{"buffer":0,"byteLength":288,"byteOffset":3120,"byteStride":12,"target":34962},{"buffer":0,"byteLength":192,"byteOffset":3408,"byteStride":8,"target":34962},{"buffer":0,"byteLength":72,"byteOffset":3600,"target":34963},{"buffer":0,"byteLength":288,"byteOffset":3672,"byteStride":12,"target":34962},{"buffer":0,"byteLength":384,"byteOffset":3960,"byteStride":16,"target":34962},{"buffer":0,"byteLength":288,"byteOffset":4344,"byteStride":12,"target":34962},{"buffer":0,"byteLength":192,"byteOffset":4632,"byteStride":8,"target":34962},{"buffer":0,"byteLength":72,"byteOffset":4824,"target":34963},{"buffer":0,"byteLength":288,"byteOffset":4896,"byteStride":12,"target":34962},{"buffer":0,"byteLength":384,"byteOffset":5184,"byteStride":16,"target":34962},{"buffer":0,"byteLength":288,"byteOffset":5568,"byteStride":12,"target":34962},{"buffer":0,"byteLength":192,"byteOffset":5856,"byteStride":8,"target":34962},{"buffer":0,"byteLength":72,"byteOffset":6048,"target":34963},{"buffer":0,"byteLength":288,"byteOffset":6120,"byteStride":12,"target":34962},{"buffer":0,"byteLength":384,"byteOffset":6408,"byteStride":16,"target":34962},{"buffer":0,"byteLength":288,"byteOffset":6792,"byteStride":12,"target":34962},{"buffer":0,"byteLength":192,"byteOffset":7080,"byteStride":8,"target":34962},{"buffer":0,"byteLength":72,"byteOffset":7272,"target":34963},{"buffer":0,"byteLength":288,"byteOffset":7344,"byteStride":12,"target":34962},{"buffer":0,"byteLength":384,"byteOffset":7632,"byteStride":16,"target":34962},{"buffer":0,"byteLength":288,"byteOffset":8016,"byteStride":12,"target":34962},{"buffer":0,"byteLength":192,"byteOffset":8304,"byteStride":8,"target":34962},{"buffer":0,"byteLength":72,"byteOffset":8496,"target":34963}],"buffers":[{"byteLength":8568,"uri":"plateau0.bin"}],"extensionsUsed":["GODOT_single_root"],"materials":[{},{},{},{},{},{},{}],"meshes":[{"extras":{"targetNames":[]},"primitives":[{"attributes":{"NORMAL":2,"POSITION":0,"TANGENT":1,"TEXCOORD_0":3},"indices":4,"material":0,"mode":4}]},{"extras":{"targetNames":[]},"primitives":[{"attributes":{"NORMAL":7,"POSITION":5,"TANGENT":6,"TEXCOORD_0":8},"indices":9,"material":1,"mode":4}]},{"extras":{"targetNames":[]},"primitives":[{"attributes":{"NORMAL":12,"POSITION":10,"TANGENT":11,"TEXCOORD_0":13},"indices":14,"material":2,"mode":4}]},{"extras":{"targetNames":[]},"primitives":[{"attributes":{"NORMAL":17,"POSITION":15,"TANGENT":16,"TEXCOORD_0":18},"indices":19,"material":3,"mode":4}]},{"extras":{"targetNames":[]},"primitives":[{"attributes":{"NORMAL":22,"POSITION":20,"TANGENT":21,"TEXCOORD_0":23},"indices":24,"material":4,"mode":4}]},{"extras":{"targetNames":[]},"primitives":[{"attributes":{"NORMAL":27,"POSITION":25,"TANGENT":26,"TEXCOORD_0":28},"indices":29,"material":5,"mode":4}]},{"extras":{"targetNames":[]},"primitives":[{"attributes":{"NORMAL":32,"POSITION":30,"TANGENT":31,"TEXCOORD_0":33},"indices":34,"material":6,"mode":4}]}],"nodes":[{"children":[1,2,3,4,5,6,7],"name":"plateau"},{"mesh":0,"name":"MeshInstance3D","rotation":[0.0,-0.0543402209877968,0.0,0.998522520065308],"translation":[-93.6568298339844,1.71764373779297,-116.301277160645]},{"mesh":1,"name":"MeshInstance3D2","rotation":[0.0,0.0633653253316879,0.0,0.997990429401398],"translation":[-92.3939208984375,1.71764373779297,-63.5262069702148]},{"mesh":2,"name":"MeshInstance3D3","rotation":[0.0,0.20483772456646,0.0,0.978795945644379],"translation":[-85.0851745605469,1.71764373779297,-18.9226455688477]},{"mesh":3,"name":"MeshInstance3D4","rotation":[0.0,0.331411987543106,0.0,0.943486154079437],"translation":[-40.9915962219238,1.71764373779297,51.0370559692383]},{"mesh":4,"name":"MeshInstance3D5","rotation":[0.0,0.630662262439728,0.0,0.776057422161102],"translation":[-11.7635154724121,1.71764373779297,49.0214157104492]},{"mesh":5,"name":"MeshInstance3D6","rotation":[0.0,0.751287221908569,0.0,0.659975409507751],"translation":[45.505443572998,1.7176513671875,52.6144180297852]},{"mesh":6,"name":"MeshInstance3D7","rotation":[0.0,0.754938662052155,0.0,0.655795514583588],"translation":[86.1565628051758,1.71764755249023,47.0374526977539]}],"scene":0,"scenes":[{"nodes":[0]}]}