{"accessors":[{"bufferView":0,"componentType":5126,"count":24,"max":[20.0,0.5,150.0],"min":[-20.0,-0.5,-150.0],"normalized":false,"type":"VEC3"},{"bufferView":1,"componentType":5126,"count":24,"max":[1.0,0.0,1.0,1.0],"min":[-1.0,-0.0000152592547237873,-1.0,1.0],"normalized":false,"type":"VEC4"},{"bufferView":2,"componentType":5126,"count":24,"max":[1.0,1.0,1.0],"min":[-1.0,-1.0,-1.0],"normalized":false,"type":"VEC3"},{"bufferView":3,"componentType":5126,"count":24,"max":[1.0,1.0],"min":[0.0,0.0],"normalized":false,"type":"VEC2"},{"bufferView":4,"componentType":5123,"count":36,"max":[23.0],"min":[0.0],"normalized":false,"type":"SCALAR"},{"bufferView":5,"componentType":5126,"count":24,"max":[5.0,30.0,150.0],"min":[-5.0,-30.0,-150.0],"normalized":false,"type":"VEC3"},{"bufferView":6,"componentType":5126,"count":24,"max":[1.0,0.0,1.0,1.0],"min":[-1.0,-0.0000152592547237873,-1.0,1.0],"normalized":false,"type":"VEC4"},{"bufferView":7,"componentType":5126,"count":24,"max":[1.0,1.0,1.0],"min":[-1.0,-1.0,-1.0],"normalized":false,"type":"VEC3"},{"bufferView":8,"componentType":5126,"count":24,"max":[1.0,1.0],"min":[0.0,0.0],"normalized":false,"type":"VEC2"},{"bufferView":9,"componentType":5123,"count":36,"max":[23.0],"min":[0.0],"normalized":false,"type":"SCALAR"},{"bufferView":10,"componentType":5126,"count":24,"max":[5.0,30.0,150.0],"min":[-5.0,-30.0,-150.0],"normalized":false,"type":"VEC3"},{"bufferView":11,"componentType":5126,"count":24,"max":[1.0,0.0,1.0,1.0],"min":[-1.0,-0.0000152592547237873,-1.0,1.0],"normalized":false,"type":"VEC4"},{"bufferView":12,"componentType":5126,"count":24,"max":[1.0,1.0,1.0],"min":[-1.0,-1.0,-1.0],"normalized":false,"type":"VEC3"},{"bufferView":13,"componentType":5126,"count":24,"max":[1.0,1.0],"min":[0.0,0.0],"normalized":false,"type":"VEC2"},{"bufferView":14,"componentType":5123,"count":36,"max":[23.0],"min":[0.0],"normalized":false,"type":"SCALAR"},{"bufferView":15,"componentType":5126,"count":24,"max":[22.5,30.0,10.0],"min":[-22.5,-30.0,-10.0],"normalized":false,"type":"VEC3"},{"bufferView":16,"componentType":5126,"count":24,"max":[1.0,0.0,1.0,1.0],"min":[-1.0,-0.0000152592547237873,-1.0,1.0],"normalized":false,"type":"VEC4"},{"bufferView":17,"componentType":5126,"count":24,"max":[1.0,1.0,1.0],"min":[-1.0,-1.0,-1.0],"normalized":false,"type":"VEC3"},{"bufferView":18,"componentType":5126,"count":24,"max":[1.0,1.0],"min":[0.0,0.0],"normalized":false,"type":"VEC2"},{"bufferView":19,"componentType":5123,"count":36,"max":[23.0],"min":[0.0],"normalized":false,"type":"SCALAR"},{"bufferView":20,"componentType":5126,"count":456,"max":[1.0,5.0,1.0],"min":[-1.0,-5.0,-1.0],"normalized":false,"type":"VEC3"},{"bufferView":21,"componentType":5126,"count":456,"max":[1.0,0.0,1.0,1.0],"min":[-1.0,-0.0000215795153053477,-1.0,1.0],"normalized":false,"type":"VEC4"},{"bufferView":22,"componentType":5126,"count":456,"max":[0.995038330554962,0.0995400622487068,0.995038330554962],"min":[-0.99504017829895,-1.0,-0.995036721229553],"normalized":false,"type":"VEC3"},{"bufferView":23,"componentType":5126,"count":456,"max":[1.0,1.0],"min":[0.0,0.0],"normalized":false,"type":"VEC2"},{"bufferView":24,"componentType":5123,"count":2112,"max":[455.0],"min":[0.0],"normalized":false,"type":"SCALAR"},{"bufferView":25,"componentType":5126,"count":456,"max":[2.0,7.5,2.0],"min":[-2.0,-7.5,-2.0],"normalized":false,"type":"VEC3"},{"bufferView":26,"componentType":5126,"count":456,"max":[1.0,0.0,1.0,1.0],"min":[-1.0,-0.0000215795153053477,-1.0,1.0],"normalized":false,"type":"VEC4"},{"bufferView":27,"componentType":5126,"count":456,"max":[0.99122953414917,0.132205098867416,0.991230189800262],"min":[-0.991232693195343,-1.0,-0.991227924823761],"normalized":false,"type":"VEC3"},{"bufferView":28,"componentType":5126,"count":456,"max":[1.0,1.0],"min":[0.0,0.0],"normalized":false,"type":"VEC2"},{"bufferView":29,"componentType":5123,"count":2112,"max":[455.0],"min":[0.0],"normalized":false,"type":"SCALAR"},{"bufferView":30,"componentType":5126,"count":456,"max":[2.0,7.5,2.0],"min":[-2.0,-7.5,-2.0],"normalized":false,"type":"VEC3"},{"bufferView":31,"componentType":5126,"count":456,"max":[1.0,0.0,1.0,1.0],"min":[-1.0,-0.0000215795153053477,-1.0,1.0],"normalized":false,"type":"VEC4"},{"bufferView":32,"componentType":5126,"count":456,"max":[0.99122953414917,0.132205098867416,0.991230189800262],"min":[-0.991232693195343,-1.0,-0.991227924823761],"normalized":false,"type":"VEC3"},{"bufferView":33,"componentType":5126,"count":456,"max":[1.0,1.0],"min":[0.0,0.0],"normalized":false,"type":"VEC2"},{"bufferView":34,"componentType":5123,"count":2112,"max":[455.0],"min":[0.0],"normalized":false,"type":"SCALAR"},{"bufferView":35,"componentType":5126,"count":456,"max":[2.0,7.5,2.0],"min":[-2.0,-7.5,-2.0],"normalized":false,"type":"VEC3"},{"bufferView":36,"componentType":5126,"count":456,"max":[1.0,0.0,1.0,1.0],"min":[-1.0,-0.0000215795153053477,-1.0,1.0],"normalized":false,"type":"VEC4"},{"bufferView":37,"componentType":5126,"count":456,"max":[0.99122953414917,0.132205098867416,0.991230189800262],"min":[-0.991232693195343,-1.0,-0.991227924823761],"normalized":false,"type":"VEC3"},{"bufferView":38,"componentType":5126,"count":456,"max":[1.0,1.0],"min":[0.0,0.0],"normalized":false,"type":"VEC2"},{"bufferView":39,"componentType":5123,"count":2112,"max":[455.0],"min":[0.0],"normalized":false,"type":"SCALAR"},{"bufferView":40,"componentType":5126,"count":24,"max":[3.0,2.5,4.0],"min":[-3.0,-2.5,-4.0],"normalized":false,"type":"VEC3"},{"bufferView":41,"componentType":5126,"count":24,"max":[1.0,0.0,1.0,1.0],"min":[-1.0,-0.0000152592547237873,-1.0,1.0],"normalized":false,"type":"VEC4"},{"bufferView":42,"componentType":5126,"count":24,"max":[1.0,1.0,1.0],"min":[-1.0,-1.0,-1.0],"normalized":false,"type":"VEC3"},{"bufferView":43,"componentType":5126,"count":24,"max":[1.0,1.0],"min":[0.0,0.0],"normalized":false,"type":"VEC2"},{"bufferView":44,"componentType":5123,"count":36,"max":[23.0],"min":[0.0],"normalized":false,"type":"SCALAR"},{"bufferView":45,"componentType":5126,"count":24,"max":[3.0,2.5,4.0],"min":[-3.0,-2.5,-4.0],"normalized":false,"type":"VEC3"},{"bufferView":46,"componentType":5126,"count":24,"max":[1.0,0.0,1.0,1.0],"min":[-1.0,-0.0000152592547237873,-1.0,1.0],"normalized":false,"type":"VEC4"},{"bufferView":47,"componentType":5126,"count":24,"max":[1.0,1.0,1.0],"min":[-1.0,-1.0,-1.0],"normalized":false,"type":"VEC3"},{"bufferView":48,"componentType":5126,"count":24,"max":[1.0,1.0],"min":[0.0,0.0],"normalized":false,"type":"VEC2"},{"bufferView":49,"componentType":5123,"count":36,"max":[23.0],"min":[0.0],"normalized":false,"type":"SCALAR"},{"bufferView":50,"componentType":5126,"count":24,"max":[4.5,2.5,4.0],"min":[-4.5,-2.5,-4.0],"normalized":false,"type":"VEC3"},{"bufferView":51,"componentType":5126,"count":24,"max":[1.0,0.0,1.0,1.0],"min":[-1.0,-0.0000152592547237873,-1.0,1.0],"normalized":false,"type":"VEC4"},{"bufferView":52,"componentType":5126,"count":24,"max":[1.0,1.0,1.0],"min":[-1.0,-1.0,-1.0],"normalized":false,"type":"VEC3"},{"bufferView":53,"componentType":5126,"count":24,"max":[1.0,1.0],"min":[0.0,0.0],"normalized":false,"type":"VEC2"},{"bufferView":54,"componentType":5123,"count":36,"max":[23.0],"min":[0.0],"normalized":false,"type":"SCALAR"},{"bufferView":55,"componentType":5126,"count":24,"max":[1.5,2.5,2.0],"min":[-1.5,-2.5,-2.0],"normalized":false,"type":"VEC3"},{"bufferView":56,"componentType":5126,"count":24,"max":[1.0,0.0,1.0,1.0],"min":[-1.0,-0.0000152592547237873,-1.0,1.0],"normalized":false,"type":"VEC4"},{"bufferView":57,"componentType":5126,"count":24,"max":[1.0,1.0,1.0],"min":[-1.0,-1.0,-1.0],"normalized":false,"type":"VEC3"},{"bufferView":58,"componentType":5126,"count":24,"max":[1.0,1.0],"min":[0.0,0.0],"normalized":false,"type":"VEC2"},{"bufferView":59,"componentType":5123,"count":36,"max":[23.0],"min":[0.0],"normalized":false,"type":"SCALAR"},{"bufferView":60,"componentType":5126,"count":24,"max":[1.5,2.5,2.0],"min":[-1.5,-2.5,-2.0],"normalized":false,"type":"VEC3"},{"bufferView":61,"componentType":5126,"count":24,"max":[1.0,0.0,1.0,1.0],"min":[-1.0,-0.0000152592547237873,-1.0,1.0],"normalized":false,"type":"VEC4"},{"bufferView":62,"componentType":5126,"count":24,"max":[1.0,1.0,1.0],"min":[-1.0,-1.0,-1.0],"normalized":false,"type":"VEC3"},{"bufferView":63,"componentType":5126,"count":24,"max":[1.0,1.0],"min":[0.0,0.0],"normalized":false,"type":"VEC2"},{"bufferView":64,"componentType":5123,"count":36,"max":[23.0],"min":[0.0],"normalized":false,"type":"SCALAR"},{"bufferView":65,"componentType":5126,"count":24,"max":[4.0,25.0,5.0],"min":[-4.0,-25.0,-5.0],"normalized":false,"type":"VEC3"},{"bufferView":66,"componentType":5126,"count":24,"max":[1.0,0.0,1.0,1.0],"min":[-1.0,-0.0000152592547237873,-1.0,1.0],"normalized":false,"type":"VEC4"},{"bufferView":67,"componentType":5126,"count":24,"max":[1.0,1.0,1.0],"min":[-1.0,-1.0,-1.0],"normalized":false,"type":"VEC3"},{"bufferView":68,"componentType":5126,"count":24,"max":[1.0,1.0],"min":[0.0,0.0],"normalized":false,"type":"VEC2"},{"bufferView":69,"componentType":5123,"count":36,"max":[23.0],"min":[0.0],"normalized":false,"type":"SCALAR"},{"bufferView":70,"componentType":5126,"count":24,"max":[15.0,25.0,10.0],"min":[-15.0,-25.0,-10.0],"normalized":false,"type":"VEC3"},{"bufferView":71,"componentType":5126,"count":24,"max":[1.0,0.0,1.0,1.0],"min":[-1.0,-0.0000152592547237873,-1.0,1.0],"normalized":false,"type":"VEC4"},{"bufferView":72,"componentType":5126,"count":24,"max":[1.0,1.0,1.0],"min":[-1.0,-1.0,-1.0],"normalized":false,"type":"VEC3"},{"bufferView":73,"componentType":5126,"count":24,"max":[1.0,1.0],"min":[0.0,0.0],"normalized":false,"type":"VEC2"},{"bufferView":74,"componentType":5123,"count":36,"max":[23.0],"min":[0.0],"normalized":false,"type":"SCALAR"},{"bufferView":75,"componentType":5126,"count":24,"max":[15.0,25.0,10.0],"min":[-15.0,-25.0,-10.0],"normalized":false,"type":"VEC3"},{"bufferView":76,"componentType":5126,"count":24,"max":[1.0,0.0,1.0,1.0],"min":[-1.0,-0.0000152592547237873,-1.0,1.0],"normalized":false,"type":"VEC4"},{"bufferView":77,"componentType":5126,"count":24,"max":[1.0,1.0,1.0],"min":[-1.0,-1.0,-1.0],"normalized":false,"type":"VEC3"},{"bufferView":78,"componentType":5126,"count":24,"max":[1.0,1.0],"min":[0.0,0.0],"normalized":false,"type":"VEC2"},{"bufferView":79,"componentType":5123,"count":36,"max":[23.0],"min":[0.0],"normalized":false,"type":"SCALAR"},{"bufferView":80,"componentType":5126,"count":24,"max":[15.0,25.0,10.0],"min":[-15.0,-25.0,-10.0],"normalized":false,"type":"VEC3"},{"bufferView":81,"componentType":5126,"count":24,"max":[1.0,0.0,1.0,1.0],"min":[-1.0,-0.0000152592547237873,-1.0,1.0],"normalized":false,"type":"VEC4"},{"bufferView":82,"componentType":5126,"count":24,"max":[1.0,1.0,1.0],"min":[-1.0,-1.0,-1.0],"normalized":false,"type":"VEC3"},{"bufferView":83,"componentType":5126,"count":24,"max":[1.0,1.0],"min":[0.0,0.0],"normalized":false,"type":"VEC2"},{"bufferView":84,"componentType":5123,"count":36,"max":[23.0],"min":[0.0],"normalized":false,"type":"SCALAR"}],"asset":{"generator":"Godot Engine v4.5.1.stable.steam@f62fdbde15035c5576dad93e586201f4d41ef0cb","version":"2.0"},"bufferViews":[{"buffer":0,"byteLength":288,"byteStride":12,"target":34962},{"buffer":0,"byteLength":384,"byteOffset":288,"byteStride":16,"target":34962},{"buffer":0,"byteLength":288,"byteOffset":672,"byteStride":12,"target":34962},{"buffer":0,"byteLength":192,"byteOffset":960,"byteStride":8,"target":34962},{"buffer":0,"byteLength":72,"byteOffset":1152,"target":34963},{"buffer":0,"byteLength":288,"byteOffset":1224,"byteStride":12,"target":34962},{"buffer":0,"byteLength":384,"byteOffset":1512,"byteStride":16,"target":34962},{"buffer":0,"byteLength":288,"byteOffset":1896,"byteStride":12,"target":34962},{"buffer":0,"byteLength":192,"byteOffset":2184,"byteStride":8,"target":34962},{"buffer":0,"byteLength":72,"byteOffset":2376,"target":34963},{"buffer":0,"byteLength":288,"byteOffset":2448,"byteStride":12,"target":34962},{"buffer":0,"byteLength":384,"byteOffset":2736,"byteStride":16,"target":34962},{"buffer":0,"byteLength":288,"byteOffset":3120,"byteStride":12,"target":34962},{"buffer":0,"byteLength":192,"byteOffset":3408,"byteStride":8,"target":34962},{"buffer":0,"byteLength":72,"byteOffset":3600,"target":34963},{"buffer":0,"byteLength":288,"byteOffset":3672,"byteStride":12,"target":34962},{"buffer":0,"byteLength":384,"byteOffset":3960,"byteStride":16,"target":34962},{"buffer":0,"byteLength":288,"byteOffset":4344,"byteStride":12,"target":34962},{"buffer":0,"byteLength":192,"byteOffset":4632,"byteStride":8,"target":34962},{"buffer":0,"byteLength":72,"byteOffset":4824,"target":34963},{"buffer":0,"byteLength":5472,"byteOffset":4896,"byteStride":12,"target":34962},{"buffer":0,"byteLength":7296,"byteOffset":10368,"byteStride":16,"target":34962},{"buffer":0,"byteLength":5472,"byteOffset":17664,"byteStride":12,"target":34962},{"buffer":0,"byteLength":3648,"byteOffset":23136,"byteStride":8,"target":34962},{"buffer":0,"byteLength":4224,"byteOffset":26784,"target":34963},{"buffer":0,"byteLength":5472,"byteOffset":31008,"byteStride":12,"target":34962},{"buffer":0,"byteLength":7296,"byteOffset":36480,"byteStride":16,"target":34962},{"buffer":0,"byteLength":5472,"byteOffset":43776,"byteStride":12,"target":34962},{"buffer":0,"byteLength":3648,"byteOffset":49248,"byteStride":8,"target":34962},{"buffer":0,"byteLength":4224,"byteOffset":52896,"target":34963},{"buffer":0,"byteLength":5472,"byteOffset":57120,"byteStride":12,"target":34962},{"buffer":0,"byteLength":7296,"byteOffset":62592,"byteStride":16,"target":34962},{"buffer":0,"byteLength":5472,"byteOffset":69888,"byteStride":12,"target":34962},{"buffer":0,"byteLength":3648,"byteOffset":75360,"byteStride":8,"target":34962},{"buffer":0,"byteLength":4224,"byteOffset":79008,"target":34963},{"buffer":0,"byteLength":5472,"byteOffset":83232,"byteStride":12,"target":34962},{"buffer":0,"byteLength":7296,"byteOffset":88704,"byteStride":16,"target":34962},{"buffer":0,"byteLength":5472,"byteOffset":96000,"byteStride":12,"target":34962},{"buffer":0,"byteLength":3648,"byteOffset":101472,"byteStride":8,"target":34962},{"buffer":0,"byteLength":4224,"byteOffset":105120,"target":34963},{"buffer":0,"byteLength":288,"byteOffset":109344,"byteStride":12,"target":34962},{"buffer":0,"byteLength":384,"byteOffset":109632,"byteStride":16,"target":34962},{"buffer":0,"byteLength":288,"byteOffset":110016,"byteStride":12,"target":34962},{"buffer":0,"byteLength":192,"byteOffset":110304,"byteStride":8,"target":34962},{"buffer":0,"byteLength":72,"byteOffset":110496,"target":34963},{"buffer":0,"byteLength":288,"byteOffset":110568,"byteStride":12,"target":34962},{"buffer":0,"byteLength":384,"byteOffset":110856,"byteStride":16,"target":34962},{"buffer":0,"byteLength":288,"byteOffset":111240,"byteStride":12,"target":34962},{"buffer":0,"byteLength":192,"byteOffset":111528,"byteStride":8,"target":34962},{"buffer":0,"byteLength":72,"byteOffset":111720,"target":34963},{"buffer":0,"byteLength":288,"byteOffset":111792,"byteStride":12,"target":34962},{"buffer":0,"byteLength":384,"byteOffset":112080,"byteStride":16,"target":34962},{"buffer":0,"byteLength":288,"byteOffset":112464,"byteStride":12,"target":34962},{"buffer":0,"byteLength":192,"byteOffset":112752,"byteStride":8,"target":34962},{"buffer":0,"byteLength":72,"byteOffset":112944,"target":34963},{"buffer":0,"byteLength":288,"byteOffset":113016,"byteStride":12,"target":34962},{"buffer":0,"byteLength":384,"byteOffset":113304,"byteStride":16,"target":34962},{"buffer":0,"byteLength":288,"byteOffset":113688,"byteStride":12,"target":34962},{"buffer":0,"byteLength":192,"byteOffset":113976,"byteStride":8,"target":34962},{"buffer":0,"byteLength":72,"byteOffset":114168,"target":34963},{"buffer":0,"byteLength":288,"byteOffset":114240,"byteStride":12,"target":34962},{"buffer":0,"byteLength":384,"byteOffset":114528,"byteStride":16,"target":34962},{"buffer":0,"byteLength":288,"byteOffset":114912,"byteStride":12,"target":34962},{"buffer":0,"byteLength":192,"byteOffset":115200,"byteStride":8,"target":34962},{"buffer":0,"byteLength":72,"byteOffset":115392,"target":34963},{"buffer":0,"byteLength":288,"byteOffset":115464,"byteStride":12,"target":34962},{"buffer":0,"byteLength":384,"byteOffset":115752,"byteStride":16,"target":34962},{"buffer":0,"byteLength":288,"byteOffset":116136,"byteStride":12,"target":34962},{"buffer":0,"byteLength":192,"byteOffset":116424,"byteStride":8,"target":34962},{"buffer":0,"byteLength":72,"byteOffset":116616,"target":34963},{"buffer":0,"byteLength":288,"byteOffset":116688,"byteStride":12,"target":34962},{"buffer":0,"byteLength":384,"byteOffset":116976,"byteStride":16,"target":34962},{"buffer":0,"byteLength":288,"byteOffset":117360,"byteStride":12,"target":34962},{"buffer":0,"byteLength":192,"byteOffset":117648,"byteStride":8,"target":34962},{"buffer":0,"byteLength":72,"byteOffset":117840,"target":34963},{"buffer":0,"byteLength":288,"byteOffset":117912,"byteStride":12,"target":34962},{"buffer":0,"byteLength":384,"byteOffset":118200,"byteStride":16,"target":34962},{"buffer":0,"byteLength":288,"byteOffset":118584,"byteStride":12,"target":34962},{"buffer":0,"byteLength":192,"byteOffset":118872,"byteStride":8,"target":34962},{"buffer":0,"byteLength":72,"byteOffset":119064,"target":34963},{"buffer":0,"byteLength":288,"byteOffset":119136,"byteStride":12,"target":34962},{"buffer":0,"byteLength":384,"byteOffset":119424,"byteStride":16,"target":34962},{"buffer":0,"byteLength":288,"byteOffset":119808,"byteStride":12,"target":34962},{"buffer":0,"byteLength":192,"byteOffset":120096,"byteStride":8,"target":34962},{"buffer":0,"byteLength":72,"byteOffset":120288,"target":34963}],"buffers":[{"byteLength":120360,"uri":"third_level_model0.bin"}],"extensions":{"KHR_lights_punctual":{"lights":[{"color":[1.0,0.962193727493286,0.120124936103821],"intensity":0.5,"type":"directional"}]},"OMI_physics_shape":{"shapes":[{"trimesh":{"mesh":0},"type":"trimesh"},{"trimesh":{"mesh":1},"type":"trimesh"},{"trimesh":{"mesh":3},"type":"trimesh"}]}},"extensionsUsed":["GODOT_single_root","KHR_lights_punctual","OMI_physics_body","OMI_physics_shape"],"materials":[{},{"extensions":{},"pbrMetallicRoughness":{"baseColorFactor":[0.12231507152319,0.12711837887764,0.216442629694939,1.0],"metallicFactor":0.0,"roughnessFactor":1.0}},{},{},{},{},{},{},{},{},{}],"meshes":[{"primitives":[{"attributes":{"NORMAL":2,"POSITION":0,"TANGENT":1,"TEXCOORD_0":3},"indices":4,"material":0,"mode":4}]},{"primitives":[{"attributes":{"NORMAL":7,"POSITION":5,"TANGENT":6,"TEXCOORD_0":8},"indices":9,"material":1,"mode":4}]},{"primitives":[{"attributes":{"NORMAL":12,"POSITION":10,"TANGENT":11,"TEXCOORD_0":13},"indices":14,"material":1,"mode":4}]},{"primitives":[{"attributes":{"NORMAL":17,"POSITION":15,"TANGENT":16,"TEXCOORD_0":18},"indices":19,"material":1,"mode":4}]},{"primitives":[{"attributes":{"NORMAL":22,"POSITION":20,"TANGENT":21,"TEXCOORD_0":23},"indices":24,"material":2,"mode":4}]},{"primitives":[{"attributes":{"NORMAL":27,"POSITION":25,"TANGENT":26,"TEXCOORD_0":28},"indices":29,"material":3,"mode":4}]},{"primitives":[{"attributes":{"NORMAL":32,"POSITION":30,"TANGENT":31,"TEXCOORD_0":33},"indices":34,"material":4,"mode":4}]},{"primitives":[{"attributes":{"NORMAL":37,"POSITION":35,"TANGENT":36,"TEXCOORD_0":38},"indices":39,"material":5,"mode":4}]},{"primitives":[{"attributes":{"NORMAL":42,"POSITION":40,"TANGENT":41,"TEXCOORD_0":43},"indices":44,"material":6,"mode":4}]},{"primitives":[{"attributes":{"NORMAL":47,"POSITION":45,"TANGENT":46,"TEXCOORD_0":48},"indices":49,"material":7,"mode":4}]},{"primitives":[{"attributes":{"NORMAL":52,"POSITION":50,"TANGENT":51,"TEXCOORD_0":53},"indices":54,"material":8,"mode":4}]},{"primitives":[{"attributes":{"NORMAL":57,"POSITION":55,"TANGENT":56,"TEXCOORD_0":58},"indices":59,"material":9,"mode":4}]},{"primitives":[{"attributes":{"NORMAL":62,"POSITION":60,"TANGENT":61,"TEXCOORD_0":63},"indices":64,"material":10,"mode":4}]},{"primitives":[{"attributes":{"NORMAL":67,"POSITION":65,"TANGENT":66,"TEXCOORD_0":68},"indices":69,"material":1,"mode":4}]},{"primitives":[{"attributes":{"NORMAL":72,"POSITION":70,"TANGENT":71,"TEXCOORD_0":73},"indices":74,"material":1,"mode":4}]},{"primitives":[{"attributes":{"NORMAL":77,"POSITION":75,"TANGENT":76,"TEXCOORD_0":78},"indices":79,"material":1,"mode":4}]},{"primitives":[{"attributes":{"NORMAL":82,"POSITION":80,"TANGENT":81,"TEXCOORD_0":83},"indices":84,"material":1,"mode":4}]}],"nodes":[{"children":[1,2,3,6,9,12,15],"name":"third_level_model"},{"extensions":{"KHR_lights_punctual":{"light":0}},"name":"DirectionalLight3D","rotation":[-0.129409581422806,0.836516261100769,0.482962936162949,0.224143981933594]},{"name":"WorldEnvironment"},{"children":[4],"mesh":0,"name":"MeshInstance3D","translation":[0.0,-0.5,72.5618133544922]},{"children":[5],"extensions":{"OMI_physics_body":{"motion":{"type":"static"}}},"name":"StaticBody3D"},{"extensions":{"OMI_physics_body":{"collider":{"shape":0}}},"name":"CollisionShape3D"},{"children":[7],"mesh":1,"name":"MeshInstance3D2","translation":[24.1301803588867,28.192403793335,72.5618133544922]},{"children":[8],"extensions":{"OMI_physics_body":{"motion":{"type":"static"}}},"name":"StaticBody3D2"},{"extensions":{"OMI_physics_body":{"collider":{"shape":1}}},"name":"CollisionShape3D2"},{"children":[10],"mesh":2,"name":"MeshInstance3D3","translation":[-24.3179836273193,28.192403793335,72.5618133544922]},{"children":[11],"extensions":{"OMI_physics_body":{"motion":{"type":"static"}}},"name":"StaticBody3D3"},{"extensions":{"OMI_physics_body":{"collider":{"shape":1}}},"name":"CollisionShape3D3"},{"children":[13],"mesh":3,"name":"MeshInstance3D4","translation":[-1.34756088256836,28.192403793335,-53.4665260314941]},{"children":[14],"extensions":{"OMI_physics_body":{"motion":{"type":"static"}}},"name":"StaticBody3D4"},{"extensions":{"OMI_physics_body":{"collider":{"shape":2}}},"name":"CollisionShape3D4"},{"children":[16,17,18,19,20,21,22,23,24,25,26,27,28],"name":"boulders and spikes"},{"mesh":4,"name":"MeshInstance3D5","rotation":[0.0,-0.285286903381348,0.0,0.958442151546478],"translation":[15.8486976623535,4.7767858505249,-39.5896224975586]},{"mesh":5,"name":"MeshInstance3D6","rotation":[-0.034107867628336,-0.283240705728531,0.114587865769863,0.951567649841309],"translation":[18.6984539031982,6.12957620620728,-33.9081878662109]},{"mesh":6,"name":"MeshInstance3D7","rotation":[-0.00189355830661953,-0.0157246291637421,0.119541361927986,0.992702901363373],"translation":[18.6984539031982,6.12957620620728,29.0329895019531]},{"mesh":7,"name":"MeshInstance3D8","rotation":[0.119431979954243,0.991794347763062,-0.00545261660590768,-0.0452799275517464],"translation":[-19.3057518005371,1.77431058883667,8.73923683166504]},{"mesh":8,"name":"MeshInstance3D9","rotation":[0.0671569481492043,-0.155012607574463,-0.0928767845034599,0.981241524219513],"translation":[-17.624231338501,2.11837291717529,-40.4783782958984]},{"mesh":9,"name":"MeshInstance3D22","rotation":[0.0928727462887764,-0.454612612724304,-0.0671625360846519,0.883284389972687],"translation":[-10.9592170715332,1.27953815460205,-44.741397857666]},{"mesh":10,"name":"MeshInstance3D32","rotation":[-0.11441483348608,0.910862386226654,-0.00673792324960232,-0.396476477384567],"translation":[20.0521869659424,1.27953815460205,-17.7353134155273]},{"mesh":11,"name":"MeshInstance3D42","rotation":[0.0,0.165555402636528,0.0,0.986200511455536],"translation":[-18.2502021789551,-1.95432281494141,3.09500885009766]},{"mesh":12,"name":"MeshInstance3D92","rotation":[0.0,-0.339640945196152,0.0,0.940555155277252],"translation":[19.1642780303955,-1.72304058074951,15.4569435119629]},{"mesh":13,"name":"MeshInstance3D10","rotation":[0.0,-0.42859622836113,0.0,0.903496146202087],"translation":[22.308723449707,23.4644470214844,4.95759201049805]},{"mesh":14,"name":"MeshInstance3D11","rotation":[0.0,-0.590056240558624,0.0,0.807362139225006],"translation":[-27.5277633666992,23.4644470214844,24.1535663604736]},{"mesh":15,"name":"MeshInstance3D13","rotation":[0.0,0.939501464366913,0.0,-0.342544943094254],"translation":[-24.0820541381836,23.4644470214844,-44.8065338134766]},{"mesh":16,"name":"MeshInstance3D12","rotation":[0.0,-0.590056240558624,0.0,0.807362139225006],"translation":[28.1277656555176,23.4644470214844,62.9282531738281]}],"scene":0,"scenes":[{"nodes":[0]}]}