# Blender 4.3.2
# www.blender.org
mtllib bamboo.mtl
o vase
v 0.002714 0.001634 -0.075175
v 0.002714 0.316209 -0.081431
v 0.026944 0.001634 -0.072610
v 0.028079 0.316209 -0.078746
v 0.050243 0.001634 -0.065014
v 0.052470 0.316209 -0.070793
v 0.071716 0.001634 -0.052678
v 0.074949 0.316209 -0.057879
v 0.090536 0.001634 -0.036077
v 0.094652 0.316209 -0.040500
v 0.105982 0.001634 -0.015848
v 0.110822 0.316209 -0.019323
v 0.117460 0.001634 0.007231
v 0.122837 0.316209 0.004837
v 0.124527 0.001634 0.032273
v 0.130236 0.316209 0.031053
v 0.126914 0.001634 0.058316
v 0.132734 0.316209 0.058316
v 0.124527 0.001634 0.084359
v 0.130236 0.316209 0.085579
v 0.117460 0.001634 0.109401
v 0.122837 0.316209 0.111795
v 0.105982 0.001634 0.132480
v 0.110822 0.316209 0.135955
v 0.090536 0.001634 0.152709
v 0.094652 0.316209 0.157132
v 0.071716 0.001634 0.169310
v 0.074949 0.316209 0.174512
v 0.050243 0.001634 0.181646
v 0.052470 0.316209 0.187426
v 0.026944 0.001634 0.189243
v 0.028079 0.316209 0.195378
v 0.002714 0.001634 0.191808
v 0.002714 0.316209 0.198063
v -0.021517 0.001634 0.189243
v -0.022652 0.316209 0.195378
v -0.044816 0.001634 0.181646
v -0.047043 0.316209 0.187426
v -0.066288 0.001634 0.169310
v -0.069522 0.316209 0.174512
v -0.085109 0.001634 0.152709
v -0.089225 0.316209 0.157132
v -0.100555 0.001634 0.132480
v -0.105395 0.316209 0.135955
v -0.112033 0.001634 0.109401
v -0.117410 0.316209 0.111795
v -0.119100 0.001634 0.084359
v -0.124809 0.316209 0.085579
v -0.121487 0.001634 0.058316
v -0.127307 0.316209 0.058316
v -0.119100 0.001634 0.032273
v -0.124809 0.316209 0.031053
v -0.112033 0.001634 0.007231
v -0.117410 0.316209 0.004837
v -0.100555 0.001634 -0.015848
v -0.105395 0.316209 -0.019323
v -0.085109 0.001634 -0.036077
v -0.089225 0.316209 -0.040500
v -0.066288 0.001634 -0.052678
v -0.069522 0.316209 -0.057879
v -0.044816 0.001634 -0.065014
v -0.047043 0.316209 -0.070793
v -0.021517 0.001634 -0.072610
v -0.022652 0.316209 -0.078746
v 0.002714 0.158708 -0.081431
v 0.028079 0.158708 -0.078746
v 0.052470 0.158708 -0.070793
v 0.074949 0.158708 -0.057879
v 0.094652 0.158708 -0.040500
v 0.110822 0.158708 -0.019323
v 0.122837 0.158708 0.004837
v 0.130236 0.158708 0.031053
v 0.132734 0.158708 0.058316
v 0.130236 0.158708 0.085579
v 0.122837 0.158708 0.111795
v 0.110822 0.158708 0.135955
v 0.094652 0.158708 0.157132
v 0.074949 0.158708 0.174512
v 0.052470 0.158708 0.187426
v 0.028079 0.158708 0.195378
v 0.002714 0.158708 0.198063
v -0.022652 0.158708 0.195378
v -0.047043 0.158708 0.187426
v -0.069522 0.158708 0.174512
v -0.089225 0.158708 0.157132
v -0.105395 0.158708 0.135955
v -0.117410 0.158708 0.111795
v -0.124809 0.158708 0.085579
v -0.127307 0.158708 0.058316
v -0.124809 0.158708 0.031053
v -0.117410 0.158708 0.004837
v -0.105395 0.158708 -0.019323
v -0.089225 0.158708 -0.040500
v -0.069522 0.158708 -0.057879
v -0.047043 0.158708 -0.070793
v -0.022652 0.158708 -0.078746
v 0.028079 0.079957 -0.078746
v 0.052470 0.079957 -0.070793
v 0.074949 0.079957 -0.057879
v 0.094652 0.079957 -0.040500
v 0.110822 0.079957 -0.019323
v 0.122837 0.079957 0.004837
v 0.130236 0.079957 0.031053
v 0.132734 0.079957 0.058316
v 0.130236 0.079957 0.085579
v 0.122837 0.079957 0.111795
v 0.110822 0.079957 0.135955
v 0.094652 0.079957 0.157132
v 0.074949 0.079957 0.174512
v 0.052470 0.079957 0.187426
v 0.028079 0.079957 0.195378
v 0.002714 0.079957 0.198063
v -0.022652 0.079957 0.195378
v -0.047043 0.079957 0.187426
v -0.069522 0.079957 0.174512
v -0.089225 0.079957 0.157132
v -0.105395 0.079957 0.135955
v -0.117410 0.079957 0.111795
v -0.124809 0.079957 0.085579
v -0.127307 0.079957 0.058316
v -0.124809 0.079957 0.031053
v -0.117410 0.079957 0.004837
v -0.105395 0.079957 -0.019323
v -0.089225 0.079957 -0.040500
v -0.069522 0.079957 -0.057879
v -0.047043 0.079957 -0.070793
v -0.022652 0.079957 -0.078746
v 0.002714 0.079957 -0.081431
v 0.026944 0.019906 -0.072610
v 0.050243 0.019906 -0.065014
v 0.071716 0.019906 -0.052678
v 0.090536 0.019906 -0.036077
v 0.105982 0.019906 -0.015848
v 0.117460 0.019906 0.007231
v 0.124527 0.019906 0.032273
v 0.126914 0.019906 0.058316
v 0.124527 0.019906 0.084359
v 0.117460 0.019906 0.109401
v 0.105982 0.019906 0.132480
v 0.090536 0.019906 0.152709
v 0.071716 0.019906 0.169310
v 0.050243 0.019906 0.181646
v 0.026944 0.019906 0.189243
v 0.002714 0.019906 0.191808
v -0.021517 0.019906 0.189243
v -0.044816 0.019906 0.181646
v -0.066288 0.019906 0.169310
v -0.085109 0.019906 0.152709
v -0.100555 0.019906 0.132480
v -0.112033 0.019906 0.109401
v -0.119100 0.019906 0.084359
v -0.121487 0.019906 0.058316
v -0.119100 0.019906 0.032273
v -0.112033 0.019906 0.007231
v -0.100555 0.019906 -0.015848
v -0.085109 0.019906 -0.036077
v -0.066288 0.019906 -0.052678
v -0.044816 0.019906 -0.065014
v -0.021517 0.019906 -0.072610
v 0.002714 0.019906 -0.075175
vn 0.1053 -0.0000 -0.9944
vn 0.3100 -0.0000 -0.9507
vn 0.4981 -0.0000 -0.8671
vn 0.6615 -0.0000 -0.7499
vn 0.7948 -0.0000 -0.6069
vn 0.8954 -0.0000 -0.4453
vn 0.9624 -0.0000 -0.2716
vn 0.9958 -0.0000 -0.0913
vn 0.9958 -0.0000 0.0913
vn 0.9624 -0.0000 0.2716
vn 0.8954 -0.0000 0.4453
vn 0.7948 -0.0000 0.6069
vn 0.6615 -0.0000 0.7499
vn 0.4981 -0.0000 0.8671
vn 0.3100 -0.0000 0.9507
vn 0.1053 -0.0000 0.9944
vn -0.1053 -0.0000 0.9944
vn -0.3100 -0.0000 0.9507
vn -0.4981 -0.0000 0.8671
vn -0.6615 -0.0000 0.7499
vn -0.7948 -0.0000 0.6069
vn -0.8954 -0.0000 0.4453
vn -0.9624 -0.0000 0.2716
vn -0.9958 -0.0000 0.0913
vn -0.9958 -0.0000 -0.0913
vn -0.9624 -0.0000 -0.2716
vn -0.8954 -0.0000 -0.4453
vn -0.7948 -0.0000 -0.6069
vn -0.6615 -0.0000 -0.7499
vn -0.4981 -0.0000 -0.8671
vn -0.0000 1.0000 -0.0000
vn -0.3100 -0.0000 -0.9507
vn -0.1053 -0.0000 -0.9944
vn -0.0000 -1.0000 -0.0000
vn 0.1047 -0.1030 -0.9892
vn 0.3083 -0.1025 -0.9457
vn 0.4956 -0.1014 -0.8626
vn 0.6582 -0.1001 -0.7462
vn 0.7909 -0.0987 -0.6039
vn 0.8911 -0.0975 -0.4432
vn 0.9579 -0.0966 -0.2704
vn 0.9912 -0.0961 -0.0908
vn 0.9912 -0.0961 0.0908
vn 0.9579 -0.0966 0.2704
vn 0.8911 -0.0975 0.4432
vn 0.7909 -0.0987 0.6039
vn 0.6582 -0.1001 0.7462
vn 0.4956 -0.1014 0.8626
vn 0.3083 -0.1025 0.9457
vn 0.1047 -0.1030 0.9892
vn -0.1047 -0.1030 0.9892
vn -0.3083 -0.1025 0.9457
vn -0.4956 -0.1014 0.8626
vn -0.6582 -0.1001 0.7462
vn -0.7909 -0.0987 0.6039
vn -0.8911 -0.0975 0.4432
vn -0.9579 -0.0966 0.2704
vn -0.9912 -0.0961 0.0908
vn -0.9912 -0.0961 -0.0908
vn -0.9579 -0.0966 -0.2704
vn -0.8911 -0.0975 -0.4432
vn -0.7909 -0.0987 -0.6039
vn -0.6582 -0.1001 -0.7462
vn -0.4956 -0.1014 -0.8626
vn -0.3083 -0.1025 -0.9457
vn -0.1047 -0.1030 -0.9892
vt 1.000000 0.750000
vt 1.000000 1.000000
vt 0.968750 1.000000
vt 0.968750 0.750000
vt 0.937500 1.000000
vt 0.937500 0.750000
vt 0.906250 1.000000
vt 0.906250 0.750000
vt 0.875000 1.000000
vt 0.875000 0.750000
vt 0.843750 1.000000
vt 0.843750 0.750000
vt 0.812500 1.000000
vt 0.812500 0.750000
vt 0.781250 1.000000
vt 0.781250 0.750000
vt 0.750000 1.000000
vt 0.750000 0.750000
vt 0.718750 1.000000
vt 0.718750 0.750000
vt 0.687500 1.000000
vt 0.687500 0.750000
vt 0.656250 1.000000
vt 0.656250 0.750000
vt 0.625000 1.000000
vt 0.625000 0.750000
vt 0.593750 1.000000
vt 0.593750 0.750000
vt 0.562500 1.000000
vt 0.562500 0.750000
vt 0.531250 1.000000
vt 0.531250 0.750000
vt 0.500000 1.000000
vt 0.500000 0.750000
vt 0.468750 1.000000
vt 0.468750 0.750000
vt 0.437500 1.000000
vt 0.437500 0.750000
vt 0.406250 1.000000
vt 0.406250 0.750000
vt 0.375000 1.000000
vt 0.375000 0.750000
vt 0.343750 1.000000
vt 0.343750 0.750000
vt 0.312500 1.000000
vt 0.312500 0.750000
vt 0.281250 1.000000
vt 0.281250 0.750000
vt 0.250000 1.000000
vt 0.250000 0.750000
vt 0.218750 1.000000
vt 0.218750 0.750000
vt 0.187500 1.000000
vt 0.187500 0.750000
vt 0.156250 1.000000
vt 0.156250 0.750000
vt 0.125000 1.000000
vt 0.125000 0.750000
vt 0.093750 1.000000
vt 0.093750 0.750000
vt 0.062500 1.000000
vt 0.062500 0.750000
vt 0.296822 0.485388
vt 0.250000 0.490000
vt 0.203178 0.485388
vt 0.158156 0.471731
vt 0.116663 0.449553
vt 0.080294 0.419706
vt 0.050447 0.383337
vt 0.028269 0.341844
vt 0.014612 0.296822
vt 0.010000 0.250000
vt 0.014612 0.203178
vt 0.028269 0.158156
vt 0.050447 0.116663
vt 0.080294 0.080294
vt 0.116663 0.050447
vt 0.158156 0.028269
vt 0.203178 0.014612
vt 0.250000 0.010000
vt 0.296822 0.014612
vt 0.341844 0.028269
vt 0.383337 0.050447
vt 0.419706 0.080294
vt 0.449553 0.116663
vt 0.471731 0.158156
vt 0.485388 0.203178
vt 0.490000 0.250000
vt 0.485388 0.296822
vt 0.471731 0.341844
vt 0.449553 0.383337
vt 0.419706 0.419706
vt 0.383337 0.449553
vt 0.341844 0.471731
vt 0.031250 1.000000
vt 0.031250 0.750000
vt 0.000000 1.000000
vt 0.000000 0.750000
vt 0.750000 0.490000
vt 0.796822 0.485388
vt 0.841844 0.471731
vt 0.883337 0.449553
vt 0.919706 0.419706
vt 0.949553 0.383337
vt 0.971731 0.341844
vt 0.985388 0.296822
vt 0.990000 0.250000
vt 0.985388 0.203178
vt 0.971731 0.158156
vt 0.949553 0.116663
vt 0.919706 0.080294
vt 0.883337 0.050447
vt 0.841844 0.028269
vt 0.796822 0.014612
vt 0.750000 0.010000
vt 0.703178 0.014612
vt 0.658156 0.028269
vt 0.616663 0.050447
vt 0.580294 0.080294
vt 0.550447 0.116663
vt 0.528269 0.158156
vt 0.514612 0.203178
vt 0.510000 0.250000
vt 0.514612 0.296822
vt 0.528269 0.341844
vt 0.550447 0.383337
vt 0.580294 0.419706
vt 0.616663 0.449553
vt 0.658156 0.471731
vt 0.703178 0.485388
vt 0.031250 0.625000
vt 0.000000 0.625000
vt 0.062500 0.625000
vt 0.093750 0.625000
vt 0.125000 0.625000
vt 0.156250 0.625000
vt 0.187500 0.625000
vt 0.218750 0.625000
vt 0.250000 0.625000
vt 0.281250 0.625000
vt 0.312500 0.625000
vt 0.343750 0.625000
vt 0.375000 0.625000
vt 0.406250 0.625000
vt 0.437500 0.625000
vt 0.468750 0.625000
vt 0.500000 0.625000
vt 0.531250 0.625000
vt 0.562500 0.625000
vt 0.593750 0.625000
vt 0.625000 0.625000
vt 0.656250 0.625000
vt 0.687500 0.625000
vt 0.718750 0.625000
vt 0.750000 0.625000
vt 0.781250 0.625000
vt 0.812500 0.625000
vt 0.843750 0.625000
vt 0.875000 0.625000
vt 0.906250 0.625000
vt 0.937500 0.625000
vt 0.968750 0.625000
vt 1.000000 0.625000
vt 1.000000 0.530361
vt 0.968750 0.530361
vt 0.937500 0.530361
vt 0.906250 0.530361
vt 0.875000 0.530361
vt 0.843750 0.530361
vt 0.812500 0.530361
vt 0.781250 0.530361
vt 0.750000 0.530361
vt 0.718750 0.530361
vt 0.687500 0.530361
vt 0.656250 0.530361
vt 0.625000 0.530361
vt 0.593750 0.530361
vt 0.562500 0.530361
vt 0.531250 0.530361
vt 0.500000 0.530361
vt 0.468750 0.530361
vt 0.437500 0.530361
vt 0.406250 0.530361
vt 0.375000 0.530361
vt 0.343750 0.530361
vt 0.312500 0.530361
vt 0.281250 0.530361
vt 0.250000 0.530361
vt 0.218750 0.530361
vt 0.187500 0.530361
vt 0.156250 0.530361
vt 0.125000 0.530361
vt 0.093750 0.530361
vt 0.062500 0.530361
vt 0.031250 0.530361
vt 1.000000 0.500000
vt 0.968750 0.500000
vt 0.937500 0.500000
vt 0.906250 0.500000
vt 0.875000 0.500000
vt 0.843750 0.500000
vt 0.812500 0.500000
vt 0.781250 0.500000
vt 0.750000 0.500000
vt 0.718750 0.500000
vt 0.687500 0.500000
vt 0.656250 0.500000
vt 0.625000 0.500000
vt 0.593750 0.500000
vt 0.562500 0.500000
vt 0.531250 0.500000
vt 0.500000 0.500000
vt 0.468750 0.500000
vt 0.437500 0.500000
vt 0.406250 0.500000
vt 0.375000 0.500000
vt 0.343750 0.500000
vt 0.312500 0.500000
vt 0.281250 0.500000
vt 0.250000 0.500000
vt 0.218750 0.500000
vt 0.187500 0.500000
vt 0.156250 0.500000
vt 0.125000 0.500000
vt 0.093750 0.500000
vt 0.062500 0.500000
vt 0.031250 0.500000
vt 0.000000 0.530361
vt 0.000000 0.500000
s 0
usemtl Material.001
f 65/1/1 2/2/1 4/3/1 66/4/1
f 66/4/2 4/3/2 6/5/2 67/6/2
f 67/6/3 6/5/3 8/7/3 68/8/3
f 68/8/4 8/7/4 10/9/4 69/10/4
f 69/10/5 10/9/5 12/11/5 70/12/5
f 70/12/6 12/11/6 14/13/6 71/14/6
f 71/14/7 14/13/7 16/15/7 72/16/7
f 72/16/8 16/15/8 18/17/8 73/18/8
f 73/18/9 18/17/9 20/19/9 74/20/9
f 74/20/10 20/19/10 22/21/10 75/22/10
f 75/22/11 22/21/11 24/23/11 76/24/11
f 76/24/12 24/23/12 26/25/12 77/26/12
f 77/26/13 26/25/13 28/27/13 78/28/13
f 78/28/14 28/27/14 30/29/14 79/30/14
f 79/30/15 30/29/15 32/31/15 80/32/15
f 80/32/16 32/31/16 34/33/16 81/34/16
f 81/34/17 34/33/17 36/35/17 82/36/17
f 82/36/18 36/35/18 38/37/18 83/38/18
f 83/38/19 38/37/19 40/39/19 84/40/19
f 84/40/20 40/39/20 42/41/20 85/42/20
f 85/42/21 42/41/21 44/43/21 86/44/21
f 86/44/22 44/43/22 46/45/22 87/46/22
f 87/46/23 46/45/23 48/47/23 88/48/23
f 88/48/24 48/47/24 50/49/24 89/50/24
f 89/50/25 50/49/25 52/51/25 90/52/25
f 90/52/26 52/51/26 54/53/26 91/54/26
f 91/54/27 54/53/27 56/55/27 92/56/27
f 92/56/28 56/55/28 58/57/28 93/58/28
f 93/58/29 58/57/29 60/59/29 94/60/29
f 94/60/30 60/59/30 62/61/30 95/62/30
f 4/63/31 2/64/31 64/65/31 62/66/31 60/67/31 58/68/31 56/69/31 54/70/31 52/71/31 50/72/31 48/73/31 46/74/31 44/75/31 42/76/31 40/77/31 38/78/31 36/79/31 34/80/31 32/81/31 30/82/31 28/83/31 26/84/31 24/85/31 22/86/31 20/87/31 18/88/31 16/89/31 14/90/31 12/91/31 10/92/31 8/93/31 6/94/31
f 95/62/32 62/61/32 64/95/32 96/96/32
f 96/96/33 64/95/33 2/97/33 65/98/33
f 1/99/34 3/100/34 5/101/34 7/102/34 9/103/34 11/104/34 13/105/34 15/106/34 17/107/34 19/108/34 21/109/34 23/110/34 25/111/34 27/112/34 29/113/34 31/114/34 33/115/34 35/116/34 37/117/34 39/118/34 41/119/34 43/120/34 45/121/34 47/122/34 49/123/34 51/124/34 53/125/34 55/126/34 57/127/34 59/128/34 61/129/34 63/130/34
f 127/131/33 96/96/33 65/98/33 128/132/33
f 126/133/32 95/62/32 96/96/32 127/131/32
f 125/134/30 94/60/30 95/62/30 126/133/30
f 124/135/29 93/58/29 94/60/29 125/134/29
f 123/136/28 92/56/28 93/58/28 124/135/28
f 122/137/27 91/54/27 92/56/27 123/136/27
f 121/138/26 90/52/26 91/54/26 122/137/26
f 120/139/25 89/50/25 90/52/25 121/138/25
f 119/140/24 88/48/24 89/50/24 120/139/24
f 118/141/23 87/46/23 88/48/23 119/140/23
f 117/142/22 86/44/22 87/46/22 118/141/22
f 116/143/21 85/42/21 86/44/21 117/142/21
f 115/144/20 84/40/20 85/42/20 116/143/20
f 114/145/19 83/38/19 84/40/19 115/144/19
f 113/146/18 82/36/18 83/38/18 114/145/18
f 112/147/17 81/34/17 82/36/17 113/146/17
f 111/148/16 80/32/16 81/34/16 112/147/16
f 110/149/15 79/30/15 80/32/15 111/148/15
f 109/150/14 78/28/14 79/30/14 110/149/14
f 108/151/13 77/26/13 78/28/13 109/150/13
f 107/152/12 76/24/12 77/26/12 108/151/12
f 106/153/11 75/22/11 76/24/11 107/152/11
f 105/154/10 74/20/10 75/22/10 106/153/10
f 104/155/9 73/18/9 74/20/9 105/154/9
f 103/156/8 72/16/8 73/18/8 104/155/8
f 102/157/7 71/14/7 72/16/7 103/156/7
f 101/158/6 70/12/6 71/14/6 102/157/6
f 100/159/5 69/10/5 70/12/5 101/158/5
f 99/160/4 68/8/4 69/10/4 100/159/4
f 98/161/3 67/6/3 68/8/3 99/160/3
f 97/162/2 66/4/2 67/6/2 98/161/2
f 128/163/1 65/1/1 66/4/1 97/162/1
f 160/164/35 128/163/35 97/162/35 129/165/35
f 129/165/36 97/162/36 98/161/36 130/166/36
f 130/166/37 98/161/37 99/160/37 131/167/37
f 131/167/38 99/160/38 100/159/38 132/168/38
f 132/168/39 100/159/39 101/158/39 133/169/39
f 133/169/40 101/158/40 102/157/40 134/170/40
f 134/170/41 102/157/41 103/156/41 135/171/41
f 135/171/42 103/156/42 104/155/42 136/172/42
f 136/172/43 104/155/43 105/154/43 137/173/43
f 137/173/44 105/154/44 106/153/44 138/174/44
f 138/174/45 106/153/45 107/152/45 139/175/45
f 139/175/46 107/152/46 108/151/46 140/176/46
f 140/176/47 108/151/47 109/150/47 141/177/47
f 141/177/48 109/150/48 110/149/48 142/178/48
f 142/178/49 110/149/49 111/148/49 143/179/49
f 143/179/50 111/148/50 112/147/50 144/180/50
f 144/180/51 112/147/51 113/146/51 145/181/51
f 145/181/52 113/146/52 114/145/52 146/182/52
f 146/182/53 114/145/53 115/144/53 147/183/53
f 147/183/54 115/144/54 116/143/54 148/184/54
f 148/184/55 116/143/55 117/142/55 149/185/55
f 149/185/56 117/142/56 118/141/56 150/186/56
f 150/186/57 118/141/57 119/140/57 151/187/57
f 151/187/58 119/140/58 120/139/58 152/188/58
f 152/188/59 120/139/59 121/138/59 153/189/59
f 153/189/60 121/138/60 122/137/60 154/190/60
f 154/190/61 122/137/61 123/136/61 155/191/61
f 155/191/62 123/136/62 124/135/62 156/192/62
f 156/192/63 124/135/63 125/134/63 157/193/63
f 157/193/64 125/134/64 126/133/64 158/194/64
f 158/194/65 126/133/65 127/131/65 159/195/65
f 1/196/1 160/164/1 129/165/1 3/197/1
f 3/197/2 129/165/2 130/166/2 5/198/2
f 5/198/3 130/166/3 131/167/3 7/199/3
f 7/199/4 131/167/4 132/168/4 9/200/4
f 9/200/5 132/168/5 133/169/5 11/201/5
f 11/201/6 133/169/6 134/170/6 13/202/6
f 13/202/7 134/170/7 135/171/7 15/203/7
f 15/203/8 135/171/8 136/172/8 17/204/8
f 17/204/9 136/172/9 137/173/9 19/205/9
f 19/205/10 137/173/10 138/174/10 21/206/10
f 21/206/11 138/174/11 139/175/11 23/207/11
f 23/207/12 139/175/12 140/176/12 25/208/12
f 25/208/13 140/176/13 141/177/13 27/209/13
f 27/209/14 141/177/14 142/178/14 29/210/14
f 29/210/15 142/178/15 143/179/15 31/211/15
f 31/211/16 143/179/16 144/180/16 33/212/16
f 33/212/17 144/180/17 145/181/17 35/213/17
f 35/213/18 145/181/18 146/182/18 37/214/18
f 37/214/19 146/182/19 147/183/19 39/215/19
f 39/215/20 147/183/20 148/184/20 41/216/20
f 41/216/21 148/184/21 149/185/21 43/217/21
f 43/217/22 149/185/22 150/186/22 45/218/22
f 45/218/23 150/186/23 151/187/23 47/219/23
f 47/219/24 151/187/24 152/188/24 49/220/24
f 49/220/25 152/188/25 153/189/25 51/221/25
f 51/221/26 153/189/26 154/190/26 53/222/26
f 53/222/27 154/190/27 155/191/27 55/223/27
f 55/223/28 155/191/28 156/192/28 57/224/28
f 57/224/29 156/192/29 157/193/29 59/225/29
f 59/225/30 157/193/30 158/194/30 61/226/30
f 61/226/32 158/194/32 159/195/32 63/227/32
f 63/227/33 159/195/33 160/228/33 1/229/33
f 159/195/66 127/131/66 128/132/66 160/228/66
o Cylinder.001
v 0.055830 0.069655 0.047716
v 0.055830 0.854328 0.047716
v 0.057898 0.069655 0.047920
v 0.057898 0.854328 0.047920
v 0.059886 0.069655 0.048523
v 0.059886 0.854328 0.048523
v 0.061719 0.069655 0.049503
v 0.061719 0.854328 0.049503
v 0.063325 0.069655 0.050821
v 0.063325 0.854328 0.050821
v 0.064643 0.069655 0.052427
v 0.064643 0.854328 0.052427
v 0.065623 0.069655 0.054260
v 0.065623 0.854328 0.054260
v 0.066226 0.069655 0.056248
v 0.066226 0.854328 0.056248
v 0.066430 0.069655 0.058316
v 0.066430 0.854328 0.058316
v 0.066226 0.069655 0.060384
v 0.066226 0.854328 0.060384
v 0.065623 0.069655 0.062373
v 0.065623 0.854328 0.062373
v 0.064643 0.069655 0.064205
v 0.064643 0.854328 0.064205
v 0.063325 0.069655 0.065811
v 0.063325 0.854328 0.065811
v 0.061719 0.069655 0.067130
v 0.061719 0.854328 0.067130
v 0.059886 0.069655 0.068109
v 0.059886 0.854328 0.068109
v 0.057898 0.069655 0.068712
v 0.057898 0.854328 0.068712
v 0.055830 0.069655 0.068916
v 0.055830 0.854328 0.068916
v 0.053762 0.069655 0.068712
v 0.053762 0.854328 0.068712
v 0.051773 0.069655 0.068109
v 0.051773 0.854328 0.068109
v 0.049941 0.069655 0.067130
v 0.049941 0.854328 0.067130
v 0.048335 0.069655 0.065811
v 0.048335 0.854328 0.065811
v 0.047016 0.069655 0.064205
v 0.047016 0.854328 0.064205
v 0.046037 0.069655 0.062373
v 0.046037 0.854328 0.062373
v 0.045434 0.069655 0.060384
v 0.045434 0.854328 0.060384
v 0.045230 0.069655 0.058316
v 0.045230 0.854328 0.058316
v 0.045434 0.069655 0.056248
v 0.045434 0.854328 0.056248
v 0.046037 0.069655 0.054260
v 0.046037 0.854328 0.054260
v 0.047016 0.069655 0.052427
v 0.047016 0.854328 0.052427
v 0.048335 0.069655 0.050821
v 0.048335 0.854328 0.050821
v 0.049941 0.069655 0.049503
v 0.049941 0.854328 0.049503
v 0.051773 0.069655 0.048523
v 0.051773 0.854328 0.048523
v 0.053762 0.069655 0.047920
v 0.053762 0.854328 0.047920
vn 0.0980 -0.0000 -0.9952
vn 0.2903 -0.0000 -0.9569
vn 0.4714 -0.0000 -0.8819
vn 0.6344 -0.0000 -0.7730
vn 0.7730 -0.0000 -0.6344
vn 0.8819 -0.0000 -0.4714
vn 0.9569 -0.0000 -0.2903
vn 0.9952 -0.0000 -0.0980
vn 0.9952 -0.0000 0.0980
vn 0.9569 -0.0000 0.2903
vn 0.8819 -0.0000 0.4714
vn 0.7730 -0.0000 0.6344
vn 0.6344 -0.0000 0.7730
vn 0.4714 -0.0000 0.8819
vn 0.2903 -0.0000 0.9569
vn 0.0980 -0.0000 0.9952
vn -0.0980 -0.0000 0.9952
vn -0.2903 -0.0000 0.9569
vn -0.4714 -0.0000 0.8819
vn -0.6344 -0.0000 0.7730
vn -0.7730 -0.0000 0.6344
vn -0.8819 -0.0000 0.4714
vn -0.9569 -0.0000 0.2903
vn -0.9952 -0.0000 0.0980
vn -0.9952 -0.0000 -0.0980
vn -0.9569 -0.0000 -0.2903
vn -0.8819 -0.0000 -0.4714
vn -0.7730 -0.0000 -0.6344
vn -0.6344 -0.0000 -0.7730
vn -0.4714 -0.0000 -0.8819
vn -0.0000 1.0000 -0.0000
vn -0.2903 -0.0000 -0.9569
vn -0.0980 -0.0000 -0.9952
vn -0.0000 -1.0000 -0.0000
vt 1.000000 0.500000
vt 1.000000 1.000000
vt 0.968750 1.000000
vt 0.968750 0.500000
vt 0.937500 1.000000
vt 0.937500 0.500000
vt 0.906250 1.000000
vt 0.906250 0.500000
vt 0.875000 1.000000
vt 0.875000 0.500000
vt 0.843750 1.000000
vt 0.843750 0.500000
vt 0.812500 1.000000
vt 0.812500 0.500000
vt 0.781250 1.000000
vt 0.781250 0.500000
vt 0.750000 1.000000
vt 0.750000 0.500000
vt 0.718750 1.000000
vt 0.718750 0.500000
vt 0.687500 1.000000
vt 0.687500 0.500000
vt 0.656250 1.000000
vt 0.656250 0.500000
vt 0.625000 1.000000
vt 0.625000 0.500000
vt 0.593750 1.000000
vt 0.593750 0.500000
vt 0.562500 1.000000
vt 0.562500 0.500000
vt 0.531250 1.000000
vt 0.531250 0.500000
vt 0.500000 1.000000
vt 0.500000 0.500000
vt 0.468750 1.000000
vt 0.468750 0.500000
vt 0.437500 1.000000
vt 0.437500 0.500000
vt 0.406250 1.000000
vt 0.406250 0.500000
vt 0.375000 1.000000
vt 0.375000 0.500000
vt 0.343750 1.000000
vt 0.343750 0.500000
vt 0.312500 1.000000
vt 0.312500 0.500000
vt 0.281250 1.000000
vt 0.281250 0.500000
vt 0.250000 1.000000
vt 0.250000 0.500000
vt 0.218750 1.000000
vt 0.218750 0.500000
vt 0.187500 1.000000
vt 0.187500 0.500000
vt 0.156250 1.000000
vt 0.156250 0.500000
vt 0.125000 1.000000
vt 0.125000 0.500000
vt 0.093750 1.000000
vt 0.093750 0.500000
vt 0.062500 1.000000
vt 0.062500 0.500000
vt 0.296822 0.485388
vt 0.250000 0.490000
vt 0.203178 0.485388
vt 0.158156 0.471731
vt 0.116663 0.449553
vt 0.080294 0.419706
vt 0.050447 0.383337
vt 0.028269 0.341844
vt 0.014612 0.296822
vt 0.010000 0.250000
vt 0.014612 0.203178
vt 0.028269 0.158156
vt 0.050447 0.116663
vt 0.080294 0.080294
vt 0.116663 0.050447
vt 0.158156 0.028269
vt 0.203178 0.014612
vt 0.250000 0.010000
vt 0.296822 0.014612
vt 0.341844 0.028269
vt 0.383337 0.050447
vt 0.419706 0.080294
vt 0.449553 0.116663
vt 0.471731 0.158156
vt 0.485388 0.203178
vt 0.490000 0.250000
vt 0.485388 0.296822
vt 0.471731 0.341844
vt 0.449553 0.383337
vt 0.419706 0.419706
vt 0.383337 0.449553
vt 0.341844 0.471731
vt 0.031250 1.000000
vt 0.031250 0.500000
vt 0.000000 1.000000
vt 0.000000 0.500000
vt 0.750000 0.490000
vt 0.796822 0.485388
vt 0.841844 0.471731
vt 0.883337 0.449553
vt 0.919706 0.419706
vt 0.949553 0.383337
vt 0.971731 0.341844
vt 0.985388 0.296822
vt 0.990000 0.250000
vt 0.985388 0.203178
vt 0.971731 0.158156
vt 0.949553 0.116663
vt 0.919706 0.080294
vt 0.883337 0.050447
vt 0.841844 0.028269
vt 0.796822 0.014612
vt 0.750000 0.010000
vt 0.703178 0.014612
vt 0.658156 0.028269
vt 0.616663 0.050447
vt 0.580294 0.080294
vt 0.550447 0.116663
vt 0.528269 0.158156
vt 0.514612 0.203178
vt 0.510000 0.250000
vt 0.514612 0.296822
vt 0.528269 0.341844
vt 0.550447 0.383337
vt 0.580294 0.419706
vt 0.616663 0.449553
vt 0.658156 0.471731
vt 0.703178 0.485388
s 0
usemtl bamboo-green
f 161/230/67 162/231/67 164/232/67 163/233/67
f 163/233/68 164/232/68 166/234/68 165/235/68
f 165/235/69 166/234/69 168/236/69 167/237/69
f 167/237/70 168/236/70 170/238/70 169/239/70
f 169/239/71 170/238/71 172/240/71 171/241/71
f 171/241/72 172/240/72 174/242/72 173/243/72
f 173/243/73 174/242/73 176/244/73 175/245/73
f 175/245/74 176/244/74 178/246/74 177/247/74
f 177/247/75 178/246/75 180/248/75 179/249/75
f 179/249/76 180/248/76 182/250/76 181/251/76
f 181/251/77 182/250/77 184/252/77 183/253/77
f 183/253/78 184/252/78 186/254/78 185/255/78
f 185/255/79 186/254/79 188/256/79 187/257/79
f 187/257/80 188/256/80 190/258/80 189/259/80
f 189/259/81 190/258/81 192/260/81 191/261/81
f 191/261/82 192/260/82 194/262/82 193/263/82
f 193/263/83 194/262/83 196/264/83 195/265/83
f 195/265/84 196/264/84 198/266/84 197/267/84
f 197/267/85 198/266/85 200/268/85 199/269/85
f 199/269/86 200/268/86 202/270/86 201/271/86
f 201/271/87 202/270/87 204/272/87 203/273/87
f 203/273/88 204/272/88 206/274/88 205/275/88
f 205/275/89 206/274/89 208/276/89 207/277/89
f 207/277/90 208/276/90 210/278/90 209/279/90
f 209/279/91 210/278/91 212/280/91 211/281/91
f 211/281/92 212/280/92 214/282/92 213/283/92
f 213/283/93 214/282/93 216/284/93 215/285/93
f 215/285/94 216/284/94 218/286/94 217/287/94
f 217/287/95 218/286/95 220/288/95 219/289/95
f 219/289/96 220/288/96 222/290/96 221/291/96
f 164/292/97 162/293/97 224/294/97 222/295/97 220/296/97 218/297/97 216/298/97 214/299/97 212/300/97 210/301/97 208/302/97 206/303/97 204/304/97 202/305/97 200/306/97 198/307/97 196/308/97 194/309/97 192/310/97 190/311/97 188/312/97 186/313/97 184/314/97 182/315/97 180/316/97 178/317/97 176/318/97 174/319/97 172/320/97 170/321/97 168/322/97 166/323/97
f 221/291/98 222/290/98 224/324/98 223/325/98
f 223/325/99 224/324/99 162/326/99 161/327/99
f 161/328/100 163/329/100 165/330/100 167/331/100 169/332/100 171/333/100 173/334/100 175/335/100 177/336/100 179/337/100 181/338/100 183/339/100 185/340/100 187/341/100 189/342/100 191/343/100 193/344/100 195/345/100 197/346/100 199/347/100 201/348/100 203/349/100 205/350/100 207/351/100 209/352/100 211/353/100 213/354/100 215/355/100 217/356/100 219/357/100 221/358/100 223/359/100
o Cylinder.002
v 0.058891 0.212591 0.076240
v 0.079428 0.737205 0.076240
v 0.060137 0.212543 0.076398
v 0.080673 0.737157 0.076398
v 0.061334 0.212496 0.076865
v 0.081871 0.737110 0.076865
v 0.062438 0.212453 0.077623
v 0.082975 0.737066 0.077623
v 0.063406 0.212415 0.078644
v 0.083942 0.737028 0.078644
v 0.064200 0.212384 0.079888
v 0.084736 0.736997 0.079888
v 0.064790 0.212361 0.081307
v 0.085326 0.736974 0.081307
v 0.065153 0.212346 0.082846
v 0.085689 0.736960 0.082846
v 0.065276 0.212342 0.084448
v 0.085812 0.736955 0.084448
v 0.065153 0.212346 0.086049
v 0.085689 0.736960 0.086049
v 0.064790 0.212361 0.087589
v 0.085326 0.736974 0.087589
v 0.064200 0.212384 0.089008
v 0.084736 0.736997 0.089008
v 0.063406 0.212415 0.090252
v 0.083942 0.737028 0.090252
v 0.062438 0.212453 0.091272
v 0.082975 0.737066 0.091272
v 0.061334 0.212496 0.092031
v 0.081871 0.737110 0.092031
v 0.060137 0.212543 0.092498
v 0.080673 0.737157 0.092498
v 0.058891 0.212591 0.092656
v 0.079428 0.737205 0.092656
v 0.057646 0.212640 0.092498
v 0.078182 0.737254 0.092498
v 0.056448 0.212687 0.092031
v 0.076984 0.737301 0.092031
v 0.055344 0.212730 0.091272
v 0.075881 0.737344 0.091272
v 0.054377 0.212768 0.090252
v 0.074913 0.737382 0.090252
v 0.053583 0.212799 0.089008
v 0.074119 0.737413 0.089008
v 0.052993 0.212822 0.087589
v 0.073529 0.737436 0.087589
v 0.052629 0.212837 0.086049
v 0.073166 0.737450 0.086049
v 0.052507 0.212841 0.084448
v 0.073043 0.737455 0.084448
v 0.052629 0.212837 0.082846
v 0.073166 0.737450 0.082846
v 0.052993 0.212822 0.081307
v 0.073529 0.737436 0.081307
v 0.053583 0.212799 0.079888
v 0.074119 0.737413 0.079888
v 0.054377 0.212768 0.078644
v 0.074913 0.737382 0.078644
v 0.055344 0.212730 0.077623
v 0.075881 0.737344 0.077623
v 0.056448 0.212687 0.076865
v 0.076984 0.737301 0.076865
v 0.057646 0.212640 0.076398
v 0.078182 0.737254 0.076398
vn 0.1254 -0.0049 -0.9921
vn 0.3628 -0.0142 -0.9318
vn 0.5656 -0.0221 -0.8244
vn 0.7250 -0.0284 -0.6882
vn 0.8421 -0.0330 -0.5384
vn 0.9226 -0.0361 -0.3842
vn 0.9725 -0.0381 -0.2298
vn 0.9963 -0.0390 -0.0764
vn 0.9963 -0.0390 0.0764
vn 0.9725 -0.0381 0.2298
vn 0.9226 -0.0361 0.3842
vn 0.8421 -0.0330 0.5384
vn 0.7250 -0.0284 0.6882
vn 0.5656 -0.0221 0.8244
vn 0.3628 -0.0142 0.9318
vn 0.1254 -0.0049 0.9921
vn -0.1254 0.0049 0.9921
vn -0.3628 0.0142 0.9318
vn -0.5656 0.0221 0.8244
vn -0.7250 0.0284 0.6882
vn -0.8421 0.0330 0.5384
vn -0.9226 0.0361 0.3842
vn -0.9725 0.0381 0.2298
vn -0.9963 0.0390 0.0764
vn -0.9963 0.0390 -0.0764
vn -0.9725 0.0381 -0.2298
vn -0.9226 0.0361 -0.3842
vn -0.8421 0.0330 -0.5384
vn -0.7250 0.0284 -0.6882
vn -0.5656 0.0221 -0.8244
vn 0.0391 0.9992 -0.0000
vn -0.3628 0.0142 -0.9318
vn -0.1254 0.0049 -0.9921
vn -0.0391 -0.9992 -0.0000
vt 1.000000 0.500000
vt 1.000000 1.000000
vt 0.968750 1.000000
vt 0.968750 0.500000
vt 0.937500 1.000000
vt 0.937500 0.500000
vt 0.906250 1.000000
vt 0.906250 0.500000
vt 0.875000 1.000000
vt 0.875000 0.500000
vt 0.843750 1.000000
vt 0.843750 0.500000
vt 0.812500 1.000000
vt 0.812500 0.500000
vt 0.781250 1.000000
vt 0.781250 0.500000
vt 0.750000 1.000000
vt 0.750000 0.500000
vt 0.718750 1.000000
vt 0.718750 0.500000
vt 0.687500 1.000000
vt 0.687500 0.500000
vt 0.656250 1.000000
vt 0.656250 0.500000
vt 0.625000 1.000000
vt 0.625000 0.500000
vt 0.593750 1.000000
vt 0.593750 0.500000
vt 0.562500 1.000000
vt 0.562500 0.500000
vt 0.531250 1.000000
vt 0.531250 0.500000
vt 0.500000 1.000000
vt 0.500000 0.500000
vt 0.468750 1.000000
vt 0.468750 0.500000
vt 0.437500 1.000000
vt 0.437500 0.500000
vt 0.406250 1.000000
vt 0.406250 0.500000
vt 0.375000 1.000000
vt 0.375000 0.500000
vt 0.343750 1.000000
vt 0.343750 0.500000
vt 0.312500 1.000000
vt 0.312500 0.500000
vt 0.281250 1.000000
vt 0.281250 0.500000
vt 0.250000 1.000000
vt 0.250000 0.500000
vt 0.218750 1.000000
vt 0.218750 0.500000
vt 0.187500 1.000000
vt 0.187500 0.500000
vt 0.156250 1.000000
vt 0.156250 0.500000
vt 0.125000 1.000000
vt 0.125000 0.500000
vt 0.093750 1.000000
vt 0.093750 0.500000
vt 0.062500 1.000000
vt 0.062500 0.500000
vt 0.296822 0.485388
vt 0.250000 0.490000
vt 0.203178 0.485388
vt 0.158156 0.471731
vt 0.116663 0.449553
vt 0.080294 0.419706
vt 0.050447 0.383337
vt 0.028269 0.341844
vt 0.014612 0.296822
vt 0.010000 0.250000
vt 0.014612 0.203178
vt 0.028269 0.158156
vt 0.050447 0.116663
vt 0.080294 0.080294
vt 0.116663 0.050447
vt 0.158156 0.028269
vt 0.203178 0.014612
vt 0.250000 0.010000
vt 0.296822 0.014612
vt 0.341844 0.028269
vt 0.383337 0.050447
vt 0.419706 0.080294
vt 0.449553 0.116663
vt 0.471731 0.158156
vt 0.485388 0.203178
vt 0.490000 0.250000
vt 0.485388 0.296822
vt 0.471731 0.341844
vt 0.449553 0.383337
vt 0.419706 0.419706
vt 0.383337 0.449553
vt 0.341844 0.471731
vt 0.031250 1.000000
vt 0.031250 0.500000
vt 0.000000 1.000000
vt 0.000000 0.500000
vt 0.750000 0.490000
vt 0.796822 0.485388
vt 0.841844 0.471731
vt 0.883337 0.449553
vt 0.919706 0.419706
vt 0.949553 0.383337
vt 0.971731 0.341844
vt 0.985388 0.296822
vt 0.990000 0.250000
vt 0.985388 0.203178
vt 0.971731 0.158156
vt 0.949553 0.116663
vt 0.919706 0.080294
vt 0.883337 0.050447
vt 0.841844 0.028269
vt 0.796822 0.014612
vt 0.750000 0.010000
vt 0.703178 0.014612
vt 0.658156 0.028269
vt 0.616663 0.050447
vt 0.580294 0.080294
vt 0.550447 0.116663
vt 0.528269 0.158156
vt 0.514612 0.203178
vt 0.510000 0.250000
vt 0.514612 0.296822
vt 0.528269 0.341844
vt 0.550447 0.383337
vt 0.580294 0.419706
vt 0.616663 0.449553
vt 0.658156 0.471731
vt 0.703178 0.485388
s 0
usemtl bamboo-green
f 225/360/101 226/361/101 228/362/101 227/363/101
f 227/363/102 228/362/102 230/364/102 229/365/102
f 229/365/103 230/364/103 232/366/103 231/367/103
f 231/367/104 232/366/104 234/368/104 233/369/104
f 233/369/105 234/368/105 236/370/105 235/371/105
f 235/371/106 236/370/106 238/372/106 237/373/106
f 237/373/107 238/372/107 240/374/107 239/375/107
f 239/375/108 240/374/108 242/376/108 241/377/108
f 241/377/109 242/376/109 244/378/109 243/379/109
f 243/379/110 244/378/110 246/380/110 245/381/110
f 245/381/111 246/380/111 248/382/111 247/383/111
f 247/383/112 248/382/112 250/384/112 249/385/112
f 249/385/113 250/384/113 252/386/113 251/387/113
f 251/387/114 252/386/114 254/388/114 253/389/114
f 253/389/115 254/388/115 256/390/115 255/391/115
f 255/391/116 256/390/116 258/392/116 257/393/116
f 257/393/117 258/392/117 260/394/117 259/395/117
f 259/395/118 260/394/118 262/396/118 261/397/118
f 261/397/119 262/396/119 264/398/119 263/399/119
f 263/399/120 264/398/120 266/400/120 265/401/120
f 265/401/121 266/400/121 268/402/121 267/403/121
f 267/403/122 268/402/122 270/404/122 269/405/122
f 269/405/123 270/404/123 272/406/123 271/407/123
f 271/407/124 272/406/124 274/408/124 273/409/124
f 273/409/125 274/408/125 276/410/125 275/411/125
f 275/411/126 276/410/126 278/412/126 277/413/126
f 277/413/127 278/412/127 280/414/127 279/415/127
f 279/415/128 280/414/128 282/416/128 281/417/128
f 281/417/129 282/416/129 284/418/129 283/419/129
f 283/419/130 284/418/130 286/420/130 285/421/130
f 228/422/131 226/423/131 288/424/131 286/425/131 284/426/131 282/427/131 280/428/131 278/429/131 276/430/131 274/431/131 272/432/131 270/433/131 268/434/131 266/435/131 264/436/131 262/437/131 260/438/131 258/439/131 256/440/131 254/441/131 252/442/131 250/443/131 248/444/131 246/445/131 244/446/131 242/447/131 240/448/131 238/449/131 236/450/131 234/451/131 232/452/131 230/453/131
f 285/421/132 286/420/132 288/454/132 287/455/132
f 287/455/133 288/454/133 226/456/133 225/457/133
f 225/458/134 227/459/134 229/460/134 231/461/134 233/462/134 235/463/134 237/464/134 239/465/134 241/466/134 243/467/134 245/468/134 247/469/134 249/470/134 251/471/134 253/472/134 255/473/134 257/474/134 259/475/134 261/476/134 263/477/134 265/478/134 267/479/134 269/480/134 271/481/134 273/482/134 275/483/134 277/484/134 279/485/134 281/486/134 283/487/134 285/488/134 287/489/134
o Cylinder.003
v 0.013982 0.130823 0.021560
v -0.004589 0.864244 0.021560
v 0.015228 0.130855 0.021718
v -0.003342 0.864276 0.021718
v 0.016427 0.130885 0.022185
v -0.002143 0.864306 0.022185
v 0.017532 0.130913 0.022943
v -0.001039 0.864334 0.022943
v 0.018500 0.130937 0.023964
v -0.000070 0.864358 0.023964
v 0.019295 0.130958 0.025208
v 0.000724 0.864379 0.025208
v 0.019885 0.130972 0.026627
v 0.001315 0.864393 0.026627
v 0.020249 0.130982 0.028166
v 0.001678 0.864403 0.028166
v 0.020372 0.130985 0.029768
v 0.001801 0.864406 0.029768
v 0.020249 0.130982 0.031369
v 0.001678 0.864403 0.031369
v 0.019885 0.130972 0.032909
v 0.001315 0.864393 0.032909
v 0.019295 0.130958 0.034328
v 0.000724 0.864379 0.034328
v 0.018500 0.130937 0.035571
v -0.000070 0.864358 0.035571
v 0.017532 0.130913 0.036592
v -0.001039 0.864334 0.036592
v 0.016427 0.130885 0.037351
v -0.002143 0.864306 0.037351
v 0.015228 0.130855 0.037818
v -0.003342 0.864276 0.037818
v 0.013982 0.130823 0.037975
v -0.004589 0.864244 0.037975
v 0.012735 0.130791 0.037818
v -0.005835 0.864212 0.037818
v 0.011537 0.130761 0.037351
v -0.007034 0.864182 0.037351
v 0.010432 0.130733 0.036592
v -0.008139 0.864154 0.036592
v 0.009464 0.130709 0.035571
v -0.009107 0.864130 0.035571
v 0.008669 0.130688 0.034328
v -0.009901 0.864110 0.034328
v 0.008079 0.130673 0.032909
v -0.010492 0.864094 0.032909
v 0.007715 0.130664 0.031369
v -0.010856 0.864085 0.031369
v 0.007592 0.130661 0.029768
v -0.010978 0.864082 0.029768
v 0.007715 0.130664 0.028166
v -0.010856 0.864085 0.028166
v 0.008079 0.130673 0.026627
v -0.010492 0.864094 0.026627
v 0.008669 0.130688 0.025208
v -0.009901 0.864110 0.025208
v 0.009464 0.130709 0.023964
v -0.009107 0.864130 0.023964
v 0.010432 0.130733 0.022943
v -0.008139 0.864154 0.022943
v 0.011537 0.130761 0.022185
v -0.007034 0.864182 0.022185
v 0.012735 0.130791 0.021718
v -0.005835 0.864212 0.021718
vn 0.1254 0.0032 -0.9921
vn 0.3629 0.0092 -0.9318
vn 0.5657 0.0143 -0.8245
vn 0.7252 0.0184 -0.6883
vn 0.8423 0.0213 -0.5385
vn 0.9229 0.0234 -0.3843
vn 0.9729 0.0246 -0.2299
vn 0.9968 0.0252 -0.0765
vn 0.9968 0.0252 0.0765
vn 0.9729 0.0246 0.2299
vn 0.9229 0.0234 0.3843
vn 0.8423 0.0213 0.5385
vn 0.7252 0.0184 0.6883
vn 0.5657 0.0143 0.8245
vn 0.3629 0.0092 0.9318
vn 0.1254 0.0032 0.9921
vn -0.1254 -0.0032 0.9921
vn -0.3629 -0.0092 0.9318
vn -0.5657 -0.0143 0.8245
vn -0.7252 -0.0184 0.6883
vn -0.8423 -0.0213 0.5385
vn -0.9229 -0.0234 0.3843
vn -0.9729 -0.0246 0.2299
vn -0.9968 -0.0252 0.0765
vn -0.9968 -0.0252 -0.0765
vn -0.9729 -0.0246 -0.2299
vn -0.9229 -0.0234 -0.3843
vn -0.8423 -0.0213 -0.5385
vn -0.7252 -0.0184 -0.6883
vn -0.5657 -0.0143 -0.8245
vn -0.0253 0.9997 -0.0000
vn -0.3629 -0.0092 -0.9318
vn -0.1254 -0.0032 -0.9921
vn 0.0253 -0.9997 -0.0000
vt 1.000000 0.500000
vt 1.000000 1.000000
vt 0.968750 1.000000
vt 0.968750 0.500000
vt 0.937500 1.000000
vt 0.937500 0.500000
vt 0.906250 1.000000
vt 0.906250 0.500000
vt 0.875000 1.000000
vt 0.875000 0.500000
vt 0.843750 1.000000
vt 0.843750 0.500000
vt 0.812500 1.000000
vt 0.812500 0.500000
vt 0.781250 1.000000
vt 0.781250 0.500000
vt 0.750000 1.000000
vt 0.750000 0.500000
vt 0.718750 1.000000
vt 0.718750 0.500000
vt 0.687500 1.000000
vt 0.687500 0.500000
vt 0.656250 1.000000
vt 0.656250 0.500000
vt 0.625000 1.000000
vt 0.625000 0.500000
vt 0.593750 1.000000
vt 0.593750 0.500000
vt 0.562500 1.000000
vt 0.562500 0.500000
vt 0.531250 1.000000
vt 0.531250 0.500000
vt 0.500000 1.000000
vt 0.500000 0.500000
vt 0.468750 1.000000
vt 0.468750 0.500000
vt 0.437500 1.000000
vt 0.437500 0.500000
vt 0.406250 1.000000
vt 0.406250 0.500000
vt 0.375000 1.000000
vt 0.375000 0.500000
vt 0.343750 1.000000
vt 0.343750 0.500000
vt 0.312500 1.000000
vt 0.312500 0.500000
vt 0.281250 1.000000
vt 0.281250 0.500000
vt 0.250000 1.000000
vt 0.250000 0.500000
vt 0.218750 1.000000
vt 0.218750 0.500000
vt 0.187500 1.000000
vt 0.187500 0.500000
vt 0.156250 1.000000
vt 0.156250 0.500000
vt 0.125000 1.000000
vt 0.125000 0.500000
vt 0.093750 1.000000
vt 0.093750 0.500000
vt 0.062500 1.000000
vt 0.062500 0.500000
vt 0.296822 0.485388
vt 0.250000 0.490000
vt 0.203178 0.485388
vt 0.158156 0.471731
vt 0.116663 0.449553
vt 0.080294 0.419706
vt 0.050447 0.383337
vt 0.028269 0.341844
vt 0.014612 0.296822
vt 0.010000 0.250000
vt 0.014612 0.203178
vt 0.028269 0.158156
vt 0.050447 0.116663
vt 0.080294 0.080294
vt 0.116663 0.050447
vt 0.158156 0.028269
vt 0.203178 0.014612
vt 0.250000 0.010000
vt 0.296822 0.014612
vt 0.341844 0.028269
vt 0.383337 0.050447
vt 0.419706 0.080294
vt 0.449553 0.116663
vt 0.471731 0.158156
vt 0.485388 0.203178
vt 0.490000 0.250000
vt 0.485388 0.296822
vt 0.471731 0.341844
vt 0.449553 0.383337
vt 0.419706 0.419706
vt 0.383337 0.449553
vt 0.341844 0.471731
vt 0.031250 1.000000
vt 0.031250 0.500000
vt 0.000000 1.000000
vt 0.000000 0.500000
vt 0.750000 0.490000
vt 0.796822 0.485388
vt 0.841844 0.471731
vt 0.883337 0.449553
vt 0.919706 0.419706
vt 0.949553 0.383337
vt 0.971731 0.341844
vt 0.985388 0.296822
vt 0.990000 0.250000
vt 0.985388 0.203178
vt 0.971731 0.158156
vt 0.949553 0.116663
vt 0.919706 0.080294
vt 0.883337 0.050447
vt 0.841844 0.028269
vt 0.796822 0.014612
vt 0.750000 0.010000
vt 0.703178 0.014612
vt 0.658156 0.028269
vt 0.616663 0.050447
vt 0.580294 0.080294
vt 0.550447 0.116663
vt 0.528269 0.158156
vt 0.514612 0.203178
vt 0.510000 0.250000
vt 0.514612 0.296822
vt 0.528269 0.341844
vt 0.550447 0.383337
vt 0.580294 0.419706
vt 0.616663 0.449553
vt 0.658156 0.471731
vt 0.703178 0.485388
s 0
usemtl bamboo-green
f 289/490/135 290/491/135 292/492/135 291/493/135
f 291/493/136 292/492/136 294/494/136 293/495/136
f 293/495/137 294/494/137 296/496/137 295/497/137
f 295/497/138 296/496/138 298/498/138 297/499/138
f 297/499/139 298/498/139 300/500/139 299/501/139
f 299/501/140 300/500/140 302/502/140 301/503/140
f 301/503/141 302/502/141 304/504/141 303/505/141
f 303/505/142 304/504/142 306/506/142 305/507/142
f 305/507/143 306/506/143 308/508/143 307/509/143
f 307/509/144 308/508/144 310/510/144 309/511/144
f 309/511/145 310/510/145 312/512/145 311/513/145
f 311/513/146 312/512/146 314/514/146 313/515/146
f 313/515/147 314/514/147 316/516/147 315/517/147
f 315/517/148 316/516/148 318/518/148 317/519/148
f 317/519/149 318/518/149 320/520/149 319/521/149
f 319/521/150 320/520/150 322/522/150 321/523/150
f 321/523/151 322/522/151 324/524/151 323/525/151
f 323/525/152 324/524/152 326/526/152 325/527/152
f 325/527/153 326/526/153 328/528/153 327/529/153
f 327/529/154 328/528/154 330/530/154 329/531/154
f 329/531/155 330/530/155 332/532/155 331/533/155
f 331/533/156 332/532/156 334/534/156 333/535/156
f 333/535/157 334/534/157 336/536/157 335/537/157
f 335/537/158 336/536/158 338/538/158 337/539/158
f 337/539/159 338/538/159 340/540/159 339/541/159
f 339/541/160 340/540/160 342/542/160 341/543/160
f 341/543/161 342/542/161 344/544/161 343/545/161
f 343/545/162 344/544/162 346/546/162 345/547/162
f 345/547/163 346/546/163 348/548/163 347/549/163
f 347/549/164 348/548/164 350/550/164 349/551/164
f 292/552/165 290/553/165 352/554/165 350/555/165 348/556/165 346/557/165 344/558/165 342/559/165 340/560/165 338/561/165 336/562/165 334/563/165 332/564/165 330/565/165 328/566/165 326/567/165 324/568/165 322/569/165 320/570/165 318/571/165 316/572/165 314/573/165 312/574/165 310/575/165 308/576/165 306/577/165 304/578/165 302/579/165 300/580/165 298/581/165 296/582/165 294/583/165
f 349/551/166 350/550/166 352/584/166 351/585/166
f 351/585/167 352/584/167 290/586/167 289/587/167
f 289/588/168 291/589/168 293/590/168 295/591/168 297/592/168 299/593/168 301/594/168 303/595/168 305/596/168 307/597/168 309/598/168 311/599/168 313/600/168 315/601/168 317/602/168 319/603/168 321/604/168 323/605/168 325/606/168 327/607/168 329/608/168 331/609/168 333/610/168 335/611/168 337/612/168 339/613/168 341/614/168 343/615/168 345/616/168 347/617/168 349/618/168 351/619/168
o Cylinder.004
v 0.005695 0.174429 0.039135
v -0.043795 0.787093 0.039135
v 0.007754 0.174596 0.039339
v -0.041736 0.787259 0.039339
v 0.009734 0.174756 0.039942
v -0.039756 0.787419 0.039942
v 0.011559 0.174903 0.040922
v -0.037931 0.787566 0.040922
v 0.013159 0.175032 0.042240
v -0.036331 0.787695 0.042240
v 0.014472 0.175138 0.043846
v -0.035018 0.787802 0.043846
v 0.015447 0.175217 0.045679
v -0.034043 0.787880 0.045679
v 0.016048 0.175266 0.047667
v -0.033442 0.787929 0.047667
v 0.016250 0.175282 0.049735
v -0.033240 0.787945 0.049735
v 0.016048 0.175266 0.051803
v -0.033442 0.787929 0.051803
v 0.015447 0.175217 0.053792
v -0.034043 0.787880 0.053792
v 0.014472 0.175138 0.055624
v -0.035018 0.787802 0.055624
v 0.013159 0.175032 0.057231
v -0.036331 0.787695 0.057231
v 0.011559 0.174903 0.058549
v -0.037931 0.787566 0.058549
v 0.009734 0.174756 0.059528
v -0.039756 0.787419 0.059528
v 0.007754 0.174596 0.060132
v -0.041736 0.787259 0.060132
v 0.005695 0.174429 0.060335
v -0.043795 0.787093 0.060335
v 0.003636 0.174263 0.060132
v -0.045854 0.786926 0.060132
v 0.001656 0.174103 0.059528
v -0.047834 0.786766 0.059528
v -0.000169 0.173956 0.058549
v -0.049659 0.786619 0.058549
v -0.001769 0.173826 0.057231
v -0.051259 0.786490 0.057231
v -0.003081 0.173720 0.055624
v -0.052571 0.786384 0.055624
v -0.004057 0.173642 0.053792
v -0.053547 0.786305 0.053792
v -0.004657 0.173593 0.051803
v -0.054147 0.786256 0.051803
v -0.004860 0.173577 0.049735
v -0.054350 0.786240 0.049735
v -0.004657 0.173593 0.047667
v -0.054147 0.786256 0.047667
v -0.004057 0.173642 0.045679
v -0.053547 0.786305 0.045679
v -0.003081 0.173720 0.043846
v -0.052571 0.786384 0.043846
v -0.001769 0.173826 0.042240
v -0.051259 0.786490 0.042240
v -0.000169 0.173956 0.040922
v -0.049659 0.786619 0.040922
v 0.001656 0.174103 0.039942
v -0.047834 0.786766 0.039942
v 0.003636 0.174263 0.039339
v -0.045854 0.786926 0.039339
vn 0.0978 0.0079 -0.9952
vn 0.2896 0.0234 -0.9569
vn 0.4702 0.0380 -0.8817
vn 0.6327 0.0511 -0.7727
vn 0.7708 0.0623 -0.6340
vn 0.8792 0.0710 -0.4710
vn 0.9539 0.0771 -0.2900
vn 0.9920 0.0801 -0.0979
vn 0.9920 0.0801 0.0979
vn 0.9539 0.0771 0.2900
vn 0.8792 0.0710 0.4710
vn 0.7708 0.0623 0.6340
vn 0.6327 0.0511 0.7727
vn 0.4702 0.0380 0.8817
vn 0.2896 0.0234 0.9569
vn 0.0978 0.0079 0.9952
vn -0.0978 -0.0079 0.9952
vn -0.2896 -0.0234 0.9569
vn -0.4702 -0.0380 0.8817
vn -0.6327 -0.0511 0.7727
vn -0.7708 -0.0623 0.6340
vn -0.8792 -0.0710 0.4710
vn -0.9539 -0.0771 0.2900
vn -0.9920 -0.0801 0.0979
vn -0.9920 -0.0801 -0.0979
vn -0.9539 -0.0771 -0.2900
vn -0.8792 -0.0710 -0.4710
vn -0.7708 -0.0623 -0.6340
vn -0.6327 -0.0511 -0.7727
vn -0.4702 -0.0380 -0.8817
vn -0.0805 0.9968 -0.0000
vn -0.2896 -0.0234 -0.9569
vn -0.0978 -0.0079 -0.9952
vn 0.0805 -0.9968 -0.0000
vt 1.000000 0.500000
vt 1.000000 1.000000
vt 0.968750 1.000000
vt 0.968750 0.500000
vt 0.937500 1.000000
vt 0.937500 0.500000
vt 0.906250 1.000000
vt 0.906250 0.500000
vt 0.875000 1.000000
vt 0.875000 0.500000
vt 0.843750 1.000000
vt 0.843750 0.500000
vt 0.812500 1.000000
vt 0.812500 0.500000
vt 0.781250 1.000000
vt 0.781250 0.500000
vt 0.750000 1.000000
vt 0.750000 0.500000
vt 0.718750 1.000000
vt 0.718750 0.500000
vt 0.687500 1.000000
vt 0.687500 0.500000
vt 0.656250 1.000000
vt 0.656250 0.500000
vt 0.625000 1.000000
vt 0.625000 0.500000
vt 0.593750 1.000000
vt 0.593750 0.500000
vt 0.562500 1.000000
vt 0.562500 0.500000
vt 0.531250 1.000000
vt 0.531250 0.500000
vt 0.500000 1.000000
vt 0.500000 0.500000
vt 0.468750 1.000000
vt 0.468750 0.500000
vt 0.437500 1.000000
vt 0.437500 0.500000
vt 0.406250 1.000000
vt 0.406250 0.500000
vt 0.375000 1.000000
vt 0.375000 0.500000
vt 0.343750 1.000000
vt 0.343750 0.500000
vt 0.312500 1.000000
vt 0.312500 0.500000
vt 0.281250 1.000000
vt 0.281250 0.500000
vt 0.250000 1.000000
vt 0.250000 0.500000
vt 0.218750 1.000000
vt 0.218750 0.500000
vt 0.187500 1.000000
vt 0.187500 0.500000
vt 0.156250 1.000000
vt 0.156250 0.500000
vt 0.125000 1.000000
vt 0.125000 0.500000
vt 0.093750 1.000000
vt 0.093750 0.500000
vt 0.062500 1.000000
vt 0.062500 0.500000
vt 0.296822 0.485388
vt 0.250000 0.490000
vt 0.203178 0.485388
vt 0.158156 0.471731
vt 0.116663 0.449553
vt 0.080294 0.419706
vt 0.050447 0.383337
vt 0.028269 0.341844
vt 0.014612 0.296822
vt 0.010000 0.250000
vt 0.014612 0.203178
vt 0.028269 0.158156
vt 0.050447 0.116663
vt 0.080294 0.080294
vt 0.116663 0.050447
vt 0.158156 0.028269
vt 0.203178 0.014612
vt 0.250000 0.010000
vt 0.296822 0.014612
vt 0.341844 0.028269
vt 0.383337 0.050447
vt 0.419706 0.080294
vt 0.449553 0.116663
vt 0.471731 0.158156
vt 0.485388 0.203178
vt 0.490000 0.250000
vt 0.485388 0.296822
vt 0.471731 0.341844
vt 0.449553 0.383337
vt 0.419706 0.419706
vt 0.383337 0.449553
vt 0.341844 0.471731
vt 0.031250 1.000000
vt 0.031250 0.500000
vt 0.000000 1.000000
vt 0.000000 0.500000
vt 0.750000 0.490000
vt 0.796822 0.485388
vt 0.841844 0.471731
vt 0.883337 0.449553
vt 0.919706 0.419706
vt 0.949553 0.383337
vt 0.971731 0.341844
vt 0.985388 0.296822
vt 0.990000 0.250000
vt 0.985388 0.203178
vt 0.971731 0.158156
vt 0.949553 0.116663
vt 0.919706 0.080294
vt 0.883337 0.050447
vt 0.841844 0.028269
vt 0.796822 0.014612
vt 0.750000 0.010000
vt 0.703178 0.014612
vt 0.658156 0.028269
vt 0.616663 0.050447
vt 0.580294 0.080294
vt 0.550447 0.116663
vt 0.528269 0.158156
vt 0.514612 0.203178
vt 0.510000 0.250000
vt 0.514612 0.296822
vt 0.528269 0.341844
vt 0.550447 0.383337
vt 0.580294 0.419706
vt 0.616663 0.449553
vt 0.658156 0.471731
vt 0.703178 0.485388
s 0
usemtl bamboo-green
f 353/620/169 354/621/169 356/622/169 355/623/169
f 355/623/170 356/622/170 358/624/170 357/625/170
f 357/625/171 358/624/171 360/626/171 359/627/171
f 359/627/172 360/626/172 362/628/172 361/629/172
f 361/629/173 362/628/173 364/630/173 363/631/173
f 363/631/174 364/630/174 366/632/174 365/633/174
f 365/633/175 366/632/175 368/634/175 367/635/175
f 367/635/176 368/634/176 370/636/176 369/637/176
f 369/637/177 370/636/177 372/638/177 371/639/177
f 371/639/178 372/638/178 374/640/178 373/641/178
f 373/641/179 374/640/179 376/642/179 375/643/179
f 375/643/180 376/642/180 378/644/180 377/645/180
f 377/645/181 378/644/181 380/646/181 379/647/181
f 379/647/182 380/646/182 382/648/182 381/649/182
f 381/649/183 382/648/183 384/650/183 383/651/183
f 383/651/184 384/650/184 386/652/184 385/653/184
f 385/653/185 386/652/185 388/654/185 387/655/185
f 387/655/186 388/654/186 390/656/186 389/657/186
f 389/657/187 390/656/187 392/658/187 391/659/187
f 391/659/188 392/658/188 394/660/188 393/661/188
f 393/661/189 394/660/189 396/662/189 395/663/189
f 395/663/190 396/662/190 398/664/190 397/665/190
f 397/665/191 398/664/191 400/666/191 399/667/191
f 399/667/192 400/666/192 402/668/192 401/669/192
f 401/669/193 402/668/193 404/670/193 403/671/193
f 403/671/194 404/670/194 406/672/194 405/673/194
f 405/673/195 406/672/195 408/674/195 407/675/195
f 407/675/196 408/674/196 410/676/196 409/677/196
f 409/677/197 410/676/197 412/678/197 411/679/197
f 411/679/198 412/678/198 414/680/198 413/681/198
f 356/682/199 354/683/199 416/684/199 414/685/199 412/686/199 410/687/199 408/688/199 406/689/199 404/690/199 402/691/199 400/692/199 398/693/199 396/694/199 394/695/199 392/696/199 390/697/199 388/698/199 386/699/199 384/700/199 382/701/199 380/702/199 378/703/199 376/704/199 374/705/199 372/706/199 370/707/199 368/708/199 366/709/199 364/710/199 362/711/199 360/712/199 358/713/199
f 413/681/200 414/680/200 416/714/200 415/715/200
f 415/715/201 416/714/201 354/716/201 353/717/201
f 353/718/202 355/719/202 357/720/202 359/721/202 361/722/202 363/723/202 365/724/202 367/725/202 369/726/202 371/727/202 373/728/202 375/729/202 377/730/202 379/731/202 381/732/202 383/733/202 385/734/202 387/735/202 389/736/202 391/737/202 393/738/202 395/739/202 397/740/202 399/741/202 401/742/202 403/743/202 405/744/202 407/745/202 409/746/202 411/747/202 413/748/202 415/749/202
o Cylinder.005
v -0.030835 0.117946 0.072635
v -0.080258 0.729779 0.072635
v -0.029584 0.118047 0.072792
v -0.079006 0.729880 0.072792
v -0.028380 0.118144 0.073260
v -0.077803 0.729977 0.073260
v -0.027271 0.118234 0.074018
v -0.076694 0.730067 0.074018
v -0.026299 0.118313 0.075039
v -0.075721 0.730145 0.075039
v -0.025501 0.118377 0.076283
v -0.074924 0.730210 0.076283
v -0.024908 0.118425 0.077702
v -0.074331 0.730258 0.077702
v -0.024543 0.118454 0.079241
v -0.073966 0.730287 0.079241
v -0.024419 0.118464 0.080843
v -0.073842 0.730297 0.080843
v -0.024543 0.118454 0.082444
v -0.073966 0.730287 0.082444
v -0.024908 0.118425 0.083984
v -0.074331 0.730258 0.083984
v -0.025501 0.118377 0.085403
v -0.074924 0.730210 0.085403
v -0.026299 0.118313 0.086646
v -0.075721 0.730145 0.086646
v -0.027271 0.118234 0.087667
v -0.076694 0.730067 0.087667
v -0.028380 0.118144 0.088426
v -0.077803 0.729977 0.088426
v -0.029584 0.118047 0.088893
v -0.079006 0.729880 0.088893
v -0.030835 0.117946 0.089050
v -0.080258 0.729779 0.089050
v -0.032087 0.117845 0.088893
v -0.081510 0.729678 0.088893
v -0.033290 0.117748 0.088426
v -0.082713 0.729581 0.088426
v -0.034400 0.117658 0.087667
v -0.083823 0.729491 0.087667
v -0.035372 0.117580 0.086646
v -0.084795 0.729412 0.086646
v -0.036170 0.117515 0.085403
v -0.085593 0.729348 0.085403
v -0.036763 0.117467 0.083984
v -0.086186 0.729300 0.083984
v -0.037128 0.117438 0.082444
v -0.086551 0.729271 0.082444
v -0.037251 0.117428 0.080843
v -0.086674 0.729261 0.080843
v -0.037128 0.117438 0.079241
v -0.086551 0.729271 0.079241
v -0.036763 0.117467 0.077702
v -0.086186 0.729300 0.077702
v -0.036170 0.117515 0.076283
v -0.085593 0.729348 0.076283
v -0.035372 0.117580 0.075039
v -0.084795 0.729412 0.075039
v -0.034400 0.117658 0.074018
v -0.083823 0.729491 0.074018
v -0.033290 0.117748 0.073260
v -0.082713 0.729581 0.073260
v -0.032087 0.117845 0.072792
v -0.081510 0.729678 0.072792
vn 0.1242 0.0100 -0.9922
vn 0.3596 0.0290 -0.9327
vn 0.5614 0.0453 -0.8263
vn 0.7206 0.0582 -0.6909
vn 0.8382 0.0677 -0.5412
vn 0.9193 0.0743 -0.3866
vn 0.9697 0.0783 -0.2314
vn 0.9938 0.0803 -0.0770
vn 0.9938 0.0803 0.0770
vn 0.9697 0.0783 0.2314
vn 0.9193 0.0743 0.3866
vn 0.8382 0.0677 0.5412
vn 0.7206 0.0582 0.6909
vn 0.5614 0.0453 0.8263
vn 0.3596 0.0290 0.9327
vn 0.1242 0.0100 0.9922
vn -0.1242 -0.0100 0.9922
vn -0.3596 -0.0290 0.9327
vn -0.5614 -0.0453 0.8263
vn -0.7206 -0.0582 0.6909
vn -0.8382 -0.0677 0.5412
vn -0.9193 -0.0743 0.3866
vn -0.9697 -0.0783 0.2314
vn -0.9938 -0.0803 0.0770
vn -0.9938 -0.0803 -0.0770
vn -0.9697 -0.0783 -0.2314
vn -0.9193 -0.0743 -0.3866
vn -0.8382 -0.0677 -0.5412
vn -0.7206 -0.0582 -0.6909
vn -0.5614 -0.0453 -0.8263
vn -0.0805 0.9968 -0.0000
vn -0.3596 -0.0290 -0.9327
vn -0.1242 -0.0100 -0.9922
vn 0.0805 -0.9968 -0.0000
vt 1.000000 0.500000
vt 1.000000 1.000000
vt 0.968750 1.000000
vt 0.968750 0.500000
vt 0.937500 1.000000
vt 0.937500 0.500000
vt 0.906250 1.000000
vt 0.906250 0.500000
vt 0.875000 1.000000
vt 0.875000 0.500000
vt 0.843750 1.000000
vt 0.843750 0.500000
vt 0.812500 1.000000
vt 0.812500 0.500000
vt 0.781250 1.000000
vt 0.781250 0.500000
vt 0.750000 1.000000
vt 0.750000 0.500000
vt 0.718750 1.000000
vt 0.718750 0.500000
vt 0.687500 1.000000
vt 0.687500 0.500000
vt 0.656250 1.000000
vt 0.656250 0.500000
vt 0.625000 1.000000
vt 0.625000 0.500000
vt 0.593750 1.000000
vt 0.593750 0.500000
vt 0.562500 1.000000
vt 0.562500 0.500000
vt 0.531250 1.000000
vt 0.531250 0.500000
vt 0.500000 1.000000
vt 0.500000 0.500000
vt 0.468750 1.000000
vt 0.468750 0.500000
vt 0.437500 1.000000
vt 0.437500 0.500000
vt 0.406250 1.000000
vt 0.406250 0.500000
vt 0.375000 1.000000
vt 0.375000 0.500000
vt 0.343750 1.000000
vt 0.343750 0.500000
vt 0.312500 1.000000
vt 0.312500 0.500000
vt 0.281250 1.000000
vt 0.281250 0.500000
vt 0.250000 1.000000
vt 0.250000 0.500000
vt 0.218750 1.000000
vt 0.218750 0.500000
vt 0.187500 1.000000
vt 0.187500 0.500000
vt 0.156250 1.000000
vt 0.156250 0.500000
vt 0.125000 1.000000
vt 0.125000 0.500000
vt 0.093750 1.000000
vt 0.093750 0.500000
vt 0.062500 1.000000
vt 0.062500 0.500000
vt 0.296822 0.485388
vt 0.250000 0.490000
vt 0.203178 0.485388
vt 0.158156 0.471731
vt 0.116663 0.449553
vt 0.080294 0.419706
vt 0.050447 0.383337
vt 0.028269 0.341844
vt 0.014612 0.296822
vt 0.010000 0.250000
vt 0.014612 0.203178
vt 0.028269 0.158156
vt 0.050447 0.116663
vt 0.080294 0.080294
vt 0.116663 0.050447
vt 0.158156 0.028269
vt 0.203178 0.014612
vt 0.250000 0.010000
vt 0.296822 0.014612
vt 0.341844 0.028269
vt 0.383337 0.050447
vt 0.419706 0.080294
vt 0.449553 0.116663
vt 0.471731 0.158156
vt 0.485388 0.203178
vt 0.490000 0.250000
vt 0.485388 0.296822
vt 0.471731 0.341844
vt 0.449553 0.383337
vt 0.419706 0.419706
vt 0.383337 0.449553
vt 0.341844 0.471731
vt 0.031250 1.000000
vt 0.031250 0.500000
vt 0.000000 1.000000
vt 0.000000 0.500000
vt 0.750000 0.490000
vt 0.796822 0.485388
vt 0.841844 0.471731
vt 0.883337 0.449553
vt 0.919706 0.419706
vt 0.949553 0.383337
vt 0.971731 0.341844
vt 0.985388 0.296822
vt 0.990000 0.250000
vt 0.985388 0.203178
vt 0.971731 0.158156
vt 0.949553 0.116663
vt 0.919706 0.080294
vt 0.883337 0.050447
vt 0.841844 0.028269
vt 0.796822 0.014612
vt 0.750000 0.010000
vt 0.703178 0.014612
vt 0.658156 0.028269
vt 0.616663 0.050447
vt 0.580294 0.080294
vt 0.550447 0.116663
vt 0.528269 0.158156
vt 0.514612 0.203178
vt 0.510000 0.250000
vt 0.514612 0.296822
vt 0.528269 0.341844
vt 0.550447 0.383337
vt 0.580294 0.419706
vt 0.616663 0.449553
vt 0.658156 0.471731
vt 0.703178 0.485388
s 0
usemtl bamboo-green
f 417/750/203 418/751/203 420/752/203 419/753/203
f 419/753/204 420/752/204 422/754/204 421/755/204
f 421/755/205 422/754/205 424/756/205 423/757/205
f 423/757/206 424/756/206 426/758/206 425/759/206
f 425/759/207 426/758/207 428/760/207 427/761/207
f 427/761/208 428/760/208 430/762/208 429/763/208
f 429/763/209 430/762/209 432/764/209 431/765/209
f 431/765/210 432/764/210 434/766/210 433/767/210
f 433/767/211 434/766/211 436/768/211 435/769/211
f 435/769/212 436/768/212 438/770/212 437/771/212
f 437/771/213 438/770/213 440/772/213 439/773/213
f 439/773/214 440/772/214 442/774/214 441/775/214
f 441/775/215 442/774/215 444/776/215 443/777/215
f 443/777/216 444/776/216 446/778/216 445/779/216
f 445/779/217 446/778/217 448/780/217 447/781/217
f 447/781/218 448/780/218 450/782/218 449/783/218
f 449/783/219 450/782/219 452/784/219 451/785/219
f 451/785/220 452/784/220 454/786/220 453/787/220
f 453/787/221 454/786/221 456/788/221 455/789/221
f 455/789/222 456/788/222 458/790/222 457/791/222
f 457/791/223 458/790/223 460/792/223 459/793/223
f 459/793/224 460/792/224 462/794/224 461/795/224
f 461/795/225 462/794/225 464/796/225 463/797/225
f 463/797/226 464/796/226 466/798/226 465/799/226
f 465/799/227 466/798/227 468/800/227 467/801/227
f 467/801/228 468/800/228 470/802/228 469/803/228
f 469/803/229 470/802/229 472/804/229 471/805/229
f 471/805/230 472/804/230 474/806/230 473/807/230
f 473/807/231 474/806/231 476/808/231 475/809/231
f 475/809/232 476/808/232 478/810/232 477/811/232
f 420/812/233 418/813/233 480/814/233 478/815/233 476/816/233 474/817/233 472/818/233 470/819/233 468/820/233 466/821/233 464/822/233 462/823/233 460/824/233 458/825/233 456/826/233 454/827/233 452/828/233 450/829/233 448/830/233 446/831/233 444/832/233 442/833/233 440/834/233 438/835/233 436/836/233 434/837/233 432/838/233 430/839/233 428/840/233 426/841/233 424/842/233 422/843/233
f 477/811/234 478/810/234 480/844/234 479/845/234
f 479/845/235 480/844/235 418/846/235 417/847/235
f 417/848/236 419/849/236 421/850/236 423/851/236 425/852/236 427/853/236 429/854/236 431/855/236 433/856/236 435/857/236 437/858/236 439/859/236 441/860/236 443/861/236 445/862/236 447/863/236 449/864/236 451/865/236 453/866/236 455/867/236 457/868/236 459/869/236 461/870/236 463/871/236 465/872/236 467/873/236 469/874/236 471/875/236 473/876/236 475/877/236 477/878/236 479/879/236
o Cylinder.006
v -0.026638 0.211977 0.064394
v -0.059346 0.824931 0.064394
v -0.025384 0.212044 0.064552
v -0.058092 0.824998 0.064552
v -0.024178 0.212109 0.065019
v -0.056886 0.825062 0.065019
v -0.023067 0.212168 0.065778
v -0.055775 0.825121 0.065778
v -0.022093 0.212220 0.066798
v -0.054801 0.825173 0.066798
v -0.021294 0.212263 0.068042
v -0.054002 0.825216 0.068042
v -0.020700 0.212294 0.069461
v -0.053408 0.825248 0.069461
v -0.020334 0.212314 0.071001
v -0.053042 0.825267 0.071001
v -0.020211 0.212320 0.072602
v -0.052919 0.825274 0.072602
v -0.020334 0.212314 0.074203
v -0.053042 0.825267 0.074203
v -0.020700 0.212294 0.075743
v -0.053408 0.825248 0.075743
v -0.021294 0.212263 0.077162
v -0.054002 0.825216 0.077162
v -0.022093 0.212220 0.078406
v -0.054801 0.825173 0.078406
v -0.023067 0.212168 0.079427
v -0.055775 0.825121 0.079427
v -0.024178 0.212109 0.080185
v -0.056886 0.825062 0.080185
v -0.025384 0.212044 0.080652
v -0.058092 0.824998 0.080652
v -0.026638 0.211977 0.080810
v -0.059346 0.824931 0.080810
v -0.027892 0.211910 0.080652
v -0.060600 0.824864 0.080652
v -0.029098 0.211846 0.080185
v -0.061806 0.824800 0.080185
v -0.030209 0.211787 0.079427
v -0.062917 0.824740 0.079427
v -0.031183 0.211735 0.078406
v -0.063891 0.824688 0.078406
v -0.031983 0.211692 0.077162
v -0.064690 0.824646 0.077162
v -0.032576 0.211660 0.075743
v -0.065284 0.824614 0.075743
v -0.032942 0.211641 0.074203
v -0.065650 0.824594 0.074203
v -0.033066 0.211634 0.072602
v -0.065774 0.824588 0.072602
v -0.032942 0.211641 0.071001
v -0.065650 0.824594 0.071001
v -0.032576 0.211660 0.069461
v -0.065284 0.824614 0.069461
v -0.031983 0.211692 0.068042
v -0.064690 0.824646 0.068042
v -0.031183 0.211735 0.066798
v -0.063891 0.824688 0.066798
v -0.030209 0.211787 0.065778
v -0.062917 0.824740 0.065778
v -0.029098 0.211846 0.065019
v -0.061806 0.824800 0.065019
v -0.027892 0.211910 0.064552
v -0.060600 0.824864 0.064552
vn 0.1244 0.0066 -0.9922
vn 0.3603 0.0192 -0.9327
vn 0.5624 0.0300 -0.8263
vn 0.7220 0.0385 -0.6909
vn 0.8397 0.0448 -0.5412
vn 0.9209 0.0491 -0.3866
vn 0.9715 0.0518 -0.2314
vn 0.9956 0.0531 -0.0770
vn 0.9956 0.0531 0.0770
vn 0.9715 0.0518 0.2314
vn 0.9209 0.0491 0.3866
vn 0.8397 0.0448 0.5412
vn 0.7220 0.0385 0.6909
vn 0.5624 0.0300 0.8263
vn 0.3603 0.0192 0.9327
vn 0.1244 0.0066 0.9922
vn -0.1244 -0.0066 0.9922
vn -0.3603 -0.0192 0.9327
vn -0.5624 -0.0300 0.8263
vn -0.7220 -0.0385 0.6909
vn -0.8397 -0.0448 0.5412
vn -0.9209 -0.0491 0.3866
vn -0.9715 -0.0518 0.2314
vn -0.9956 -0.0531 0.0770
vn -0.9956 -0.0531 -0.0770
vn -0.9715 -0.0518 -0.2314
vn -0.9209 -0.0491 -0.3866
vn -0.8397 -0.0448 -0.5412
vn -0.7220 -0.0385 -0.6909
vn -0.5624 -0.0300 -0.8263
vn -0.0533 0.9986 -0.0000
vn -0.3603 -0.0192 -0.9327
vn -0.1244 -0.0066 -0.9922
vn 0.0533 -0.9986 -0.0000
vt 1.000000 0.500000
vt 1.000000 1.000000
vt 0.968750 1.000000
vt 0.968750 0.500000
vt 0.937500 1.000000
vt 0.937500 0.500000
vt 0.906250 1.000000
vt 0.906250 0.500000
vt 0.875000 1.000000
vt 0.875000 0.500000
vt 0.843750 1.000000
vt 0.843750 0.500000
vt 0.812500 1.000000
vt 0.812500 0.500000
vt 0.781250 1.000000
vt 0.781250 0.500000
vt 0.750000 1.000000
vt 0.750000 0.500000
vt 0.718750 1.000000
vt 0.718750 0.500000
vt 0.687500 1.000000
vt 0.687500 0.500000
vt 0.656250 1.000000
vt 0.656250 0.500000
vt 0.625000 1.000000
vt 0.625000 0.500000
vt 0.593750 1.000000
vt 0.593750 0.500000
vt 0.562500 1.000000
vt 0.562500 0.500000
vt 0.531250 1.000000
vt 0.531250 0.500000
vt 0.500000 1.000000
vt 0.500000 0.500000
vt 0.468750 1.000000
vt 0.468750 0.500000
vt 0.437500 1.000000
vt 0.437500 0.500000
vt 0.406250 1.000000
vt 0.406250 0.500000
vt 0.375000 1.000000
vt 0.375000 0.500000
vt 0.343750 1.000000
vt 0.343750 0.500000
vt 0.312500 1.000000
vt 0.312500 0.500000
vt 0.281250 1.000000
vt 0.281250 0.500000
vt 0.250000 1.000000
vt 0.250000 0.500000
vt 0.218750 1.000000
vt 0.218750 0.500000
vt 0.187500 1.000000
vt 0.187500 0.500000
vt 0.156250 1.000000
vt 0.156250 0.500000
vt 0.125000 1.000000
vt 0.125000 0.500000
vt 0.093750 1.000000
vt 0.093750 0.500000
vt 0.062500 1.000000
vt 0.062500 0.500000
vt 0.296822 0.485388
vt 0.250000 0.490000
vt 0.203178 0.485388
vt 0.158156 0.471731
vt 0.116663 0.449553
vt 0.080294 0.419706
vt 0.050447 0.383337
vt 0.028269 0.341844
vt 0.014612 0.296822
vt 0.010000 0.250000
vt 0.014612 0.203178
vt 0.028269 0.158156
vt 0.050447 0.116663
vt 0.080294 0.080294
vt 0.116663 0.050447
vt 0.158156 0.028269
vt 0.203178 0.014612
vt 0.250000 0.010000
vt 0.296822 0.014612
vt 0.341844 0.028269
vt 0.383337 0.050447
vt 0.419706 0.080294
vt 0.449553 0.116663
vt 0.471731 0.158156
vt 0.485388 0.203178
vt 0.490000 0.250000
vt 0.485388 0.296822
vt 0.471731 0.341844
vt 0.449553 0.383337
vt 0.419706 0.419706
vt 0.383337 0.449553
vt 0.341844 0.471731
vt 0.031250 1.000000
vt 0.031250 0.500000
vt 0.000000 1.000000
vt 0.000000 0.500000
vt 0.750000 0.490000
vt 0.796822 0.485388
vt 0.841844 0.471731
vt 0.883337 0.449553
vt 0.919706 0.419706
vt 0.949553 0.383337
vt 0.971731 0.341844
vt 0.985388 0.296822
vt 0.990000 0.250000
vt 0.985388 0.203178
vt 0.971731 0.158156
vt 0.949553 0.116663
vt 0.919706 0.080294
vt 0.883337 0.050447
vt 0.841844 0.028269
vt 0.796822 0.014612
vt 0.750000 0.010000
vt 0.703178 0.014612
vt 0.658156 0.028269
vt 0.616663 0.050447
vt 0.580294 0.080294
vt 0.550447 0.116663
vt 0.528269 0.158156
vt 0.514612 0.203178
vt 0.510000 0.250000
vt 0.514612 0.296822
vt 0.528269 0.341844
vt 0.550447 0.383337
vt 0.580294 0.419706
vt 0.616663 0.449553
vt 0.658156 0.471731
vt 0.703178 0.485388
s 0
usemtl bamboo-green
f 481/880/237 482/881/237 484/882/237 483/883/237
f 483/883/238 484/882/238 486/884/238 485/885/238
f 485/885/239 486/884/239 488/886/239 487/887/239
f 487/887/240 488/886/240 490/888/240 489/889/240
f 489/889/241 490/888/241 492/890/241 491/891/241
f 491/891/242 492/890/242 494/892/242 493/893/242
f 493/893/243 494/892/243 496/894/243 495/895/243
f 495/895/244 496/894/244 498/896/244 497/897/244
f 497/897/245 498/896/245 500/898/245 499/899/245
f 499/899/246 500/898/246 502/900/246 501/901/246
f 501/901/247 502/900/247 504/902/247 503/903/247
f 503/903/248 504/902/248 506/904/248 505/905/248
f 505/905/249 506/904/249 508/906/249 507/907/249
f 507/907/250 508/906/250 510/908/250 509/909/250
f 509/909/251 510/908/251 512/910/251 511/911/251
f 511/911/252 512/910/252 514/912/252 513/913/252
f 513/913/253 514/912/253 516/914/253 515/915/253
f 515/915/254 516/914/254 518/916/254 517/917/254
f 517/917/255 518/916/255 520/918/255 519/919/255
f 519/919/256 520/918/256 522/920/256 521/921/256
f 521/921/257 522/920/257 524/922/257 523/923/257
f 523/923/258 524/922/258 526/924/258 525/925/258
f 525/925/259 526/924/259 528/926/259 527/927/259
f 527/927/260 528/926/260 530/928/260 529/929/260
f 529/929/261 530/928/261 532/930/261 531/931/261
f 531/931/262 532/930/262 534/932/262 533/933/262
f 533/933/263 534/932/263 536/934/263 535/935/263
f 535/935/264 536/934/264 538/936/264 537/937/264
f 537/937/265 538/936/265 540/938/265 539/939/265
f 539/939/266 540/938/266 542/940/266 541/941/266
f 484/942/267 482/943/267 544/944/267 542/945/267 540/946/267 538/947/267 536/948/267 534/949/267 532/950/267 530/951/267 528/952/267 526/953/267 524/954/267 522/955/267 520/956/267 518/957/267 516/958/267 514/959/267 512/960/267 510/961/267 508/962/267 506/963/267 504/964/267 502/965/267 500/966/267 498/967/267 496/968/267 494/969/267 492/970/267 490/971/267 488/972/267 486/973/267
f 541/941/268 542/940/268 544/974/268 543/975/268
f 543/975/269 544/974/269 482/976/269 481/977/269
f 481/978/270 483/979/270 485/980/270 487/981/270 489/982/270 491/983/270 493/984/270 495/985/270 497/986/270 499/987/270 501/988/270 503/989/270 505/990/270 507/991/270 509/992/270 511/993/270 513/994/270 515/995/270 517/996/270 519/997/270 521/998/270 523/999/270 525/1000/270 527/1001/270 529/1002/270 531/1003/270 533/1004/270 535/1005/270 537/1006/270 539/1007/270 541/1008/270 543/1009/270
o Cylinder.007
v 0.023153 0.097111 0.081613
v 0.012048 0.830683 0.081864
v 0.025220 0.097142 0.081821
v 0.014116 0.830714 0.082072
v 0.027207 0.097172 0.082428
v 0.016103 0.830744 0.082679
v 0.029038 0.097199 0.083410
v 0.017933 0.830771 0.083662
v 0.030641 0.097223 0.084732
v 0.019537 0.830795 0.084983
v 0.031957 0.097242 0.086340
v 0.020852 0.830815 0.086591
v 0.032933 0.097257 0.088175
v 0.021828 0.830829 0.088426
v 0.033532 0.097265 0.090164
v 0.022428 0.830837 0.090415
v 0.033732 0.097267 0.092233
v 0.022628 0.830839 0.092484
v 0.033525 0.097263 0.094300
v 0.022420 0.830836 0.094551
v 0.032918 0.097254 0.096288
v 0.021814 0.830826 0.096539
v 0.031935 0.097238 0.098118
v 0.020831 0.830810 0.098369
v 0.030614 0.097218 0.099722
v 0.019510 0.830790 0.099973
v 0.029006 0.097193 0.101038
v 0.017901 0.830765 0.101289
v 0.027171 0.097165 0.102014
v 0.016067 0.830737 0.102265
v 0.025182 0.097134 0.102613
v 0.014078 0.830706 0.102864
v 0.023114 0.097103 0.102813
v 0.012010 0.830675 0.103064
v 0.021047 0.097072 0.102606
v 0.009942 0.830644 0.102857
v 0.019059 0.097042 0.101999
v 0.007955 0.830614 0.102250
v 0.017229 0.097015 0.101016
v 0.006125 0.830587 0.101267
v 0.015625 0.096991 0.099695
v 0.004521 0.830563 0.099946
v 0.014310 0.096971 0.098086
v 0.003206 0.830543 0.098337
v 0.013334 0.096957 0.096252
v 0.002230 0.830529 0.096503
v 0.012734 0.096949 0.094262
v 0.001630 0.830521 0.094513
v 0.012534 0.096946 0.092194
v 0.001430 0.830519 0.092445
v 0.012742 0.096950 0.090126
v 0.001638 0.830522 0.090377
v 0.013349 0.096960 0.088139
v 0.002244 0.830532 0.088390
v 0.014331 0.096976 0.086308
v 0.003227 0.830548 0.086559
v 0.015652 0.096996 0.084704
v 0.004548 0.830568 0.084955
v 0.017261 0.097021 0.083389
v 0.006157 0.830593 0.083640
v 0.019095 0.097049 0.082413
v 0.007991 0.830621 0.082664
v 0.021084 0.097079 0.081813
v 0.009980 0.830652 0.082064
vn 0.0998 0.0019 -0.9950
vn 0.2920 0.0047 -0.9564
vn 0.4729 0.0075 -0.8811
vn 0.6357 0.0099 -0.7718
vn 0.7741 0.0119 -0.6330
vn 0.8827 0.0135 -0.4698
vn 0.9574 0.0146 -0.2885
vn 0.9952 0.0151 -0.0962
vn 0.9949 0.0150 0.0998
vn 0.9563 0.0144 0.2920
vn 0.8810 0.0132 0.4730
vn 0.7718 0.0115 0.6358
vn 0.6329 0.0093 0.7742
vn 0.4697 0.0068 0.8828
vn 0.2885 0.0040 0.9575
vn 0.0962 0.0011 0.9954
vn -0.0998 -0.0019 0.9950
vn -0.2920 -0.0047 0.9564
vn -0.4729 -0.0075 0.8811
vn -0.6357 -0.0099 0.7718
vn -0.7741 -0.0119 0.6330
vn -0.8827 -0.0135 0.4698
vn -0.9574 -0.0146 0.2885
vn -0.9952 -0.0151 0.0962
vn -0.9949 -0.0150 -0.0998
vn -0.9563 -0.0144 -0.2920
vn -0.8810 -0.0132 -0.4730
vn -0.7718 -0.0115 -0.6358
vn -0.6329 -0.0093 -0.7742
vn -0.4697 -0.0068 -0.8828
vn -0.0151 0.9999 0.0003
vn -0.2885 -0.0040 -0.9575
vn -0.0962 -0.0011 -0.9954
vn 0.0151 -0.9999 -0.0003
vt 1.000000 0.500000
vt 1.000000 1.000000
vt 0.968750 1.000000
vt 0.968750 0.500000
vt 0.937500 1.000000
vt 0.937500 0.500000
vt 0.906250 1.000000
vt 0.906250 0.500000
vt 0.875000 1.000000
vt 0.875000 0.500000
vt 0.843750 1.000000
vt 0.843750 0.500000
vt 0.812500 1.000000
vt 0.812500 0.500000
vt 0.781250 1.000000
vt 0.781250 0.500000
vt 0.750000 1.000000
vt 0.750000 0.500000
vt 0.718750 1.000000
vt 0.718750 0.500000
vt 0.687500 1.000000
vt 0.687500 0.500000
vt 0.656250 1.000000
vt 0.656250 0.500000
vt 0.625000 1.000000
vt 0.625000 0.500000
vt 0.593750 1.000000
vt 0.593750 0.500000
vt 0.562500 1.000000
vt 0.562500 0.500000
vt 0.531250 1.000000
vt 0.531250 0.500000
vt 0.500000 1.000000
vt 0.500000 0.500000
vt 0.468750 1.000000
vt 0.468750 0.500000
vt 0.437500 1.000000
vt 0.437500 0.500000
vt 0.406250 1.000000
vt 0.406250 0.500000
vt 0.375000 1.000000
vt 0.375000 0.500000
vt 0.343750 1.000000
vt 0.343750 0.500000
vt 0.312500 1.000000
vt 0.312500 0.500000
vt 0.281250 1.000000
vt 0.281250 0.500000
vt 0.250000 1.000000
vt 0.250000 0.500000
vt 0.218750 1.000000
vt 0.218750 0.500000
vt 0.187500 1.000000
vt 0.187500 0.500000
vt 0.156250 1.000000
vt 0.156250 0.500000
vt 0.125000 1.000000
vt 0.125000 0.500000
vt 0.093750 1.000000
vt 0.093750 0.500000
vt 0.062500 1.000000
vt 0.062500 0.500000
vt 0.296822 0.485388
vt 0.250000 0.490000
vt 0.203178 0.485388
vt 0.158156 0.471731
vt 0.116663 0.449553
vt 0.080294 0.419706
vt 0.050447 0.383337
vt 0.028269 0.341844
vt 0.014612 0.296822
vt 0.010000 0.250000
vt 0.014612 0.203178
vt 0.028269 0.158156
vt 0.050447 0.116663
vt 0.080294 0.080294
vt 0.116663 0.050447
vt 0.158156 0.028269
vt 0.203178 0.014612
vt 0.250000 0.010000
vt 0.296822 0.014612
vt 0.341844 0.028269
vt 0.383337 0.050447
vt 0.419706 0.080294
vt 0.449553 0.116663
vt 0.471731 0.158156
vt 0.485388 0.203178
vt 0.490000 0.250000
vt 0.485388 0.296822
vt 0.471731 0.341844
vt 0.449553 0.383337
vt 0.419706 0.419706
vt 0.383337 0.449553
vt 0.341844 0.471731
vt 0.031250 1.000000
vt 0.031250 0.500000
vt 0.000000 1.000000
vt 0.000000 0.500000
vt 0.750000 0.490000
vt 0.796822 0.485388
vt 0.841844 0.471731
vt 0.883337 0.449553
vt 0.919706 0.419706
vt 0.949553 0.383337
vt 0.971731 0.341844
vt 0.985388 0.296822
vt 0.990000 0.250000
vt 0.985388 0.203178
vt 0.971731 0.158156
vt 0.949553 0.116663
vt 0.919706 0.080294
vt 0.883337 0.050447
vt 0.841844 0.028269
vt 0.796822 0.014612
vt 0.750000 0.010000
vt 0.703178 0.014612
vt 0.658156 0.028269
vt 0.616663 0.050447
vt 0.580294 0.080294
vt 0.550447 0.116663
vt 0.528269 0.158156
vt 0.514612 0.203178
vt 0.510000 0.250000
vt 0.514612 0.296822
vt 0.528269 0.341844
vt 0.550447 0.383337
vt 0.580294 0.419706
vt 0.616663 0.449553
vt 0.658156 0.471731
vt 0.703178 0.485388
s 0
usemtl bamboo-green
f 545/1010/271 546/1011/271 548/1012/271 547/1013/271
f 547/1013/272 548/1012/272 550/1014/272 549/1015/272
f 549/1015/273 550/1014/273 552/1016/273 551/1017/273
f 551/1017/274 552/1016/274 554/1018/274 553/1019/274
f 553/1019/275 554/1018/275 556/1020/275 555/1021/275
f 555/1021/276 556/1020/276 558/1022/276 557/1023/276
f 557/1023/277 558/1022/277 560/1024/277 559/1025/277
f 559/1025/278 560/1024/278 562/1026/278 561/1027/278
f 561/1027/279 562/1026/279 564/1028/279 563/1029/279
f 563/1029/280 564/1028/280 566/1030/280 565/1031/280
f 565/1031/281 566/1030/281 568/1032/281 567/1033/281
f 567/1033/282 568/1032/282 570/1034/282 569/1035/282
f 569/1035/283 570/1034/283 572/1036/283 571/1037/283
f 571/1037/284 572/1036/284 574/1038/284 573/1039/284
f 573/1039/285 574/1038/285 576/1040/285 575/1041/285
f 575/1041/286 576/1040/286 578/1042/286 577/1043/286
f 577/1043/287 578/1042/287 580/1044/287 579/1045/287
f 579/1045/288 580/1044/288 582/1046/288 581/1047/288
f 581/1047/289 582/1046/289 584/1048/289 583/1049/289
f 583/1049/290 584/1048/290 586/1050/290 585/1051/290
f 585/1051/291 586/1050/291 588/1052/291 587/1053/291
f 587/1053/292 588/1052/292 590/1054/292 589/1055/292
f 589/1055/293 590/1054/293 592/1056/293 591/1057/293
f 591/1057/294 592/1056/294 594/1058/294 593/1059/294
f 593/1059/295 594/1058/295 596/1060/295 595/1061/295
f 595/1061/296 596/1060/296 598/1062/296 597/1063/296
f 597/1063/297 598/1062/297 600/1064/297 599/1065/297
f 599/1065/298 600/1064/298 602/1066/298 601/1067/298
f 601/1067/299 602/1066/299 604/1068/299 603/1069/299
f 603/1069/300 604/1068/300 606/1070/300 605/1071/300
f 548/1072/301 546/1073/301 608/1074/301 606/1075/301 604/1076/301 602/1077/301 600/1078/301 598/1079/301 596/1080/301 594/1081/301 592/1082/301 590/1083/301 588/1084/301 586/1085/301 584/1086/301 582/1087/301 580/1088/301 578/1089/301 576/1090/301 574/1091/301 572/1092/301 570/1093/301 568/1094/301 566/1095/301 564/1096/301 562/1097/301 560/1098/301 558/1099/301 556/1100/301 554/1101/301 552/1102/301 550/1103/301
f 605/1071/302 606/1070/302 608/1104/302 607/1105/302
f 607/1105/303 608/1104/303 546/1106/303 545/1107/303
f 545/1108/304 547/1109/304 549/1110/304 551/1111/304 553/1112/304 555/1113/304 557/1114/304 559/1115/304 561/1116/304 563/1117/304 565/1118/304 567/1119/304 569/1120/304 571/1121/304 573/1122/304 575/1123/304 577/1124/304 579/1125/304 581/1126/304 583/1127/304 585/1128/304 587/1129/304 589/1130/304 591/1131/304 593/1132/304 595/1133/304 597/1134/304 599/1135/304 601/1136/304 603/1137/304 605/1138/304 607/1139/304
o folha
v -0.072707 0.562803 0.090192
v -0.077685 0.567556 0.079302
v -0.128062 0.574326 0.131024
v -0.142910 0.578467 0.111112
v -0.097790 0.571592 0.118621
v -0.109684 0.580974 0.086923
v -0.069523 0.562452 0.081213
v -0.153965 0.568527 0.125311
v -0.110115 0.572325 0.104169
v -0.090362 0.569279 0.111672
v -0.083353 0.566814 0.103966
v -0.077313 0.564549 0.096504
v -0.070180 0.563010 0.080460
v -0.071399 0.563861 0.079819
v -0.073744 0.565295 0.079402
v -0.118860 0.582217 0.092237
v -0.127627 0.582074 0.098546
v -0.135716 0.580746 0.105078
v -0.150085 0.568977 0.127631
v -0.143859 0.570603 0.129521
v -0.136214 0.572628 0.130722
v -0.120206 0.574932 0.130040
v -0.112628 0.574595 0.127762
v -0.105203 0.573428 0.124002
v -0.083872 0.570918 0.079724
v -0.091619 0.574710 0.080905
v -0.100423 0.578291 0.083195
v -0.108080 0.571492 0.108011
v -0.105148 0.571216 0.111657
v -0.101619 0.571311 0.115172
v -0.070165 0.561946 0.086053
v -0.069089 0.561735 0.083504
v -0.069047 0.561980 0.082078
v -0.148745 0.575422 0.115888
v -0.152901 0.572311 0.119682
v -0.154813 0.569785 0.122726
v -0.110539 0.578348 0.091398
v -0.111095 0.575907 0.095808
v -0.111054 0.573838 0.100087
v -0.079480 0.565721 0.087058
v -0.089514 0.568670 0.092861
v -0.099700 0.570978 0.098579
v -0.120810 0.572497 0.109603
v -0.131735 0.571708 0.114910
v -0.142812 0.570278 0.120132
v -0.121772 0.574054 0.105509
v -0.121495 0.576362 0.101207
v -0.120386 0.579165 0.096759
v -0.132684 0.573219 0.111139
v -0.131968 0.575675 0.107126
v -0.130092 0.578728 0.102895
v -0.143718 0.571679 0.116901
v -0.142439 0.574194 0.113335
v -0.139529 0.577340 0.109357
v -0.080210 0.566579 0.085184
v -0.081048 0.567707 0.083303
v -0.082281 0.569184 0.081483
v -0.090319 0.569804 0.089981
v -0.090831 0.571233 0.086997
v -0.091243 0.572906 0.083962
v -0.100580 0.572342 0.094926
v -0.100854 0.574100 0.091106
v -0.100736 0.576128 0.087177
v -0.077415 0.564482 0.093551
v -0.077839 0.564623 0.090994
v -0.078618 0.565053 0.088912
v -0.085057 0.567004 0.101121
v -0.086718 0.567313 0.098328
v -0.088266 0.567850 0.095609
v -0.093192 0.569371 0.108518
v -0.095826 0.569598 0.105320
v -0.098067 0.570091 0.102028
v -0.110128 0.572577 0.120581
v -0.114644 0.571972 0.117088
v -0.118342 0.571860 0.113449
v -0.118716 0.573147 0.124798
v -0.124285 0.571976 0.121720
v -0.128808 0.571377 0.118434
v -0.127421 0.573086 0.128044
v -0.134041 0.571431 0.125770
v -0.139411 0.570321 0.123110
v -0.073195 0.561336 0.089560
v -0.078174 0.566090 0.078667
v -0.128414 0.572843 0.130354
v -0.143410 0.577012 0.110476
v -0.098209 0.570109 0.117964
v -0.110141 0.579499 0.086272
v -0.070013 0.560986 0.080579
v -0.154293 0.567043 0.124623
v -0.110529 0.570841 0.103505
v -0.090803 0.567800 0.111023
v -0.083813 0.565338 0.103323
v -0.077788 0.563078 0.095867
v -0.070669 0.561545 0.079825
v -0.071888 0.562395 0.079184
v -0.074233 0.563829 0.078767
v -0.119312 0.580742 0.091583
v -0.128083 0.580600 0.097893
v -0.136188 0.579278 0.104430
v -0.150403 0.567495 0.126945
v -0.144182 0.569120 0.128839
v -0.136552 0.571145 0.130045
v -0.120570 0.573447 0.129371
v -0.113007 0.573110 0.127096
v -0.105600 0.571943 0.123339
v -0.084354 0.569450 0.079085
v -0.092092 0.573239 0.080261
v -0.100886 0.576818 0.082546
v -0.108489 0.570008 0.107347
v -0.105559 0.569732 0.110995
v -0.102038 0.569828 0.114514
v -0.070653 0.560480 0.085420
v -0.069578 0.560269 0.082871
v -0.069537 0.560514 0.081444
v -0.149193 0.573949 0.115230
v -0.153300 0.570829 0.119008
v -0.155169 0.568300 0.122043
v -0.110990 0.576872 0.090745
v -0.111532 0.574428 0.095149
v -0.111478 0.572356 0.099425
v -0.079965 0.564253 0.086422
v -0.089984 0.567198 0.092219
v -0.100146 0.569500 0.097927
v -0.121192 0.571011 0.108929
v -0.132092 0.570222 0.114229
v -0.143154 0.568793 0.119446
v -0.122170 0.572569 0.104838
v -0.121914 0.574880 0.100541
v -0.120829 0.577688 0.096101
v -0.133064 0.571734 0.110462
v -0.132378 0.574193 0.106456
v -0.130539 0.577252 0.102238
v -0.144093 0.570194 0.116221
v -0.142856 0.572714 0.112667
v -0.139992 0.575870 0.108705
v -0.080695 0.565112 0.084547
v -0.081533 0.566240 0.082666
v -0.082767 0.567718 0.080845
v -0.090791 0.568333 0.089339
v -0.091305 0.569762 0.086355
v -0.091718 0.571436 0.083320
v -0.101032 0.570865 0.094274
v -0.101311 0.572625 0.090456
v -0.101199 0.574655 0.086529
v -0.077895 0.563012 0.092916
v -0.078321 0.563154 0.090358
v -0.079101 0.563585 0.088276
v -0.085521 0.565530 0.100479
v -0.087183 0.565839 0.097686
v -0.088733 0.566377 0.094967
v -0.093636 0.567893 0.107869
v -0.096267 0.568118 0.104668
v -0.098509 0.568612 0.101376
v -0.110521 0.571092 0.119916
v -0.115022 0.570486 0.116416
v -0.118717 0.570374 0.112775
v -0.119085 0.571661 0.124127
v -0.124636 0.570491 0.121042
v -0.129154 0.569892 0.117753
v -0.127770 0.571601 0.127370
v -0.134372 0.569947 0.125089
v -0.139738 0.568837 0.122425
vn 0.2130 0.8366 0.5046
vn 0.3195 0.7309 0.6031
vn 0.2084 0.7918 0.5742
vn 0.3436 0.6422 0.6852
vn 0.1743 0.9345 0.3104
vn 0.2552 0.8585 0.4449
vn 0.3289 0.7842 0.5261
vn 0.3945 0.7264 0.5628
vn 0.4162 0.6383 0.6476
vn 0.4635 0.5021 0.7301
vn 0.5194 0.3298 0.7883
vn 0.4072 0.4943 0.7681
vn 0.2488 0.7084 0.6604
vn 0.0496 0.9139 0.4029
vn 0.0592 0.9272 0.3699
vn 0.1009 0.9349 0.3402
vn 0.4255 0.8443 0.3257
vn 0.4397 0.8142 0.3792
vn 0.3852 0.8520 0.3545
vn 0.4092 0.8127 0.4147
vn 0.4270 0.8707 0.2442
vn 0.4436 0.8443 0.3008
vn 0.4546 0.8222 0.3426
vn 0.4604 0.8083 0.3669
vn 0.4473 0.7982 0.4035
vn 0.4264 0.7897 0.4411
vn 0.4036 0.7711 0.4924
vn 0.3679 0.8069 0.4622
vn 0.3246 0.8600 0.3938
vn 0.2692 0.9217 0.2794
vn 0.3471 0.9024 0.2555
vn 0.3986 0.8846 0.2420
vn 0.2781 0.9602 -0.0275
vn 0.3116 0.9493 0.0402
vn 0.2103 0.9756 -0.0635
vn 0.2420 0.9702 0.0138
vn 0.3298 0.9440 -0.0095
vn 0.3471 0.9373 0.0315
vn 0.3764 0.9212 0.0981
vn 0.4057 0.8968 0.1762
vn 0.3561 0.9246 0.1356
vn 0.2920 0.9482 0.1254
vn 0.2026 0.9710 0.1271
vn 0.1520 0.9884 -0.0037
vn 0.1268 0.9872 -0.0971
vn 0.1279 0.9793 -0.1570
vn 0.2031 0.9732 -0.1078
vn 0.2672 0.9616 -0.0629
vn -0.0561 0.9822 -0.1793
vn -0.0464 0.9978 -0.0473
vn -0.1227 0.9654 -0.2302
vn -0.1165 0.9891 -0.0904
vn 0.0436 0.9754 -0.2161
vn 0.0306 0.9905 -0.1340
vn 0.0461 0.9987 -0.0195
vn 0.0945 0.9866 0.1332
vn 0.0027 0.9918 0.1281
vn -0.0650 0.9921 0.1069
vn -0.1128 0.9916 0.0626
vn -0.1672 0.9730 -0.1588
vn -0.1688 0.9385 -0.3011
vn -0.1470 0.9016 -0.4069
vn -0.1017 0.9325 -0.3464
vn -0.0366 0.9587 -0.2821
vn -0.2130 -0.8366 -0.5047
vn -0.3196 -0.7307 -0.6032
vn -0.2086 -0.7916 -0.5744
vn -0.3439 -0.6418 -0.6854
vn -0.1743 -0.9345 -0.3104
vn -0.2552 -0.8585 -0.4449
vn -0.3289 -0.7842 -0.5262
vn -0.3945 -0.7264 -0.5628
vn -0.4162 -0.6383 -0.6476
vn -0.4634 -0.5022 -0.7301
vn -0.5190 -0.3308 -0.7882
vn -0.4070 -0.4948 -0.7678
vn -0.2487 -0.7087 -0.6602
vn -0.0496 -0.9139 -0.4029
vn -0.0593 -0.9271 -0.3700
vn -0.1009 -0.9349 -0.3403
vn -0.4256 -0.8443 -0.3257
vn -0.4397 -0.8142 -0.3792
vn -0.3852 -0.8520 -0.3545
vn -0.4092 -0.8127 -0.4147
vn -0.4270 -0.8707 -0.2442
vn -0.4436 -0.8443 -0.3008
vn -0.4546 -0.8222 -0.3426
vn -0.4604 -0.8083 -0.3669
vn -0.4473 -0.7982 -0.4035
vn -0.4264 -0.7897 -0.4411
vn -0.4036 -0.7711 -0.4924
vn -0.3678 -0.8069 -0.4621
vn -0.3246 -0.8600 -0.3938
vn -0.2692 -0.9217 -0.2794
vn -0.3471 -0.9024 -0.2555
vn -0.3986 -0.8846 -0.2420
vn -0.2781 -0.9602 0.0275
vn -0.3116 -0.9493 -0.0402
vn -0.2103 -0.9756 0.0635
vn -0.2420 -0.9702 -0.0138
vn -0.3298 -0.9440 0.0095
vn -0.3471 -0.9373 -0.0314
vn -0.3764 -0.9212 -0.0981
vn -0.4057 -0.8968 -0.1762
vn -0.3561 -0.9246 -0.1356
vn -0.2920 -0.9482 -0.1254
vn -0.2026 -0.9710 -0.1271
vn -0.1520 -0.9884 0.0037
vn -0.1268 -0.9872 0.0971
vn -0.1280 -0.9793 0.1570
vn -0.2031 -0.9732 0.1078
vn -0.2672 -0.9616 0.0630
vn 0.0561 -0.9822 0.1793
vn 0.0464 -0.9978 0.0473
vn 0.1227 -0.9654 0.2302
vn 0.1165 -0.9891 0.0903
vn -0.0436 -0.9754 0.2162
vn -0.0306 -0.9905 0.1340
vn -0.0461 -0.9987 0.0195
vn -0.0945 -0.9866 -0.1332
vn -0.0027 -0.9917 -0.1282
vn 0.0649 -0.9921 -0.1070
vn 0.1128 -0.9916 -0.0626
vn 0.1672 -0.9730 0.1588
vn 0.1688 -0.9385 0.3011
vn 0.1470 -0.9016 0.4068
vn 0.1017 -0.9325 0.3464
vn 0.0365 -0.9587 0.2821
vn 0.5228 -0.4665 0.7135
vn 0.5739 -0.4689 0.6714
vn 0.6108 -0.4706 0.6367
vn 0.6455 -0.4713 0.6010
vn 0.7628 0.0249 -0.6461
vn 0.5493 0.1709 -0.8179
vn 0.3315 0.2800 -0.9010
vn 0.2119 0.3286 -0.9204
vn -0.3935 0.4707 -0.7897
vn -0.5191 0.4748 -0.7107
vn -0.5986 0.4742 -0.6456
vn -0.6481 0.4764 -0.5942
vn -0.4668 -0.2859 0.8369
vn -0.1765 -0.3806 0.9077
vn -0.0350 -0.4096 0.9116
vn 0.0542 -0.4231 0.9044
vn 0.1449 -0.4358 0.8883
vn 0.2392 -0.4474 0.8618
vn 0.3439 -0.4569 0.8203
vn 0.4429 -0.4630 0.7677
vn 0.1319 0.3582 -0.9243
vn 0.0489 0.3863 -0.9211
vn -0.0653 0.4184 -0.9059
vn -0.2183 0.4500 -0.8660
vn 0.7084 -0.4647 0.5312
vn 0.8157 -0.4359 0.3803
vn 0.9515 -0.3068 -0.0252
vn 0.8584 -0.0668 -0.5087
vn -0.6945 0.4668 -0.5476
vn -0.7643 0.4338 -0.4771
vn -0.8977 0.3505 -0.2669
vn -0.9380 0.0585 0.3415
vt 0.625000 0.625000
vt 0.750000 0.625000
vt 0.750000 0.750000
vt 0.625000 0.750000
vt 0.875000 0.625000
vt 0.875000 0.750000
vt 0.750000 0.875000
vt 0.625000 0.875000
vt 0.875000 0.875000
vt 0.500000 0.500000
vt 0.625000 0.500000
vt 0.500000 0.625000
vt 0.750000 0.500000
vt 0.875000 0.500000
vt 1.000000 0.500000
vt 1.000000 0.625000
vt 1.000000 0.750000
vt 1.000000 0.875000
vt 1.000000 1.000000
vt 0.875000 1.000000
vt 0.750000 1.000000
vt 0.625000 1.000000
vt 0.500000 0.875000
vt 0.500000 1.000000
vt 0.500000 0.750000
vt 0.625000 0.125000
vt 0.750000 0.125000
vt 0.750000 0.250000
vt 0.625000 0.250000
vt 0.875000 0.125000
vt 0.875000 0.250000
vt 0.750000 0.375000
vt 0.625000 0.375000
vt 0.875000 0.375000
vt 0.500000 0.000000
vt 0.625000 0.000000
vt 0.500000 0.125000
vt 0.750000 0.000000
vt 0.875000 0.000000
vt 1.000000 0.000000
vt 1.000000 0.125000
vt 1.000000 0.250000
vt 1.000000 0.375000
vt 0.500000 0.375000
vt 0.500000 0.250000
vt 0.125000 0.125000
vt 0.250000 0.125000
vt 0.250000 0.250000
vt 0.125000 0.250000
vt 0.375000 0.125000
vt 0.375000 0.250000
vt 0.250000 0.375000
vt 0.125000 0.375000
vt 0.375000 0.375000
vt 0.000000 0.000000
vt 0.125000 0.000000
vt 0.000000 0.125000
vt 0.250000 0.000000
vt 0.375000 0.000000
vt 0.375000 0.500000
vt 0.250000 0.500000
vt 0.125000 0.500000
vt 0.000000 0.375000
vt 0.000000 0.500000
vt 0.000000 0.250000
vt 0.125000 0.625000
vt 0.250000 0.625000
vt 0.250000 0.750000
vt 0.125000 0.750000
vt 0.375000 0.625000
vt 0.375000 0.750000
vt 0.250000 0.875000
vt 0.125000 0.875000
vt 0.375000 0.875000
vt 0.000000 0.625000
vt 0.375000 1.000000
vt 0.250000 1.000000
vt 0.125000 1.000000
vt 0.000000 0.875000
vt 0.000000 1.000000
vt 0.000000 0.750000
s 0
usemtl Material.003
f 654/1140/305 655/1141/305 658/1142/305 657/1143/305
f 655/1141/306 656/1144/306 659/1145/306 658/1142/306
f 657/1143/307 658/1142/307 661/1146/307 660/1147/307
f 658/1142/308 659/1145/308 662/1148/308 661/1146/308
f 617/1149/309 647/1150/309 654/1140/309 651/1151/309
f 647/1150/310 646/1152/310 655/1141/310 654/1140/310
f 646/1152/311 645/1153/311 656/1144/311 655/1141/311
f 645/1153/312 614/1154/312 624/1155/312 656/1144/312
f 656/1144/313 624/1155/313 625/1156/313 659/1145/313
f 659/1145/314 625/1156/314 626/1157/314 662/1148/314
f 662/1148/315 626/1157/315 612/1158/315 642/1159/315
f 661/1146/316 662/1148/316 642/1159/316 643/1160/316
f 660/1147/317 661/1146/317 643/1160/317 644/1161/317
f 653/1162/318 660/1147/318 644/1161/318 616/1163/318
f 652/1164/319 657/1143/319 660/1147/319 653/1162/319
f 651/1151/320 654/1140/320 657/1143/320 652/1164/320
f 663/1165/321 664/1166/321 667/1167/321 666/1168/321
f 664/1166/322 665/1169/322 668/1170/322 667/1167/322
f 666/1168/323 667/1167/323 670/1171/323 669/1172/323
f 667/1167/324 668/1170/324 671/1173/324 670/1171/324
f 615/1174/325 621/1175/325 663/1165/325 648/1176/325
f 621/1175/326 622/1177/326 664/1166/326 663/1165/326
f 622/1177/327 623/1178/327 665/1169/327 664/1166/327
f 623/1178/328 610/1179/328 633/1180/328 665/1169/328
f 665/1169/329 633/1180/329 634/1181/329 668/1170/329
f 668/1170/330 634/1181/330 635/1182/330 671/1173/330
f 671/1173/331 635/1182/331 614/1154/331 645/1153/331
f 670/1171/332 671/1173/332 645/1153/332 646/1152/332
f 669/1172/333 670/1171/333 646/1152/333 647/1150/333
f 650/1183/334 669/1172/334 647/1150/334 617/1149/334
f 649/1184/335 666/1168/335 669/1172/335 650/1183/335
f 648/1176/336 663/1165/336 666/1168/336 649/1184/336
f 672/1185/337 673/1186/337 676/1187/337 675/1188/337
f 673/1186/338 674/1189/338 677/1190/338 676/1187/338
f 675/1188/339 676/1187/339 679/1191/339 678/1192/339
f 676/1187/340 677/1190/340 680/1193/340 679/1191/340
f 609/1194/341 639/1195/341 672/1185/341 620/1196/341
f 639/1195/342 640/1197/342 673/1186/342 672/1185/342
f 640/1197/343 641/1198/343 674/1189/343 673/1186/343
f 641/1198/344 615/1174/344 648/1176/344 674/1189/344
f 674/1189/345 648/1176/345 649/1184/345 677/1190/345
f 677/1190/346 649/1184/346 650/1183/346 680/1193/346
f 680/1193/347 650/1183/347 617/1149/347 636/1199/347
f 679/1191/348 680/1193/348 636/1199/348 637/1200/348
f 678/1192/349 679/1191/349 637/1200/349 638/1201/349
f 618/1202/350 678/1192/350 638/1201/350 613/1203/350
f 619/1204/351 675/1188/351 678/1192/351 618/1202/351
f 620/1196/352 672/1185/352 675/1188/352 619/1204/352
f 681/1205/353 682/1206/353 685/1207/353 684/1208/353
f 682/1206/354 683/1209/354 686/1210/354 685/1207/354
f 684/1208/355 685/1207/355 688/1211/355 687/1212/355
f 685/1207/356 686/1210/356 689/1213/356 688/1211/356
f 613/1203/357 638/1201/357 681/1205/357 632/1214/357
f 638/1201/358 637/1200/358 682/1206/358 681/1205/358
f 637/1200/359 636/1199/359 683/1209/359 682/1206/359
f 636/1199/360 617/1149/360 651/1151/360 683/1209/360
f 683/1209/361 651/1151/361 652/1164/361 686/1210/361
f 686/1210/362 652/1164/362 653/1162/362 689/1213/362
f 689/1213/363 653/1162/363 616/1163/363 627/1215/363
f 688/1211/364 689/1213/364 627/1215/364 628/1216/364
f 687/1212/365 688/1211/365 628/1216/365 629/1217/365
f 630/1218/366 687/1212/366 629/1217/366 611/1219/366
f 631/1220/367 684/1208/367 687/1212/367 630/1218/367
f 632/1214/368 681/1205/368 684/1208/368 631/1220/368
f 735/1140/369 738/1143/369 739/1142/369 736/1141/369
f 736/1141/370 739/1142/370 740/1145/370 737/1144/370
f 738/1143/371 741/1147/371 742/1146/371 739/1142/371
f 739/1142/372 742/1146/372 743/1148/372 740/1145/372
f 698/1149/373 732/1151/373 735/1140/373 728/1150/373
f 728/1150/374 735/1140/374 736/1141/374 727/1152/374
f 727/1152/375 736/1141/375 737/1144/375 726/1153/375
f 726/1153/376 737/1144/376 705/1155/376 695/1154/376
f 737/1144/377 740/1145/377 706/1156/377 705/1155/377
f 740/1145/378 743/1148/378 707/1157/378 706/1156/378
f 743/1148/379 723/1159/379 693/1158/379 707/1157/379
f 742/1146/380 724/1160/380 723/1159/380 743/1148/380
f 741/1147/381 725/1161/381 724/1160/381 742/1146/381
f 734/1162/382 697/1163/382 725/1161/382 741/1147/382
f 733/1164/383 734/1162/383 741/1147/383 738/1143/383
f 732/1151/384 733/1164/384 738/1143/384 735/1140/384
f 744/1165/385 747/1168/385 748/1167/385 745/1166/385
f 745/1166/386 748/1167/386 749/1170/386 746/1169/386
f 747/1168/387 750/1172/387 751/1171/387 748/1167/387
f 748/1167/388 751/1171/388 752/1173/388 749/1170/388
f 696/1174/389 729/1176/389 744/1165/389 702/1175/389
f 702/1175/390 744/1165/390 745/1166/390 703/1177/390
f 703/1177/391 745/1166/391 746/1169/391 704/1178/391
f 704/1178/392 746/1169/392 714/1180/392 691/1179/392
f 746/1169/393 749/1170/393 715/1181/393 714/1180/393
f 749/1170/394 752/1173/394 716/1182/394 715/1181/394
f 752/1173/395 726/1153/395 695/1154/395 716/1182/395
f 751/1171/396 727/1152/396 726/1153/396 752/1173/396
f 750/1172/397 728/1150/397 727/1152/397 751/1171/397
f 731/1183/398 698/1149/398 728/1150/398 750/1172/398
f 730/1184/399 731/1183/399 750/1172/399 747/1168/399
f 729/1176/400 730/1184/400 747/1168/400 744/1165/400
f 753/1185/401 756/1188/401 757/1187/401 754/1186/401
f 754/1186/402 757/1187/402 758/1190/402 755/1189/402
f 756/1188/403 759/1192/403 760/1191/403 757/1187/403
f 757/1187/404 760/1191/404 761/1193/404 758/1190/404
f 690/1194/405 701/1196/405 753/1185/405 720/1195/405
f 720/1195/406 753/1185/406 754/1186/406 721/1197/406
f 721/1197/407 754/1186/407 755/1189/407 722/1198/407
f 722/1198/408 755/1189/408 729/1176/408 696/1174/408
f 755/1189/409 758/1190/409 730/1184/409 729/1176/409
f 758/1190/410 761/1193/410 731/1183/410 730/1184/410
f 761/1193/411 717/1199/411 698/1149/411 731/1183/411
f 760/1191/412 718/1200/412 717/1199/412 761/1193/412
f 759/1192/413 719/1201/413 718/1200/413 760/1191/413
f 699/1202/414 694/1203/414 719/1201/414 759/1192/414
f 700/1204/415 699/1202/415 759/1192/415 756/1188/415
f 701/1196/416 700/1204/416 756/1188/416 753/1185/416
f 762/1205/417 765/1208/417 766/1207/417 763/1206/417
f 763/1206/418 766/1207/418 767/1210/418 764/1209/418
f 765/1208/419 768/1212/419 769/1211/419 766/1207/419
f 766/1207/420 769/1211/420 770/1213/420 767/1210/420
f 694/1203/421 713/1214/421 762/1205/421 719/1201/421
f 719/1201/422 762/1205/422 763/1206/422 718/1200/422
f 718/1200/423 763/1206/423 764/1209/423 717/1199/423
f 717/1199/424 764/1209/424 732/1151/424 698/1149/424
f 764/1209/425 767/1210/425 733/1164/425 732/1151/425
f 767/1210/426 770/1213/426 734/1162/426 733/1164/426
f 770/1213/427 708/1215/427 697/1163/427 734/1162/427
f 769/1211/428 709/1216/428 708/1215/428 770/1213/428
f 768/1212/429 710/1217/429 709/1216/429 769/1211/429
f 711/1218/430 692/1219/430 710/1217/430 768/1212/430
f 712/1220/431 711/1218/431 768/1212/431 765/1208/431
f 713/1214/432 712/1220/432 765/1208/432 762/1205/432
f 618/1202/433 613/1203/433 694/1203/433 699/1202/433
f 619/1204/434 618/1202/434 699/1202/434 700/1204/434
f 620/1196/435 619/1204/435 700/1204/435 701/1196/435
f 609/1194/436 620/1196/436 701/1196/436 690/1194/436
f 621/1175/437 615/1174/437 696/1174/437 702/1175/437
f 622/1177/438 621/1175/438 702/1175/438 703/1177/438
f 623/1178/439 622/1177/439 703/1177/439 704/1178/439
f 610/1179/440 623/1178/440 704/1178/440 691/1179/440
f 624/1155/441 614/1154/441 695/1154/441 705/1155/441
f 625/1156/442 624/1155/442 705/1155/442 706/1156/442
f 626/1157/443 625/1156/443 706/1156/443 707/1157/443
f 612/1158/444 626/1157/444 707/1157/444 693/1158/444
f 627/1215/445 616/1163/445 697/1163/445 708/1215/445
f 628/1216/446 627/1215/446 708/1215/446 709/1216/446
f 629/1217/447 628/1216/447 709/1216/447 710/1217/447
f 611/1219/448 629/1217/448 710/1217/448 692/1219/448
f 630/1218/449 611/1219/449 692/1219/449 711/1218/449
f 631/1220/450 630/1218/450 711/1218/450 712/1220/450
f 632/1214/451 631/1220/451 712/1220/451 713/1214/451
f 613/1203/452 632/1214/452 713/1214/452 694/1203/452
f 633/1180/453 610/1179/453 691/1179/453 714/1180/453
f 634/1181/454 633/1180/454 714/1180/454 715/1181/454
f 635/1182/455 634/1181/455 715/1181/455 716/1182/455
f 614/1154/456 635/1182/456 716/1182/456 695/1154/456
f 639/1195/457 609/1194/457 690/1194/457 720/1195/457
f 640/1197/458 639/1195/458 720/1195/458 721/1197/458
f 641/1198/459 640/1197/459 721/1197/459 722/1198/459
f 615/1174/460 641/1198/460 722/1198/460 696/1174/460
f 642/1159/461 612/1158/461 693/1158/461 723/1159/461
f 643/1160/462 642/1159/462 723/1159/462 724/1160/462
f 644/1161/463 643/1160/463 724/1160/463 725/1161/463
f 616/1163/464 644/1161/464 725/1161/464 697/1163/464
o folha.001
v 0.071085 0.513558 0.085045
v 0.069430 0.511517 0.091637
v 0.142001 0.471111 0.150433
v 0.130897 0.465323 0.155825
v 0.115345 0.497424 0.115594
v 0.096714 0.497952 0.134599
v 0.070258 0.512538 0.088341
v 0.138913 0.457162 0.155306
v 0.106030 0.497688 0.125096
vn 0.5626 0.7541 0.3390
vn 0.1808 0.9629 0.2002
vn 0.1940 0.9582 0.2104
vn 0.0302 0.7108 0.7027
vt 0.500000 0.500000
vt 1.000000 0.500000
vt 1.000000 1.000000
vt 0.500000 1.000000
vt 0.500000 0.000000
vt 1.000000 0.000000
vt 0.000000 0.000000
vt 0.000000 0.500000
vt 0.000000 1.000000
s 0
usemtl Material.003
f 779/1221/465 776/1222/465 774/1223/465 778/1224/465
f 777/1225/466 772/1226/466 776/1222/466 779/1221/466
f 771/1227/467 777/1225/467 779/1221/467 775/1228/467
f 775/1228/468 779/1221/468 778/1224/468 773/1229/468
o folha.002
v 0.070100 0.521909 0.075804
v 0.070181 0.523537 0.085954
v 0.198172 0.515207 0.158630
v 0.185499 0.510597 0.173059
v 0.144697 0.524268 0.108136
v 0.124086 0.536299 0.138424
v 0.070140 0.522723 0.080879
v 0.198394 0.500277 0.174605
v 0.134391 0.530283 0.123280
vn 0.4968 0.8503 -0.1738
vn 0.0673 0.9551 -0.2884
vn 0.0829 0.9562 -0.2809
vn 0.0628 0.9539 0.2936
vt 0.500000 0.500000
vt 1.000000 0.500000
vt 1.000000 1.000000
vt 0.500000 1.000000
vt 0.500000 0.000000
vt 1.000000 0.000000
vt 0.000000 0.000000
vt 0.000000 0.500000
vt 0.000000 1.000000
s 0
usemtl Material.003
f 788/1230/469 785/1231/469 783/1232/469 787/1233/469
f 786/1234/470 781/1235/470 785/1231/470 788/1230/470
f 780/1236/471 786/1234/471 788/1230/471 784/1237/471
f 784/1237/472 788/1230/472 787/1233/472 782/1238/472
o folha.003
v -0.056527 0.449244 0.084513
v -0.067582 0.453289 0.077684
v -0.165967 0.418462 0.196734
v -0.178111 0.419944 0.176781
v -0.108425 0.443409 0.151092
v -0.134963 0.452189 0.124529
vn -0.1796 0.9186 0.3520
vn 0.1434 0.9671 0.2100
vt 0.000000 0.500000
vt 1.000000 0.500000
vt 1.000000 1.000000
vt 0.000000 1.000000
vt 0.000000 0.000000
vt 1.000000 0.000000
s 0
usemtl Material.003
f 793/1239/473 794/1240/473 792/1241/473 791/1242/473
f 789/1243/474 790/1244/474 794/1240/474 793/1239/474
o folha.004
v -0.023435 0.471177 0.049422
v -0.017959 0.477261 0.041733
v -0.144717 0.440394 -0.049883
v -0.125891 0.441876 -0.063710
v -0.094260 0.465342 0.003488
v -0.070097 0.474121 -0.025252
vn -0.3662 0.9186 -0.1484
vn -0.2437 0.9511 0.1898
vt 0.000000 0.500000
vt 1.000000 0.500000
vt 1.000000 1.000000
vt 0.000000 1.000000
vt 0.000000 0.000000
vt 1.000000 0.000000
s 0
usemtl Material.003
f 799/1245/475 800/1246/475 798/1247/475 797/1248/475
f 795/1249/476 796/1250/476 800/1246/476 799/1245/476
o folha.005
v 0.019508 0.533760 0.086944
v 0.013377 0.534707 0.095141
v 0.073944 0.560243 0.227097
v 0.057229 0.551198 0.232466
v 0.058471 0.556138 0.154743
v 0.021991 0.559615 0.166745
v 0.016442 0.534233 0.091043
v 0.069237 0.545093 0.242146
v 0.040231 0.557876 0.160744
vn 0.2473 0.9684 0.0316
vn -0.0505 0.9480 -0.3142
vn -0.0429 0.9532 -0.2994
vn -0.3828 0.9095 0.1621
vt 0.500000 0.500000
vt 1.000000 0.500000
vt 1.000000 1.000000
vt 0.500000 1.000000
vt 0.500000 0.000000
vt 1.000000 0.000000
vt 0.000000 0.000000
vt 0.000000 0.500000
vt 0.000000 1.000000
s 0
usemtl Material.003
f 809/1251/477 806/1252/477 804/1253/477 808/1254/477
f 807/1255/478 802/1256/478 806/1252/478 809/1251/478
f 801/1257/479 807/1255/479 809/1251/479 805/1258/479
f 805/1258/480 809/1251/480 808/1254/480 803/1259/480
o folha.006
v -0.001562 0.614169 0.024748
v 0.007238 0.619767 0.028913
v 0.064865 0.601750 -0.119999
v 0.082897 0.601325 -0.105085
v 0.025542 0.618580 -0.055291
v 0.059342 0.625201 -0.037951
v 0.002807 0.616948 0.026816
v 0.079532 0.594022 -0.125679
v 0.042324 0.621867 -0.046682
vn -0.0075 0.9417 -0.3364
vn -0.2360 0.9682 -0.0826
vn -0.2517 0.9665 -0.0505
vn 0.1562 0.9637 -0.2164
vt 0.496499 0.500000
vt 1.000000 0.500000
vt 1.000000 1.000000
vt 0.496499 1.000000
vt 0.496499 0.000000
vt 1.000000 0.000000
vt 0.000000 0.000000
vt 0.000000 0.500000
vt 0.000000 1.000000
s 0
usemtl Material.003
f 818/1260/481 815/1261/481 813/1262/481 817/1263/481
f 816/1264/482 811/1265/482 815/1261/482 818/1260/482
f 810/1266/483 816/1264/483 818/1260/483 814/1267/483
f 814/1267/484 818/1260/484 817/1263/484 812/1268/484
