# Blender 4.4.3
# www.blender.org
mtllib flower-particle.mtl
o Cube
v 0.045857 0.045857 -0.005732
v 0.045857 -0.045857 -0.005732
v 0.045857 0.045857 0.005732
v 0.045857 -0.045857 0.005732
v -0.045857 0.045857 -0.005732
v -0.045857 -0.045857 -0.005732
v -0.045857 0.045857 0.005732
v -0.045857 -0.045857 0.005732
v 0.045857 0.019419 -0.005732
v -0.045857 0.019419 0.005732
v 0.045857 0.019419 0.005732
v -0.045857 0.019419 -0.005732
v 0.045857 -0.013219 -0.005732
v 0.045857 -0.013219 0.005732
v -0.045857 -0.013219 -0.005732
v -0.045857 -0.013219 0.005732
v 0.017654 -0.045857 -0.005732
v 0.017654 0.045857 0.005732
v 0.017654 -0.045857 0.005732
v 0.017654 0.045857 -0.005732
v 0.017654 0.019419 -0.005732
v 0.017654 0.019419 0.005732
v 0.017654 -0.013219 0.005732
v 0.017654 -0.013219 -0.005732
v -0.014101 -0.045857 -0.005732
v -0.014101 0.045857 0.005732
v -0.014101 0.019419 0.005732
v -0.014101 -0.013219 0.005732
v -0.014101 -0.045857 0.005732
v -0.014101 0.045857 -0.005732
v -0.014101 0.019419 -0.005732
v -0.014101 -0.013219 -0.005732
v -0.014101 0.072320 -0.005732
v 0.017654 0.072320 -0.005732
v 0.017654 0.072320 0.005732
v -0.014101 0.072320 0.005732
v 0.065462 0.019419 -0.005732
v 0.065462 0.019419 0.005732
v 0.065462 -0.013219 -0.005732
v 0.065462 -0.013219 0.005732
v -0.014101 -0.064385 0.005732
v 0.017654 -0.064385 0.005732
v 0.017654 -0.064385 -0.005732
v -0.014101 -0.064385 -0.005732
v -0.066145 -0.013219 0.005732
v -0.066145 0.019419 0.005732
v -0.066145 0.019419 -0.005732
v -0.066145 -0.013219 -0.005732
vn -0.0000 1.0000 -0.0000
vn -0.0000 -0.0000 1.0000
vn -1.0000 -0.0000 -0.0000
vn -0.0000 -1.0000 -0.0000
vn 1.0000 -0.0000 -0.0000
vn -0.0000 -0.0000 -1.0000
vt 0.788438 0.500000
vt 0.875000 0.500000
vt 0.875000 0.750000
vt 0.788438 0.750000
vt 0.552934 0.913438
vt 0.625000 0.913438
vt 0.625000 1.000000
vt 0.552934 1.000000
vt 0.552934 0.000000
vt 0.625000 0.000000
vt 0.625000 0.250000
vt 0.552934 0.250000
vt 0.298123 0.500000
vt 0.375000 0.500000
vt 0.375000 0.750000
vt 0.298123 0.750000
vt 0.552934 0.500000
vt 0.625000 0.500000
vt 0.625000 0.750000
vt 0.552934 0.750000
vt 0.552934 0.423123
vt 0.625000 0.423123
vt 0.463967 0.423123
vt 0.463967 0.500000
vt 0.463967 0.750000
vt 0.463967 1.000000
vt 0.463967 0.913439
vt 0.375000 0.913438
vt 0.375000 1.000000
vt 0.375000 0.000000
vt 0.463967 0.000000
vt 0.463967 0.250000
vt 0.375000 0.250000
vt 0.375000 0.423123
vt 0.375000 0.336562
vt 0.463967 0.336562
vt 0.463967 0.826877
vt 0.375000 0.826877
vt 0.552934 0.826877
vt 0.552934 0.336562
vt 0.625000 0.336562
vt 0.625000 0.826877
vt 0.701877 0.500000
vt 0.701877 0.750000
vt 0.125000 0.500000
vt 0.211562 0.500000
vt 0.211562 0.750000
vt 0.125000 0.750000
s 0
usemtl Material
f 30/1/1 5/2/1 7/3/1 26/4/1
f 27/5/2 26/6/2 7/7/2 10/8/2
f 10/9/3 7/10/3 5/11/3 12/12/3
f 17/13/4 2/14/4 4/15/4 19/16/4
f 9/17/5 1/18/5 3/19/5 11/20/5
f 21/21/6 20/22/6 1/18/6 9/17/6
f 24/23/6 21/21/6 9/17/6 13/24/6
f 11/20/2 14/25/2 40/25/2 38/20/2
f 16/26/2 10/8/2 46/8/2 45/26/2
f 28/27/2 27/5/2 10/8/2 16/26/2
f 29/28/2 28/27/2 16/26/2 8/29/2
f 8/30/3 16/31/3 15/32/3 6/33/3
f 2/14/5 13/24/5 14/25/5 4/15/5
f 17/34/6 24/23/6 13/24/6 2/14/6
f 25/35/6 32/36/6 24/23/6 17/34/6
f 4/15/2 14/25/2 23/37/2 19/38/2
f 14/25/2 11/20/2 22/39/2 23/37/2
f 32/36/6 31/40/6 21/21/6 24/23/6
f 31/40/6 30/41/6 20/22/6 21/21/6
f 25/35/6 17/34/6 43/34/6 44/35/6
f 11/20/2 3/19/2 18/42/2 22/39/2
f 1/18/1 20/43/1 18/44/1 3/19/1
f 6/45/4 25/46/4 29/47/4 8/48/4
f 12/12/6 5/11/6 30/41/6 31/40/6
f 15/32/6 12/12/6 31/40/6 32/36/6
f 6/33/6 15/32/6 32/36/6 25/35/6
f 19/38/2 23/37/2 28/27/2 29/28/2
f 23/37/2 22/39/2 27/5/2 28/27/2
f 22/39/2 18/42/2 26/6/2 27/5/2
f 26/6/2 18/42/2 35/42/2 36/6/2
f 34/43/1 33/1/1 36/4/1 35/44/1
f 18/44/5 20/43/5 34/43/5 35/44/5
f 30/1/3 26/4/3 36/4/3 33/1/3
f 20/22/6 30/41/6 33/41/6 34/22/6
f 39/24/5 37/17/5 38/20/5 40/25/5
f 9/17/1 11/20/1 38/20/1 37/17/1
f 14/25/4 13/24/4 39/24/4 40/25/4
f 13/24/6 9/17/6 37/17/6 39/24/6
f 44/46/4 43/13/4 42/16/4 41/47/4
f 19/38/2 29/28/2 41/28/2 42/38/2
f 17/13/5 19/16/5 42/16/5 43/13/5
f 29/47/3 25/46/3 44/46/3 41/47/3
f 45/31/3 46/9/3 47/12/3 48/32/3
f 12/12/6 15/32/6 48/32/6 47/12/6
f 10/9/1 12/12/1 47/12/1 46/9/1
f 15/32/4 16/31/4 45/31/4 48/32/4
