{"accessors":[{"bufferView":0,"byteOffset":0,"componentType":5126,"count":216,"max":[8.34016513824463,6.81394004821777,0.948810219764709],"min":[-8.34052467346191,-0.856468975543976,-4.05119037628174],"normalized":false,"type":"VEC3"},{"bufferView":1,"byteOffset":0,"componentType":5126,"count":216,"max":[1.0,0.0,1.0,1.0],"min":[-1.0,-1.0,-1.0,-1.0],"normalized":false,"type":"VEC4"},{"bufferView":2,"byteOffset":0,"componentType":5126,"count":216,"max":[1.0,1.0,1.0],"min":[-1.0,-1.0,-1.0],"normalized":false,"type":"VEC3"},{"bufferView":3,"byteOffset":0,"componentType":5126,"count":216,"max":[1.0,1.0],"min":[0.0,0.0],"normalized":false,"type":"VEC2"},{"bufferView":4,"byteOffset":0,"componentType":5123,"count":216,"max":[215.0],"min":[0.0],"normalized":false,"type":"SCALAR"},{"bufferView":5,"byteOffset":0,"componentType":5126,"count":180,"max":[11.3591051101685,6.81394004821777,0.948810458183289],"min":[-18.1728343963623,-0.856305122375488,-5.05768489837646],"normalized":false,"type":"VEC3"},{"bufferView":6,"byteOffset":0,"componentType":5126,"count":180,"max":[1.0,0.0,1.0,1.0],"min":[-1.0,-1.0,-1.0,-1.0],"normalized":false,"type":"VEC4"},{"bufferView":7,"byteOffset":0,"componentType":5126,"count":180,"max":[1.0,1.0,1.0],"min":[-1.0,-1.0,-1.0],"normalized":false,"type":"VEC3"},{"bufferView":8,"byteOffset":0,"componentType":5126,"count":180,"max":[1.0,1.0],"min":[0.0,0.0],"normalized":false,"type":"VEC2"},{"bufferView":9,"byteOffset":0,"componentType":5123,"count":180,"max":[179.0],"min":[0.0],"normalized":false,"type":"SCALAR"},{"bufferView":10,"byteOffset":0,"componentType":5126,"count":72,"max":[7.11810970306396,6.81394004821777,0.948810458183289],"min":[-13.881890296936,-0.824249982833862,-4.05119037628174],"normalized":false,"type":"VEC3"},{"bufferView":11,"byteOffset":0,"componentType":5126,"count":72,"max":[1.0,0.0,1.0,1.0],"min":[-1.0,-1.0,-1.0,-1.0],"normalized":false,"type":"VEC4"},{"bufferView":12,"byteOffset":0,"componentType":5126,"count":72,"max":[1.0,0.640169560909271,1.0],"min":[-1.0,-1.0,-1.0],"normalized":false,"type":"VEC3"},{"bufferView":13,"byteOffset":0,"componentType":5126,"count":72,"max":[1.0,1.0],"min":[0.0,0.0],"normalized":false,"type":"VEC2"},{"bufferView":14,"byteOffset":0,"componentType":5123,"count":72,"max":[71.0],"min":[0.0],"normalized":false,"type":"SCALAR"},{"bufferView":15,"byteOffset":0,"componentType":5126,"count":180,"max":[11.3591051101685,6.81394004821777,0.948810458183289],"min":[-18.1728343963623,-0.856305122375488,-5.05768489837646],"normalized":false,"type":"VEC3"},{"bufferView":16,"byteOffset":0,"componentType":5126,"count":180,"max":[1.0,0.0,1.0,1.0],"min":[-1.0,-1.0,-1.0,-1.0],"normalized":false,"type":"VEC4"},{"bufferView":17,"byteOffset":0,"componentType":5126,"count":180,"max":[1.0,1.0,1.0],"min":[-1.0,-1.0,-1.0],"normalized":false,"type":"VEC3"},{"bufferView":18,"byteOffset":0,"componentType":5126,"count":180,"max":[1.0,1.0],"min":[0.0,0.0],"normalized":false,"type":"VEC2"},{"bufferView":19,"byteOffset":0,"componentType":5123,"count":180,"max":[179.0],"min":[0.0],"normalized":false,"type":"SCALAR"}],"asset":{"generator":"Godot Engine v4.4.1.stable.steam@49a5bc7b616bd04689a2c89e89bda41f50241464","version":"2.0"},"bufferViews":[{"buffer":0,"byteLength":2592,"byteOffset":0,"byteStride":12,"target":34962},{"buffer":0,"byteLength":3456,"byteOffset":2592,"byteStride":16,"target":34962},{"buffer":0,"byteLength":2592,"byteOffset":6048,"byteStride":12,"target":34962},{"buffer":0,"byteLength":1728,"byteOffset":8640,"byteStride":8,"target":34962},{"buffer":0,"byteLength":432,"byteOffset":10368,"target":34963},{"buffer":0,"byteLength":2160,"byteOffset":10800,"byteStride":12,"target":34962},{"buffer":0,"byteLength":2880,"byteOffset":12960,"byteStride":16,"target":34962},{"buffer":0,"byteLength":2160,"byteOffset":15840,"byteStride":12,"target":34962},{"buffer":0,"byteLength":1440,"byteOffset":18000,"byteStride":8,"target":34962},{"buffer":0,"byteLength":360,"byteOffset":19440,"target":34963},{"buffer":0,"byteLength":864,"byteOffset":19800,"byteStride":12,"target":34962},{"buffer":0,"byteLength":1152,"byteOffset":20664,"byteStride":16,"target":34962},{"buffer":0,"byteLength":864,"byteOffset":21816,"byteStride":12,"target":34962},{"buffer":0,"byteLength":576,"byteOffset":22680,"byteStride":8,"target":34962},{"buffer":0,"byteLength":144,"byteOffset":23256,"target":34963},{"buffer":0,"byteLength":2160,"byteOffset":23400,"byteStride":12,"target":34962},{"buffer":0,"byteLength":2880,"byteOffset":25560,"byteStride":16,"target":34962},{"buffer":0,"byteLength":2160,"byteOffset":28440,"byteStride":12,"target":34962},{"buffer":0,"byteLength":1440,"byteOffset":30600,"byteStride":8,"target":34962},{"buffer":0,"byteLength":360,"byteOffset":32040,"target":34963}],"buffers":[{"byteLength":32400,"uri":"house_model0.bin"}],"extensions":{"OMI_physics_shape":{"shapes":[{"box":{"size":[4.49379014968872,6.06524991989136,21.0398006439209]},"type":"box"},{"box":{"size":[5.06287002563477,4.33057022094727,4.01730012893677]},"type":"box"},{"box":{"size":[4.05013990402222,4.33057022094727,4.95892000198364]},"type":"box"},{"box":{"size":[4.04769992828369,4.37658977508545,5.06627988815308]},"type":"box"},{"box":{"size":[4.00152015686035,4.46898984909058,5.05259990692139]},"type":"box"}]}},"extensionsUsed":["GODOT_single_root","OMI_physics_body","OMI_physics_shape"],"materials":[{},{},{},{}],"meshes":[{"extras":{"targetNames":[]},"primitives":[{"attributes":{"NORMAL":2,"POSITION":0,"TANGENT":1,"TEXCOORD_0":3},"indices":4,"material":0,"mode":4}]},{"extras":{"targetNames":[]},"primitives":[{"attributes":{"NORMAL":7,"POSITION":5,"TANGENT":6,"TEXCOORD_0":8},"indices":9,"material":1,"mode":4}]},{"extras":{"targetNames":[]},"primitives":[{"attributes":{"NORMAL":12,"POSITION":10,"TANGENT":11,"TEXCOORD_0":13},"indices":14,"material":2,"mode":4}]},{"extras":{"targetNames":[]},"primitives":[{"attributes":{"NORMAL":17,"POSITION":15,"TANGENT":16,"TEXCOORD_0":18},"indices":19,"material":3,"mode":4}]}],"nodes":[{"children":[1,6],"name":"house_model"},{"children":[2,3,4,5],"mesh":0,"name":"molde_principal2"},{"name":"CSGBox3D","translation":[0.0,1.67575001716614,-1.55259001255035]},{"name":"CSGMesh3D","rotation":[0.0,0.70710676908493,0.0,0.70710676908493],"translation":[0.0595917999744415,5.31394004821777,-1.55119001865387]},{"name":"CSGBox3D3","translation":[-6.48536014556885,0.828836023807526,-1.37847995758057]},{"name":"CSGBox3D4","translation":[6.4850001335144,0.828999996185303,-1.37800002098084]},{"children":[7,12,15,23,33],"name":"walls_holder","translation":[0.0,-8.0,0.0]},{"children":[8,9,10,11],"mesh":1,"name":"parede22","rotation":[0.0,-0.70710676908493,0.0,0.70710676908493],"translation":[-12.9309997558594,0.0,14.3948001861572]},{"name":"CSGBox3D2","translation":[-3.77904009819031,1.67575001716614,-1.68717002868652]},{"name":"CSGMesh3D2","rotation":[0.0,0.70710676908493,0.0,0.70710676908493],"translation":[-3.38189005851746,5.31394004821777,-1.55119001865387]},{"name":"CSGBox3D42","translation":[8.84467029571533,1.33686995506287,-3.05567002296448]},{"name":"CSGBox3D5","translation":[-15.6583995819092,1.33686995506287,-3.05567002296448]},{"children":[13,14],"mesh":2,"name":"parede32","translation":[3.06762003898621,0.0,26.2210998535156]},{"name":"CSGBox3D6","translation":[-3.77904009819031,1.67575001716614,-1.68717002868652]},{"name":"CSGMesh3D3","rotation":[0.0,0.70710676908493,0.0,0.70710676908493],"translation":[-3.38189005851746,5.31394004821777,-1.55119001865387]},{"children":[16,17,18,19,20,21,22],"extensions":{"OMI_physics_body":{"motion":{"type":"static"}}},"name":"collision_das_paredes"},{"extensions":{"OMI_physics_body":{"collider":{"shape":0}}},"name":"CollisionShape3D","translation":[11.4119997024536,1.5,10.9750003814697]},{"extensions":{"OMI_physics_body":{"collider":{"shape":0}}},"name":"CollisionShape3D2","rotation":[0.0,0.70710676908493,0.0,0.70710676908493],"translation":[0.0,1.5,24.7630004882813]},{"extensions":{"OMI_physics_body":{"collider":{"shape":0}}},"name":"CollisionShape3D3","translation":[-11.3649997711182,1.5,10.9750003814697]},{"extensions":{"OMI_physics_body":{"collider":{"shape":1}}},"name":"CollisionShape3D4","rotation":[0.0,0.70710676908493,0.0,0.70710676908493],"translation":[9.88094997406006,1.34248995780945,23.3742008209229]},{"extensions":{"OMI_physics_body":{"collider":{"shape":2}}},"name":"CollisionShape3D5","translation":[9.88811016082764,1.33686995506287,-1.12137997150421]},{"extensions":{"OMI_physics_body":{"collider":{"shape":3}}},"name":"CollisionShape3D6","translation":[-9.87598991394043,1.32415997982025,-1.25257003307343]},{"extensions":{"OMI_physics_body":{"collider":{"shape":4}}},"name":"CollisionShape3D8","translation":[-9.89019012451172,1.31531000137329,23.2593002319336]},{"children":[24,25,26,27,28,29,30,31,32],"name":"saidas"},{"name":"exit1","rotation":[0.0,0.70710676908493,0.0,0.70710676908493],"translation":[8.3459300994873,1.22200000286102,4.0]},{"name":"exit2","rotation":[0.0,0.70710676908493,0.0,0.70710676908493],"translation":[8.3459997177124,1.22200000286102,8.0]},{"name":"exit3","rotation":[0.0,0.70710676908493,0.0,0.70710676908493],"translation":[8.3459997177124,1.22200000286102,12.0]},{"name":"exit4","rotation":[0.0,0.70710676908493,0.0,0.70710676908493],"translation":[8.3459997177124,1.22200000286102,16.0]},{"name":"exit5","rotation":[0.0,0.70710676908493,0.0,0.70710676908493],"translation":[8.3459997177124,1.22200000286102,20.0]},{"name":"exit6","rotation":[0.0,1.0,0.0,-0.000000043711398944879],"translation":[6.0,1.22200000286102,21.7000007629395]},{"name":"exit7","rotation":[0.0,1.0,0.0,-0.000000043711398944879],"translation":[2.0,1.22200000286102,21.7000007629395]},{"name":"exit8","rotation":[0.0,1.0,0.0,-0.000000043711398944879],"translation":[-2.0,1.22200000286102,21.7000007629395]},{"name":"exit9","rotation":[0.0,1.0,0.0,-0.000000043711398944879],"translation":[-6.0,1.22200000286102,0.870655000209808]},{"children":[34,35,36,37],"mesh":3,"name":"parede12","rotation":[0.0,0.70710676908493,0.0,0.70710676908493],"translation":[12.9315004348755,0.0,7.7012300491333]},{"name":"CSGBox3D7","translation":[-3.77904009819031,1.67575001716614,-1.68717002868652]},{"name":"CSGMesh3D4","rotation":[0.0,0.70710676908493,0.0,0.70710676908493],"translation":[-3.38189005851746,5.31394004821777,-1.55119001865387]},{"name":"CSGBox3D43","translation":[8.84467029571533,1.33686995506287,-3.05567002296448]},{"name":"CSGBox3D52","translation":[-15.6583995819092,1.33686995506287,-3.05567002296448]}],"scene":0,"scenes":[{"nodes":[0]}]}