{"accessors":[{"bufferView":0,"byteOffset":0,"componentType":5126,"count":36,"max":[17.5,0.685500025749207,10.0],"min":[-17.5,-0.685500025749207,-10.0],"normalized":false,"type":"VEC3"},{"bufferView":1,"byteOffset":0,"componentType":5126,"count":36,"max":[0.0,0.0,0.0000763009302318096,-1.0],"min":[-1.0,-1.0,-1.0,-1.0],"normalized":false,"type":"VEC4"},{"bufferView":2,"byteOffset":0,"componentType":5126,"count":36,"max":[1.0,1.0,1.0],"min":[-1.0,-1.0,-1.0],"normalized":false,"type":"VEC3"},{"bufferView":3,"byteOffset":0,"componentType":5126,"count":36,"max":[1.0,1.0],"min":[0.0,0.0],"normalized":false,"type":"VEC2"},{"bufferView":4,"byteOffset":0,"componentType":5123,"count":36,"max":[35.0],"min":[0.0],"normalized":false,"type":"SCALAR"},{"bufferView":5,"byteOffset":0,"componentType":5126,"count":36,"max":[14.0,2.72900009155273,0.294999986886978],"min":[-14.0,-2.72900009155273,-0.294999986886978],"normalized":false,"type":"VEC3"},{"bufferView":6,"byteOffset":0,"componentType":5126,"count":36,"max":[0.0,0.0,0.0000763009302318096,-1.0],"min":[-1.0,-1.0,-1.0,-1.0],"normalized":false,"type":"VEC4"},{"bufferView":7,"byteOffset":0,"componentType":5126,"count":36,"max":[1.0,1.0,1.0],"min":[-1.0,-1.0,-1.0],"normalized":false,"type":"VEC3"},{"bufferView":8,"byteOffset":0,"componentType":5126,"count":36,"max":[1.0,1.0],"min":[0.0,0.0],"normalized":false,"type":"VEC2"},{"bufferView":9,"byteOffset":0,"componentType":5123,"count":36,"max":[35.0],"min":[0.0],"normalized":false,"type":"SCALAR"},{"bufferView":10,"byteOffset":0,"componentType":5126,"count":36,"max":[3.0533447265625,2.72900009155273,0.294999986886978],"min":[-3.0533447265625,-2.72900009155273,-0.294999986886978],"normalized":false,"type":"VEC3"},{"bufferView":11,"byteOffset":0,"componentType":5126,"count":36,"max":[0.0,0.0,0.0000763009302318096,-1.0],"min":[-1.0,-1.0,-1.0,-1.0],"normalized":false,"type":"VEC4"},{"bufferView":12,"byteOffset":0,"componentType":5126,"count":36,"max":[1.0,1.0,1.0],"min":[-1.0,-1.0,-1.0],"normalized":false,"type":"VEC3"},{"bufferView":13,"byteOffset":0,"componentType":5126,"count":36,"max":[1.0,1.0],"min":[0.0,0.0],"normalized":false,"type":"VEC2"},{"bufferView":14,"byteOffset":0,"componentType":5123,"count":36,"max":[35.0],"min":[0.0],"normalized":false,"type":"SCALAR"},{"bufferView":15,"byteOffset":0,"componentType":5126,"count":36,"max":[3.0533447265625,2.72900009155273,0.294999986886978],"min":[-3.0533447265625,-2.72900009155273,-0.294999986886978],"normalized":false,"type":"VEC3"},{"bufferView":16,"byteOffset":0,"componentType":5126,"count":36,"max":[0.0,0.0,0.0000763009302318096,-1.0],"min":[-1.0,-1.0,-1.0,-1.0],"normalized":false,"type":"VEC4"},{"bufferView":17,"byteOffset":0,"componentType":5126,"count":36,"max":[1.0,1.0,1.0],"min":[-1.0,-1.0,-1.0],"normalized":false,"type":"VEC3"},{"bufferView":18,"byteOffset":0,"componentType":5126,"count":36,"max":[1.0,1.0],"min":[0.0,0.0],"normalized":false,"type":"VEC2"},{"bufferView":19,"byteOffset":0,"componentType":5123,"count":36,"max":[35.0],"min":[0.0],"normalized":false,"type":"SCALAR"},{"bufferView":20,"byteOffset":0,"componentType":5126,"count":36,"max":[2.862060546875,2.72900009155273,0.294999986886978],"min":[-2.862060546875,-2.72900009155273,-0.294999986886978],"normalized":false,"type":"VEC3"},{"bufferView":21,"byteOffset":0,"componentType":5126,"count":36,"max":[0.0,0.0,0.0000763009302318096,-1.0],"min":[-1.0,-1.0,-1.0,-1.0],"normalized":false,"type":"VEC4"},{"bufferView":22,"byteOffset":0,"componentType":5126,"count":36,"max":[1.0,1.0,1.0],"min":[-1.0,-1.0,-1.0],"normalized":false,"type":"VEC3"},{"bufferView":23,"byteOffset":0,"componentType":5126,"count":36,"max":[1.0,1.0],"min":[0.0,0.0],"normalized":false,"type":"VEC2"},{"bufferView":24,"byteOffset":0,"componentType":5123,"count":36,"max":[35.0],"min":[0.0],"normalized":false,"type":"SCALAR"},{"bufferView":25,"byteOffset":0,"componentType":5126,"count":36,"max":[8.478759765625,2.72900009155273,0.294999986886978],"min":[-8.478759765625,-2.72900009155273,-0.294999986886978],"normalized":false,"type":"VEC3"},{"bufferView":26,"byteOffset":0,"componentType":5126,"count":36,"max":[0.0,0.0,0.0000763009302318096,-1.0],"min":[-1.0,-1.0,-1.0,-1.0],"normalized":false,"type":"VEC4"},{"bufferView":27,"byteOffset":0,"componentType":5126,"count":36,"max":[1.0,1.0,1.0],"min":[-1.0,-1.0,-1.0],"normalized":false,"type":"VEC3"},{"bufferView":28,"byteOffset":0,"componentType":5126,"count":36,"max":[1.0,1.0],"min":[0.0,0.0],"normalized":false,"type":"VEC2"},{"bufferView":29,"byteOffset":0,"componentType":5123,"count":36,"max":[35.0],"min":[0.0],"normalized":false,"type":"SCALAR"},{"bufferView":30,"byteOffset":0,"componentType":5126,"count":36,"max":[8.478759765625,2.72900009155273,0.294999986886978],"min":[-8.478759765625,-2.72900009155273,-0.294999986886978],"normalized":false,"type":"VEC3"},{"bufferView":31,"byteOffset":0,"componentType":5126,"count":36,"max":[0.0,0.0,0.0000763009302318096,-1.0],"min":[-1.0,-1.0,-1.0,-1.0],"normalized":false,"type":"VEC4"},{"bufferView":32,"byteOffset":0,"componentType":5126,"count":36,"max":[1.0,1.0,1.0],"min":[-1.0,-1.0,-1.0],"normalized":false,"type":"VEC3"},{"bufferView":33,"byteOffset":0,"componentType":5126,"count":36,"max":[1.0,1.0],"min":[0.0,0.0],"normalized":false,"type":"VEC2"},{"bufferView":34,"byteOffset":0,"componentType":5123,"count":36,"max":[35.0],"min":[0.0],"normalized":false,"type":"SCALAR"}],"asset":{"generator":"Godot Engine v4.4.1.stable.steam@49a5bc7b616bd04689a2c89e89bda41f50241464","version":"2.0"},"bufferViews":[{"buffer":0,"byteLength":432,"byteOffset":0,"byteStride":12,"target":34962},{"buffer":0,"byteLength":576,"byteOffset":432,"byteStride":16,"target":34962},{"buffer":0,"byteLength":432,"byteOffset":1008,"byteStride":12,"target":34962},{"buffer":0,"byteLength":288,"byteOffset":1440,"byteStride":8,"target":34962},{"buffer":0,"byteLength":72,"byteOffset":1728,"target":34963},{"buffer":0,"byteLength":432,"byteOffset":1800,"byteStride":12,"target":34962},{"buffer":0,"byteLength":576,"byteOffset":2232,"byteStride":16,"target":34962},{"buffer":0,"byteLength":432,"byteOffset":2808,"byteStride":12,"target":34962},{"buffer":0,"byteLength":288,"byteOffset":3240,"byteStride":8,"target":34962},{"buffer":0,"byteLength":72,"byteOffset":3528,"target":34963},{"buffer":0,"byteLength":432,"byteOffset":3600,"byteStride":12,"target":34962},{"buffer":0,"byteLength":576,"byteOffset":4032,"byteStride":16,"target":34962},{"buffer":0,"byteLength":432,"byteOffset":4608,"byteStride":12,"target":34962},{"buffer":0,"byteLength":288,"byteOffset":5040,"byteStride":8,"target":34962},{"buffer":0,"byteLength":72,"byteOffset":5328,"target":34963},{"buffer":0,"byteLength":432,"byteOffset":5400,"byteStride":12,"target":34962},{"buffer":0,"byteLength":576,"byteOffset":5832,"byteStride":16,"target":34962},{"buffer":0,"byteLength":432,"byteOffset":6408,"byteStride":12,"target":34962},{"buffer":0,"byteLength":288,"byteOffset":6840,"byteStride":8,"target":34962},{"buffer":0,"byteLength":72,"byteOffset":7128,"target":34963},{"buffer":0,"byteLength":432,"byteOffset":7200,"byteStride":12,"target":34962},{"buffer":0,"byteLength":576,"byteOffset":7632,"byteStride":16,"target":34962},{"buffer":0,"byteLength":432,"byteOffset":8208,"byteStride":12,"target":34962},{"buffer":0,"byteLength":288,"byteOffset":8640,"byteStride":8,"target":34962},{"buffer":0,"byteLength":72,"byteOffset":8928,"target":34963},{"buffer":0,"byteLength":432,"byteOffset":9000,"byteStride":12,"target":34962},{"buffer":0,"byteLength":576,"byteOffset":9432,"byteStride":16,"target":34962},{"buffer":0,"byteLength":432,"byteOffset":10008,"byteStride":12,"target":34962},{"buffer":0,"byteLength":288,"byteOffset":10440,"byteStride":8,"target":34962},{"buffer":0,"byteLength":72,"byteOffset":10728,"target":34963},{"buffer":0,"byteLength":432,"byteOffset":10800,"byteStride":12,"target":34962},{"buffer":0,"byteLength":576,"byteOffset":11232,"byteStride":16,"target":34962},{"buffer":0,"byteLength":432,"byteOffset":11808,"byteStride":12,"target":34962},{"buffer":0,"byteLength":288,"byteOffset":12240,"byteStride":8,"target":34962},{"buffer":0,"byteLength":72,"byteOffset":12528,"target":34963}],"buffers":[{"byteLength":12600,"uri":"temple0.bin"}],"extensions":{"KHR_lights_punctual":{"lights":[{"color":[0.999998986721039,0.996949970722198,0.675936996936798],"intensity":0.800000011920929,"type":"directional"}]}},"extensionsUsed":["GODOT_single_root","KHR_lights_punctual"],"materials":[{},{},{},{},{},{},{}],"meshes":[{"extras":{"targetNames":[]},"primitives":[{"attributes":{"NORMAL":2,"POSITION":0,"TANGENT":1,"TEXCOORD_0":3},"indices":4,"material":0,"mode":4}]},{"extras":{"targetNames":[]},"primitives":[{"attributes":{"NORMAL":7,"POSITION":5,"TANGENT":6,"TEXCOORD_0":8},"indices":9,"material":1,"mode":4}]},{"extras":{"targetNames":[]},"primitives":[{"attributes":{"NORMAL":12,"POSITION":10,"TANGENT":11,"TEXCOORD_0":13},"indices":14,"material":2,"mode":4}]},{"extras":{"targetNames":[]},"primitives":[{"attributes":{"NORMAL":17,"POSITION":15,"TANGENT":16,"TEXCOORD_0":18},"indices":19,"material":3,"mode":4}]},{"extras":{"targetNames":[]},"primitives":[{"attributes":{"NORMAL":22,"POSITION":20,"TANGENT":21,"TEXCOORD_0":23},"indices":24,"material":4,"mode":4}]},{"extras":{"targetNames":[]},"primitives":[{"attributes":{"NORMAL":27,"POSITION":25,"TANGENT":26,"TEXCOORD_0":28},"indices":29,"material":5,"mode":4}]},{"extras":{"targetNames":[]},"primitives":[{"attributes":{"NORMAL":32,"POSITION":30,"TANGENT":31,"TEXCOORD_0":33},"indices":34,"material":6,"mode":4}]}],"nodes":[{"children":[1,2,3,4,5,6,7,8,9],"name":"temple"},{"mesh":0,"name":"CSGBox3D2"},{"mesh":1,"name":"CSGBox3D23","translation":[0.386833190917969,2.66799712181091,-9.63204383850098]},{"mesh":2,"name":"CSGBox3D52","translation":[11.3334884643555,2.66799712181091,6.76715469360352]},{"mesh":3,"name":"CSGBox3D62","translation":[0.116134643554688,2.66799712181091,6.76715469360352]},{"mesh":4,"name":"CSGBox3D72","translation":[-10.5772075653076,2.66799712181091,6.76715469360352]},{"mesh":5,"name":"CSGBox3D32","rotation":[0.0,0.70710676908493,0.0,0.70710676908493],"translation":[-13.7082166671753,2.66799712181091,-1.40380477905273]},{"mesh":6,"name":"CSGBox3D42","rotation":[0.0,0.70710676908493,0.0,0.70710676908493],"translation":[14.1349239349365,2.66799712181091,-1.40380477905273]},{"name":"WorldEnvironment"},{"extensions":{"KHR_lights_punctual":{"light":0}},"name":"DirectionalLight3D","rotation":[-0.0209522861987352,0.353562653064728,0.91357284784317,-0.199847757816315],"translation":[0.373757362365723,6.07769203186035,0.0]}],"scene":0,"scenes":[{"nodes":[0]}]}