# Blender 4.5.3 LTS
# www.blender.org
mtllib alone-coral.mtl
o Cube
v 0.180006 1.039187 -0.314965
v 0.180006 1.312878 -0.184101
v 0.307958 1.039187 -0.184101
v 0.180006 1.232716 -0.276636
v 0.253879 1.197203 -0.259656
v 0.270482 1.232716 -0.184101
v 0.270482 1.039187 -0.276636
v 0.141964 -0.004566 -0.248402
v 0.242876 -0.004566 -0.145194
v 0.213319 -0.004566 -0.218173
v 0.307958 1.039187 0.184101
v 0.180006 1.312878 0.184101
v 0.180006 1.039187 0.314965
v 0.270482 1.232716 0.184101
v 0.253879 1.197203 0.259656
v 0.180006 1.232716 0.276636
v 0.270482 1.039187 0.276636
v 0.242876 -0.004566 0.145194
v 0.141964 -0.004566 0.248402
v 0.213319 -0.004566 0.218173
v -0.180006 1.039187 -0.314965
v -0.307958 1.039187 -0.184101
v -0.180006 1.312878 -0.184101
v -0.270482 1.039187 -0.276636
v -0.253879 1.197203 -0.259656
v -0.270482 1.232716 -0.184101
v -0.180006 1.232716 -0.276636
v -0.242876 -0.004566 -0.145194
v -0.141964 -0.004566 -0.248402
v -0.213319 -0.004566 -0.218173
v -0.307958 1.039187 0.184101
v -0.180006 1.039187 0.314965
v -0.180006 1.312878 0.184101
v -0.270482 1.039187 0.276636
v -0.253879 1.197203 0.259656
v -0.180006 1.232716 0.276636
v -0.270482 1.232716 0.184101
v -0.141964 -0.004566 0.248402
v -0.242876 -0.004566 0.145194
v -0.213319 -0.004566 0.218173
v 0.125299 1.312878 0.128150
v -0.125299 1.312878 0.128150
v 0.125299 1.312878 -0.128150
v -0.125299 1.312878 -0.128150
v 0.125299 0.422559 0.128150
v -0.125299 0.422559 0.128150
v 0.125299 0.422559 -0.128150
v -0.125299 0.422559 -0.128150
vn 0.3460 0.1617 -0.9242
vn 0.5280 0.6744 -0.5162
vn 0.9295 0.1591 -0.3327
vn 0.9295 0.1591 0.3327
vn 0.5280 0.6744 0.5162
vn 0.3460 0.1617 0.9242
vn -0.3460 0.1617 -0.9242
vn -0.9295 0.1591 -0.3327
vn -0.5280 0.6744 -0.5162
vn -0.9295 0.1591 0.3327
vn -0.3460 0.1617 0.9242
vn -0.5280 0.6744 0.5162
vn 0.9245 -0.0716 -0.3744
vn 0.3890 -0.0727 -0.9183
vn -0.3890 -0.0727 0.9183
vn -0.9245 -0.0716 0.3744
vn 0.3890 -0.0727 0.9183
vn 0.9245 -0.0716 0.3744
vn -0.3890 -0.0727 -0.9183
vn -0.9245 -0.0716 -0.3744
vn -0.0000 0.7558 0.6548
vn -0.0000 0.1943 0.9809
vn 0.6632 0.7485 -0.0000
vn 0.9818 0.1901 -0.0000
vn -0.6632 0.7485 -0.0000
vn -0.9818 0.1901 -0.0000
vn -0.0000 0.7558 -0.6548
vn -0.0000 0.1943 -0.9809
vn -0.0000 -0.0636 -0.9980
vn 0.9981 -0.0622 -0.0000
vn -0.0000 1.0000 -0.0000
vn -0.0000 -1.0000 -0.0000
vn -0.0000 -0.0636 0.9980
vn -0.9981 -0.0622 -0.0000
vn -0.0000 -0.0000 1.0000
vn -1.0000 -0.0000 -0.0000
vn 1.0000 -0.0000 -0.0000
vn -0.0000 -0.0000 -1.0000
vt 0.573064 0.448064
vt 0.650968 0.474032
vt 0.617683 0.500000
vt 0.573064 0.500000
vt 0.676936 0.551936
vt 0.625000 0.551936
vt 0.573064 0.551936
vt 0.573064 0.698064
vt 0.625000 0.698064
vt 0.625000 0.742683
vt 0.573064 0.750000
vt 0.676936 0.698064
vt 0.650968 0.775968
vt 0.573064 0.801936
vt 0.573064 0.301936
vt 0.573064 0.250000
vt 0.614025 0.239025
vt 0.625000 0.301936
vt 0.573064 0.198064
vt 0.625000 0.198064
vt 0.823064 0.551936
vt 0.823064 0.500000
vt 0.853049 0.500000
vt 0.875000 0.551936
vt 0.573064 0.051936
vt 0.573064 0.000000
vt 0.603049 0.000000
vt 0.625000 0.051936
vt 0.573064 0.948064
vt 0.625000 0.948064
vt 0.625000 0.978049
vt 0.573064 1.000000
vt 0.823064 0.698064
vt 0.875000 0.698064
vt 0.875000 0.728049
vt 0.823064 0.750000
vt 0.375000 0.551936
vt 0.362978 0.512022
vt 0.342949 0.480115
vt 0.375000 0.948064
vt 0.375000 1.000000
vt 0.375000 0.000000
vt 0.375000 0.051936
vt 0.342949 0.769885
vt 0.362978 0.737978
vt 0.375000 0.698064
vt 0.375000 0.301936
vt 0.375000 0.250000
vt 0.375000 0.198064
vt 0.125000 0.551936
vt 0.140212 0.515212
vt 0.176936 0.500000
vt 0.176936 0.750000
vt 0.140212 0.734788
vt 0.125000 0.698064
s 0
usemtl Material
f 1/1/1 4/2/1 5/3/1 7/4/1
f 2/5/2 6/6/2 5/3/2 4/2/2
f 3/7/3 7/4/3 5/3/3 6/6/3
f 11/8/4 14/9/4 15/10/4 17/11/4
f 12/12/5 16/13/5 15/10/5 14/9/5
f 13/14/6 17/11/6 15/10/6 16/13/6
f 21/15/7 24/16/7 25/17/7 27/18/7
f 22/19/8 26/20/8 25/17/8 24/16/8
f 23/21/9 27/22/9 25/23/9 26/24/9
f 31/25/10 34/26/10 35/27/10 37/28/10
f 32/29/11 36/30/11 35/31/11 34/32/11
f 33/33/12 37/34/12 35/35/12 36/36/12
f 3/7/13 9/37/13 10/38/13 7/4/13
f 7/4/14 10/38/14 8/39/14 1/1/14
f 38/40/15 32/29/15 34/32/15 40/41/15
f 40/42/16 34/26/16 31/25/16 39/43/16
f 13/14/17 19/44/17 20/45/17 17/11/17
f 17/11/18 20/45/18 18/46/18 11/8/18
f 21/15/19 29/47/19 30/48/19 24/16/19
f 24/16/20 30/48/20 28/49/20 22/19/20
f 12/12/21 33/33/21 36/36/21 16/13/21
f 16/13/22 36/30/22 32/29/22 13/14/22
f 2/5/23 12/12/23 14/9/23 6/6/23
f 6/6/24 14/9/24 11/8/24 3/7/24
f 33/33/25 23/21/25 26/24/25 37/34/25
f 37/28/26 26/20/26 22/19/26 31/25/26
f 23/21/27 2/5/27 4/2/27 27/22/27
f 27/18/28 4/2/28 1/1/28 21/15/28
f 29/47/29 21/15/29 1/1/29 8/39/29
f 9/37/30 3/7/30 11/8/30 18/46/30
f 23/21/31 33/33/31 42/33/31 44/21/31
f 28/50/32 30/51/32 29/52/32 8/39/32 10/38/32 9/37/32 18/46/32 20/45/32 19/44/32 38/53/32 40/54/32 39/55/32
f 19/44/33 13/14/33 32/29/33 38/40/33
f 39/43/34 31/25/34 22/19/34 28/49/34
f 43/5/35 44/21/35 48/21/35 47/5/35
f 33/33/31 12/12/31 41/12/31 42/33/31
f 2/5/31 23/21/31 44/21/31 43/5/31
f 12/12/31 2/5/31 43/5/31 41/12/31
f 47/5/31 48/21/31 46/33/31 45/12/31
f 41/12/36 43/5/36 47/5/36 45/12/36
f 44/21/37 42/33/37 46/33/37 48/21/37
f 42/33/38 41/12/38 45/12/38 46/33/38
